<!DOCTYPE svg PUBLIC "-//W3C//DTD SVG 1.1//EN" "http://www.w3.org/Graphics/SVG/1.1/DTD/svg11.dtd">
<!-- Uploaded to: SVG Repo, www.svgrepo.com, Transformed by: SVG Repo Mixer Tools -->
<svg fill="#fefefe" width="800px" height="800px" viewBox="-4.48 -4.48 40.96 40.96" id="icon" xmlns="http://www.w3.org/2000/svg" stroke="#fefefe" transform="matrix(1, 0, 0, 1, 0, 0)" stroke-width="0.00032">
<g id="SVGRepo_bgCarrier" stroke-width="0" transform="translate(0,0), scale(1)">
<rect x="-4.48" y="-4.48" width="40.96" height="40.96" rx="3.6864" fill="#0E2841" strokewidth="0"/>
</g>
<g id="SVGRepo_tracerCarrier" stroke-linecap="round" stroke-linejoin="round" stroke="#0E2841" stroke-width="0.064"/>
<g id="SVGRepo_iconCarrier"> <defs> <style> .cls-1 { fill: none; } </style> </defs> <polygon points="30 15 17 15 17 2 15 2 15 15 2 15 2 17 15 17 15 30 17 30 17 17 30 17 30 15"/> <path d="M5,30a3,3,0,1,1,3-3A3.0033,3.0033,0,0,1,5,30Zm0-4a1,1,0,1,0,1,1A1.001,1.001,0,0,0,5,26Z"/> <path d="M8,8a3,3,0,1,1,3-3A3.0033,3.0033,0,0,1,8,8ZM8,4A1,1,0,1,0,9,5,1.001,1.001,0,0,0,8,4Z"/> <path d="M22,13a3,3,0,1,1,3-3A3.0033,3.0033,0,0,1,22,13Zm0-4a1,1,0,1,0,1,1A1.001,1.001,0,0,0,22,9Z"/> <circle cx="11" cy="11" r="2"/> <circle cx="11" cy="21" r="2"/> <circle cx="21" cy="21" r="2"/> <circle cx="22" cy="28" r="2"/> <circle cx="28" cy="24" r="2"/> <circle cx="4" cy="11" r="2"/> <circle cx="28" cy="4" r="2"/> <rect id="_Transparent_Rectangle_" data-name="&lt;Transparent Rectangle&gt;" class="cls-1" width="32" height="32"/> </g>
</svg>