<?xml version="1.0" encoding="UTF-8"?>
<svg id="_лой_1" data-name="—лой_1" xmlns="http://www.w3.org/2000/svg" viewBox="0 0 1891.57 2382.92">
  <defs>
    <style>
      .cls-1 {
        fill: none;
      }

      .cls-2 {
        fill: #0c0809;
      }

      .cls-3 {
        fill: #fff;
      }

      .cls-4 {
        fill: #fac7b9;
      }

      .cls-5 {
        fill: #f28585;
      }
    </style>
  </defs>
  <path class="cls-1" d="M1196.04,774.79c-30.77,8.43-71.92,28.05-90.27,81.79,18.01-52.77,59.38-72.99,90.27-81.79Z"/>
  <path class="cls-1" d="M439.39,909.78c1.14-67.7,43.57-116.05,98.75-138.71-55.16,22.28-97.68,70.13-98.75,138.71Z"/>
  <path class="cls-1" d="M1317.29,682.93c-.16.89-.33,1.72-.53,2.49,1.28-3.27,1.1-6.92-.13-10.27.84,2.46,1.11,5.12.66,7.78Z"/>
  <path class="cls-1" d="M753.43,898.71c-9.14-41.88-39.11-73.45-71.37-91.85,32.87,19.13,62.63,51.82,71.37,91.85Z"/>
  <path class="cls-1" d="M1238.57,929.86c7.64,0,12.54-4.2,14.7-9.58-2.16,5.37-7.07,9.58-14.7,9.58Z"/>
  <path class="cls-1" d="M1284.24,694.43c6.97,1.17,12.66,1.3,17.25.69-4.4.05-10.03-.29-17.25-.69Z"/>
  <path class="cls-1" d="M1238.41,897.39c-8.06,0-13.08,4.67-15.04,10.46,1.97-5.79,6.99-10.46,15.04-10.46Z"/>
  <path class="cls-1" d="M1303.97,664.25c.48.07.95.18,1.41.29-.46-.12-.93-.22-1.41-.29Z"/>
  <path class="cls-1" d="M1201.02,738.27c31.69-5.22,64.91-1.49,95.33,9.79-11.53-4.39-23.87-8.01-37.02-10.78-19.04-3.62-38.88-3.13-58.31.99Z"/>
  <path class="cls-1" d="M1209.98,694.92c-18.5,1.28-40.24,3.54-65.8,7.33,19.46-2.86,42.55-5.62,65.8-7.33Z"/>
  <path class="cls-1" d="M692.17,774.37c33.82,16.25,63.21,43.97,81.78,84.59.94,2.08,1.77,3.98,2.52,5.72-17.47-43.69-48.23-73.34-84.3-90.31Z"/>
  <path class="cls-1" d="M1326.51,762.29c36.51,21.26,65.69,54.54,77.9,96.69-11.25-39.35-37.72-73.56-77.9-96.69Z"/>
  <path class="cls-1" d="M1316.43,674.62s.03.07.04.11c-.01-.04-.03-.07-.04-.11Z"/>
  <path class="cls-1" d="M609.68,942.27c7.97,0,12.98-4.57,14.99-10.28-2.01,5.71-7.02,10.28-14.99,10.28Z"/>
  <path class="cls-1" d="M1305.93,664.69c.21.06.42.13.62.2-.21-.07-.41-.14-.62-.2Z"/>
  <path class="cls-1" d="M1377.19,914.31c5.55-66.16-37.87-136.52-143.52-147.97,105.2,11.4,148.87,81.79,143.52,147.97Z"/>
  <path class="cls-1" d="M1053.6,1733.26c-.44.17-.89.34-1.34.5.45-.17.9-.33,1.34-.5Z"/>
  <path class="cls-1" d="M1048.65,1735.08s-.03.01-.04.02c.01,0,.03-.01.04-.02Z"/>
  <path class="cls-1" d="M1098.15,1700.95c-.23.41-.47.81-.72,1.22.25-.4.49-.81.72-1.22Z"/>
  <path class="cls-1" d="M1054.09,1733.07c19.87-7.68,35.18-17.72,43.16-30.62-7.98,12.88-23.28,22.92-43.16,30.62Z"/>
  <path class="cls-1" d="M1020.99,1401.08c40.35-45,53.46-96.82,24.23-127.06,28.98,29.99,16.07,81.94-24.23,127.06Z"/>
  <path class="cls-1" d="M769.46,1742.76c-33.19-8.49-57.9-21.1-75.18-35.6,17.09,14.45,41.7,27.05,75.18,35.6Z"/>
  <path class="cls-1" d="M609.52,909.79c-13.31,0-18.36,12.76-14.96,22.28-3.39-9.52,1.67-22.28,14.96-22.28Z"/>
  <path class="cls-1" d="M693.7,1706.67c-.48-.41-.95-.83-1.42-1.24.47.41.94.83,1.42,1.24Z"/>
  <path class="cls-1" d="M244.29,1048.96c-1.96,46.84-2.94,133.72,11.26,286.75-13.2-142.23-12.75-235.6-11.26-286.75Z"/>
  <path class="cls-1" d="M241.48,965.45c-5.9-1.65-16.62-4.63-36.81-.23,20.24-4.41,30.94-1.36,36.81.23Z"/>
  <path class="cls-1" d="M777.94,1197.63c.44-1.37.88-2.74,1.32-4.09-.44,1.35-.87,2.71-1.32,4.09Z"/>
  <path class="cls-1" d="M783.87,1179.24c.14-.45.29-.9.43-1.34-.14.44-.29.89-.43,1.34Z"/>
  <path class="cls-1" d="M782.96,1182.05c.02-.07.05-.15.07-.23-.02.07-.05.15-.07.23Z"/>
  <path class="cls-1" d="M785.04,1175.62c.15-.48.31-.96.46-1.43-.15.47-.31.96-.46,1.43Z"/>
  <path class="cls-1" d="M1020.32,1401.84s-.08.09-.12.13c.04-.04.08-.09.12-.13Z"/>
  <path class="cls-1" d="M788.73,914.31c103.16-35.21,263.04,13.97,276.35,13.44-12.97.52-172.44-48.91-276.35-13.44Z"/>
  <path class="cls-1" d="M1692.78,806.52c9.06-.54,18.27-.43,27.64.41,2.49,2.08,5.14,4.49,7.91,6.65-7.49-6.33-14.52-12.28-21.45-17.51-4.68,3.47-9.39,6.96-14.1,10.44Z"/>
  <path class="cls-1" d="M1481.38,926.51c-10.6.26-31.23.81-72.8,3.45,24.23-1.54,48.55-1.95,72.8-3.45Z"/>
  <path class="cls-1" d="M1239.8,1069.61c65.79.26,131.43-33.14,160.01-106.61-28.47,73.2-94.16,106.74-160.01,106.61Z"/>
  <path class="cls-1" d="M1499.19,957.83s.04,0,.06,0c15.95-1.47-.17,6.45,26.32-18.55-.02.02-.05.04-.07.07-15.36,13.45-13.97,17.02-26.31,18.49Z"/>
  <path class="cls-1" d="M1493.04,925.71c.13-.15.28-.32.41-.47-.23.2-.47.36-.78.5.12,0,.24-.02.36-.03Z"/>
  <path class="cls-1" d="M1740.18,819.64c4.23.62,8.58-.81,12.91-5.86-3.26,3.69-7.96,6.1-12.91,5.86Z"/>
  <path class="cls-1" d="M1618.18,821.9c-24.23,18.32-48.31,36.85-71.65,56.23,23.04-18.72,49.33-39.15,71.65-56.23Z"/>
  <path class="cls-1" d="M1049.88,1677.99c12-1.24,23.75-13.37,26.12-32.76-2.34,19.16-14.1,31.41-26.12,32.76Z"/>
  <path class="cls-1" d="M1687.12,810.71c-43.75,32.39-88.2,65.48-129.87,100.76,26.15-21.86,66.69-53.88,129.87-100.76Z"/>
  <path class="cls-1" d="M1489.09,958.56c-14.52.68-40.15,1.11-89.28,4.45,29.72-2.02,59.54-2.46,89.28-4.45Z"/>
  <path class="cls-1" d="M444,951.06c15.96,66.15,58.49,108,108.49,127.55-50-19.56-92.53-61.42-108.49-127.55Z"/>
  <path class="cls-1" d="M347.63,928.23c13.92,23.38,15.68,26.7,22.79,28.32-4.12-.94-12.29-12.03-22.79-28.32Z"/>
  <path class="cls-1" d="M226.77,823.89c4.95,3.47,12.2,3.45,21.66-2.56-9.35,5.91-16.75,5.71-21.66,2.56Z"/>
  <path class="cls-1" d="M439.38,913.76c0-1.05,0-2.08.01-3.12-.01,1.04-.02,2.07-.01,3.12Z"/>
  <path class="cls-1" d="M249.68,820.52c13.31,2.9,21.93,4.85,36.18,9.59,9.16,13.88,17.15,26.2,24.15,37.16-13.55-21.94-27.69-44.07-40.69-61.39-23.79,17.67-16.06,12.21-19.65,14.64Z"/>
  <path class="cls-1" d="M1405.25,862.01c-.06-.22-.12-.43-.18-.65.06.22.12.43.18.65Z"/>
  <path class="cls-1" d="M353.46,875.05c-1.16-1.86-2.32-3.71-3.48-5.57,1.17,1.85,2.33,3.71,3.48,5.57Z"/>
  <path class="cls-1" d="M365.14,894.21c-1.28-2.15-2.57-4.3-3.87-6.45,1.3,2.15,2.59,4.29,3.87,6.45Z"/>
  <path class="cls-1" d="M341.35,855.91c-.65-1.02-1.31-2.04-1.97-3.06.66,1.02,1.31,2.03,1.97,3.06Z"/>
  <path class="cls-1" d="M319.33,822.21c-.49-.74-.97-1.48-1.46-2.21.49.74.98,1.48,1.46,2.21Z"/>
  <path class="cls-1" d="M370.79,903.8c-1.29-2.21-2.58-4.42-3.88-6.63,1.31,2.21,2.6,4.42,3.88,6.63Z"/>
  <path class="cls-1" d="M347.44,865.46c-.98-1.54-1.96-3.08-2.94-4.62.98,1.54,1.96,3.08,2.94,4.62Z"/>
  <path class="cls-1" d="M359.37,884.64c-1.25-2.05-2.51-4.1-3.77-6.14,1.26,2.04,2.52,4.09,3.77,6.14Z"/>
  <path class="cls-1" d="M1062.63,894.56c-7.18-1.8-14.64-3.57-22.33-5.28,13.36,3.3,19.51,5.48,22.33,5.28Z"/>
  <path class="cls-1" d="M1064.99,884.69c-.4,3.09-.71,6.21-.95,9.37,1.27-1.08.86-3.97.95-9.37Z"/>
  <path class="cls-1" d="M376.39,913.59c-1.31-2.31-2.62-4.63-3.95-6.93,1.33,2.31,2.64,4.62,3.95,6.93Z"/>
  <path class="cls-1" d="M962.3,875.67c3.59.44,7.04.88,10.39,1.33-25.79-3.63-52.42-6.12-78.53-6.8,19.05.72,41.53,2.4,68.14,5.47Z"/>
  <path class="cls-1" d="M383.07,925.63c-1.71-3.17-3.45-6.32-5.22-9.47,1.76,3.15,3.51,6.31,5.22,9.47Z"/>
  <path class="cls-1" d="M803.36,877.04c-6.15,1.28-12.15,2.75-17.95,4.43,2.82,1.02,7.14-1.48,17.95-4.43Z"/>
  <path class="cls-1" d="M690.93,773.78c-.07-.03-.13-.06-.2-.09.07.03.13.06.2.09Z"/>
  <path class="cls-1" d="M1051.16,1734.18c-.24.09-.48.17-.72.26.24-.09.48-.17.72-.26Z"/>
  <path class="cls-1" d="M1367.21,1739.76c2.4-3.42,4.79-6.88,7.17-10.36-2.38,3.48-4.78,6.93-7.17,10.36Z"/>
  <path class="cls-1" d="M1484.21,1540.77c-18.92,12.53-32.94,78.58-109.83,188.63,77.44-110.85,91.21-176.15,109.83-188.63Z"/>
  <path class="cls-1" d="M744.25,2025.66c1.85.67,3.71,1.32,5.57,1.97-1.86-.65-3.71-1.29-5.57-1.97Z"/>
  <path class="cls-1" d="M752.25,2028.48c1.2.41,2.41.8,3.61,1.2-1.2-.4-2.41-.79-3.61-1.2Z"/>
  <path class="cls-1" d="M760.29,2031.14c.54.17,1.08.34,1.63.51-.54-.17-1.08-.33-1.63-.51Z"/>
  <path class="cls-1" d="M743.76,2025.48c-119.84-43.83-229.34-144.55-313.84-297.3,84.73,153.17,194.21,253.63,313.84,297.3Z"/>
  <path class="cls-1" d="M1602.3,986.87c.37.06.73.12,1.1.18-.37-.06-.73-.13-1.1-.18Z"/>
  <path class="cls-1" d="M1591.2,985.53c.3.03.6.05.9.08-.3-.03-.6-.05-.9-.08Z"/>
  <path class="cls-1" d="M1614.15,1200.69c-11.12,7.29-23.47,13.75-37.04,19.14,11.83-3.36,25.65-11.39,37.04-19.14Z"/>
  <path class="cls-1" d="M1596.75,986.1c.39.05.77.1,1.15.14-.38-.05-.77-.1-1.15-.14Z"/>
  <path class="cls-1" d="M1169.73,1989.46c-.63.43-1.25.86-1.87,1.29.63-.43,1.25-.86,1.87-1.29Z"/>
  <path class="cls-1" d="M1213.51,1956.99c-.28.22-.55.45-.83.67.28-.22.55-.45.83-.67Z"/>
  <path class="cls-1" d="M1199.26,1968.12c-.39.29-.77.59-1.16.89.39-.29.77-.59,1.16-.89Z"/>
  <path class="cls-1" d="M1220.61,1951.22c-.27.22-.53.44-.8.66.27-.22.53-.44.8-.66Z"/>
  <path class="cls-1" d="M1206.39,1962.62c-.32.25-.63.5-.95.75.32-.25.63-.5.95-.75Z"/>
  <path class="cls-1" d="M1192.06,1973.54c-.46.34-.92.69-1.39,1.04.47-.34.92-.69,1.39-1.04Z"/>
  <path class="cls-1" d="M1177.38,1984.15c-.61.43-1.22.87-1.84,1.3.62-.43,1.22-.87,1.84-1.3Z"/>
  <path class="cls-1" d="M1184.75,1978.88c-.54.39-1.06.78-1.6,1.17.54-.39,1.07-.78,1.6-1.17Z"/>
  <path class="cls-1" d="M1625.39,992.6c2.42.85,4.76,1.76,7.04,2.73-2.27-.97-4.62-1.88-7.04-2.73Z"/>
  <path class="cls-1" d="M1655.38,1080.89c-.65,18.93-8.57,39.07-20.33,55.97,13.57-18.51,20.26-38.14,20.33-55.97Z"/>
  <path class="cls-1" d="M1581.76,1181.85c-5.43,2.78-10.33,4.96-14.53,6.94.39-.11.79-.22,1.2-.33,4.64-2.1,9.08-4.3,13.34-6.61Z"/>
  <path class="cls-1" d="M1656.53,1009.93c.23.19.45.39.68.58-.23-.19-.45-.39-.68-.58Z"/>
  <path class="cls-1" d="M1652.95,1007.1c.39.29.78.59,1.16.88-.38-.3-.77-.59-1.16-.88Z"/>
  <path class="cls-1" d="M1649.15,1004.39c.68.46,1.35.92,2.01,1.4-.66-.47-1.33-.94-2.01-1.4Z"/>
  <path class="cls-1" d="M1554.99,1195.98c-3.92,3.61-5.14,8.07-2.82,15.46.93,2.73,2.28,4.82,3.97,6.37-5.36-5.59-7.1-14.88-1.15-21.84Z"/>
  <path class="cls-1" d="M1636.02,1183.97c31.65-27.31,49.33-63.5,51.41-97.54-2.18,33.41-19.6,69.21-51.41,97.54Z"/>
  <path class="cls-1" d="M1611.82,988.71c.61.14,1.22.28,1.82.43-.6-.15-1.21-.29-1.82-.43Z"/>
  <path class="cls-1" d="M1620.66,991.06c1.15.35,2.29.72,3.42,1.1-1.12-.38-2.26-.74-3.42-1.1Z"/>
  <path class="cls-1" d="M1616.89,989.96c.68.18,1.35.38,2.02.57-.67-.19-1.34-.39-2.02-.57Z"/>
  <path class="cls-1" d="M1227.65,1945.37c-.26.22-.53.45-.79.67.26-.22.53-.45.79-.67Z"/>
  <path class="cls-1" d="M1606.8,987.66c.46.09.93.17,1.39.26-.46-.09-.93-.18-1.39-.26Z"/>
  <path class="cls-1" d="M1644.96,1001.72c1,.6,1.99,1.22,2.96,1.85-.97-.63-1.95-1.25-2.96-1.85Z"/>
  <path class="cls-1" d="M1642.08,1000.05c.68.38,1.35.76,2.02,1.15-.66-.39-1.34-.78-2.02-1.15Z"/>
  <path class="cls-1" d="M1633.16,995.65c1.31.57,2.6,1.17,3.87,1.78-1.26-.61-2.55-1.21-3.87-1.78Z"/>
  <path class="cls-1" d="M1637.75,997.78c1.35.67,2.68,1.36,3.97,2.08-1.3-.71-2.62-1.41-3.97-2.08Z"/>
  <path class="cls-1" d="M1289.57,1887.13c-1.39,1.45-2.78,2.9-4.18,4.34,1.4-1.44,2.79-2.89,4.18-4.34Z"/>
  <path class="cls-1" d="M830.24,1617.22c-1.37,31.38,12.64,45.84,28.03,45.33-15.39.49-29.4-13.99-28.03-45.33Z"/>
  <path class="cls-1" d="M1506.02,1562.51c-55.22,107.69-117.86,217.05-203.1,310.34,86.91-95.05,149.46-205.72,203.1-310.34Z"/>
  <path class="cls-1" d="M923.25,1665.51c7.84.91,14.83-3.14,20.49-9.84-6.13,6.41-13.41,10.06-20.49,9.84Z"/>
  <path class="cls-1" d="M763.72,1605.55c.13-1.12.35-.78,1.38-.97,10.65-1.94,21.56-3.56,32.69-4.83-19.5,1.82-37.36,4.63-52.42,8.51,6.06-1.23,12.27-2.29,18.39-3.43-.02.25-.03.48-.05.72Z"/>
  <path class="cls-1" d="M1302.88,1872.9c-1.89,2.06-3.79,4.12-5.69,6.17,1.91-2.05,3.81-4.11,5.69-6.17Z"/>
  <path class="cls-1" d="M1296.25,1880.06c-1.63,1.74-3.26,3.48-4.91,5.21,1.65-1.73,3.28-3.47,4.91-5.21Z"/>
  <path class="cls-1" d="M907.59,1657.21c-6.33-7.55-11.17-20.6-12.83-40.54,1.23,14.77,2.93,30.44,12.83,40.54Z"/>
  <path class="cls-1" d="M958.07,1604.05c.08.51.14,1.01.2,1.51-.06-.51-.13-1.01-.2-1.51Z"/>
  <path class="cls-1" d="M1234.67,1939.38c-.29.25-.58.51-.88.76.29-.25.58-.51.88-.76Z"/>
  <path class="cls-1" d="M1282.84,1894.08c-1.17,1.19-2.34,2.39-3.51,3.57,1.18-1.19,2.34-2.38,3.51-3.57Z"/>
  <path class="cls-1" d="M770.25,1657.57c13.98,19.39,42.59,12.48,59.99-40.35-17.26,52.39-45.97,59.64-59.99,40.35Z"/>
  <path class="cls-1" d="M726.95,1666.67c14.71.39,30.72-12.4,35.52-48.16-4.74,35.34-20.77,48.34-35.52,48.16Z"/>
  <path class="cls-1" d="M962.94,1604.8c20.21,3.34,44.81,7.45,66.18,13.72-22.21-6.89-50.21-12.26-80.49-15.89,3.14.45,6.29.92,9.44,1.41,1.62.26,3.25.48,4.87.75Z"/>
  <path class="cls-1" d="M1255.53,1920.68c-.52.49-1.04.98-1.57,1.46.53-.49,1.05-.97,1.57-1.46Z"/>
  <path class="cls-1" d="M1276.07,1900.9c-.97.97-1.95,1.94-2.93,2.91.98-.97,1.95-1.94,2.93-2.91Z"/>
  <path class="cls-1" d="M1248.62,1927.03c-.42.38-.85.77-1.27,1.16.43-.38.85-.77,1.27-1.16Z"/>
  <path class="cls-1" d="M1262.41,1914.21c-.65.62-1.29,1.24-1.95,1.85.65-.62,1.3-1.24,1.95-1.85Z"/>
  <path class="cls-1" d="M1241.66,1933.26c-.35.31-.69.62-1.04.92.35-.31.69-.62,1.04-.92Z"/>
  <path class="cls-1" d="M1269.27,1907.61c-.8.78-1.6,1.56-2.4,2.34.8-.78,1.6-1.56,2.4-2.34Z"/>
  <path class="cls-4" d="M619.64,1059.17c83.06,4.79,145.6-65.38,136.45-145.06-3.16-4.38-4.34-10.24-2.65-15.4-8.74-40.03-38.5-72.72-71.37-91.85-25.25-14.41-51.91-20.74-71.09-17.62-6.56,1.07-13.16,2.15-19.22-.12-59.89,5.52-116.71,55.69-119.77,117.4-3.2,79.9,66.38,155.79,147.66,152.65ZM606.65,863.73c32.81,0,60.42,27.09,60.54,60.02.1,32.73-27.17,60.54-60.02,60.54s-60.42-27.09-60.54-60.03c-.1-32.73,27.17-60.54,60.02-60.54Z"/>
  <path class="cls-4" d="M723.08,1688.61c34.81,22.84,77.36,28.85,118.08,32.13,52.5.68,206.98,8.49,232.7-42.68,6.89-15.21,6.91-24.99,2.14-32.82-2.36,19.39-14.11,31.52-26.12,32.76-13.06,1.46-26.42-9.96-28.33-39.42-6.4,22.82-21.93,43.74-42.29,37.16-18.79-4.49-25.23-48.63-16.31-70.94-1.62-.27-3.24-.49-4.87-.75.08.5.14,1,.2,1.51,2.74,20.89-4.26,39.37-14.53,50.11-5.66,6.7-12.66,10.74-20.49,9.84-5.58-.18-11.02-2.76-15.67-8.3-9.9-10.1-11.6-25.77-12.83-40.54-3.78,29.44-20.84,45.38-36.48,45.88-15.39.51-29.4-13.95-28.03-45.33-17.41,52.83-46.01,59.74-59.99,40.35-6.14-8.45-9.47-21.98-7.78-39.06-4.79,35.76-20.8,48.55-35.52,48.16-14.84-.19-28.37-13.74-27.73-31.33-7.6,17.68,1.32,40.24,23.86,53.27Z"/>
  <path class="cls-4" d="M1105.77,856.58c-39.1,97.75,42.93,184.62,141.16,180.57,78.25-4.24,125.13-61.75,130.26-122.83,5.35-66.18-38.32-136.57-143.52-147.97-2.46,2.24-17.92,3.05-37.63,8.45-30.89,8.8-72.26,29.02-90.27,81.79ZM1295.11,910.63c.12,32.73-27.17,60.54-60.02,60.54s-60.42-27.09-60.54-60.02c-.12-32.73,27.17-60.54,60.02-60.54s60.42,27.09,60.54,60.03Z"/>
  <path class="cls-4" d="M1753.67,813.09c-.07.09-.15.17-.22.26-.12.14-.24.28-.36.42-4.33,5.06-8.68,6.48-12.91,5.86-3.15-.15-6.4-1.36-9.44-4.02-.81-.68-1.61-1.36-2.41-2.04-2.77-2.17-5.42-4.58-7.91-6.65-9.37-.84-18.58-.95-27.64-.41-1.89,1.4-3.77,2.79-5.66,4.19-63.17,46.88-103.71,78.9-129.87,100.76-10.77,9.11-21.35,18.37-31.68,27.81-26.49,25-10.37,17.08-26.32,18.55-.02,0-.04,0-.06,0-2.64.31-5.91.53-10.1.73-29.74,1.99-59.56,2.43-89.28,4.45-28.58,73.47-94.22,106.87-160.01,106.61-80.89-.16-162.02-51.14-174.72-141.87-13.3.53-173.19-48.65-276.35-13.44,13.68,145.14-128.6,206.42-236.24,164.3-49.99-19.55-92.52-61.4-108.49-127.55-8.59,1.41-17.95,1.54-25.24,3.61-13.66-.34-36.14,9.04-48.34,1.89-7.11-1.63-8.87-4.94-22.79-28.32-10.72-16.63-23.86-38.7-37.62-60.97-7-10.96-14.99-23.27-24.15-37.16-14.26-4.74-22.87-6.69-36.18-9.59-.42.28-.83.55-1.24.81-9.46,6.01-16.71,6.02-21.66,2.56-2.63-1.69-4.54-4.22-5.66-7.13-185.06-10.92-408.96,285.76,47.74,552.6,40.14,179.43,75.58,205.75,91.93,253.71,4.38,150.04,10.43,89.01,13.99,396.62.12,154.07,40.45,271.66,202.79,314.05,254.58,69.59,600.16,76.63,827.28-53.48,76.06-43.37,82.53-120.33,132.49-762.03,66.17-76.52,123.32-118.73,196.57-195.68,261.16-271.09,147.18-471.11,19.76-509.46ZM255.56,1335.72c-14.2-153.03-13.22-239.91-11.26-286.75.88-30.37,2.13-45.87,1.1-47.85-48.85-23.94-100.11,36.68-85.96,83.87,5.32,17.4,17.63,31.32,30.72,43.47,15.79,13.8-5.99,38.45-21.52,24.3-70.06-53.82-51.7-161.92,33.31-186.91.93-.22,1.84-.43,2.73-.63,20.19-4.4,30.91-1.42,36.81.23,10.43,2.82,5.58.99,11.81-55.74,1.67-20.97,33.64-19.04,32.38,2.2-9.44,117.48-16.71,218.05,2.28,421.58,1.32,20.94-30.54,23.51-32.4,2.23ZM777.94,1197.63c.44-1.37.88-2.74,1.32-4.09,1.26-3.92,2.5-7.75,3.71-11.49.02-.07.05-.15.07-.23.28-.87.56-1.73.84-2.59.14-.45.29-.9.43-1.34.25-.77.49-1.52.74-2.28.15-.48.31-.96.46-1.43,49.76-153.74,51.95-149.62,68.3-146.09,25.6,12.66-3.45,46.07-6.62,65.45-31.17,92.41-64.97,184.7-85.58,280.13-20.94,170.93,305.39,33.44,261.54-75.49-17.94-15.4,5.68-41.44,22.07-24.17,29.22,30.24,16.12,82.07-24.23,127.06-.23.25-.45.51-.68.76-.04.04-.08.09-.12.13-40.72,45.1-108.83,83.17-189.78,85.29-169.49-13.6-80.64-189.61-52.47-289.62ZM698.08,1590.91c82.9-42.69,299.79-31.67,379.97,12.97,36.2,16.41,42.2,64.74,20.93,95.53-.26.52-.54,1.03-.83,1.54-.23.41-.47.81-.72,1.22-.06.1-.11.2-.17.29-7.98,12.89-23.29,22.94-43.16,30.62-.17.06-.33.13-.49.19-.44.17-.89.34-1.34.5-.37.14-.73.28-1.1.41-.24.09-.48.17-.72.26-.59.21-1.18.43-1.78.64-.01,0-.03.01-.04.02-78.42,27.58-219.16,21.98-273.14,9.14-2.03-.48-4.04-.97-6.01-1.47-33.48-8.55-58.08-21.15-75.18-35.6-.19-.16-.39-.33-.58-.49-.48-.41-.95-.83-1.42-1.24-45-39.49-36.31-92.14,5.8-114.52ZM1506.02,1562.51c-53.64,104.61-116.19,215.29-203.1,310.34-.01.02-.03.03-.04.05-1.89,2.06-3.78,4.12-5.69,6.17-.31.33-.62.67-.94,1-1.63,1.74-3.26,3.48-4.91,5.21-.59.62-1.18,1.24-1.77,1.85-1.39,1.45-2.78,2.9-4.18,4.34-.85.87-1.7,1.74-2.55,2.61-1.17,1.19-2.34,2.39-3.51,3.57-1.08,1.09-2.17,2.17-3.25,3.25-.97.97-1.95,1.94-2.93,2.91-1.29,1.27-2.58,2.53-3.88,3.8-.8.78-1.6,1.56-2.4,2.34-1.48,1.43-2.96,2.84-4.45,4.26-.65.62-1.29,1.24-1.95,1.85-1.64,1.55-3.28,3.08-4.94,4.62-.52.49-1.04.98-1.57,1.46-1.77,1.64-3.56,3.26-5.35,4.89-.42.38-.85.77-1.27,1.16-1.88,1.7-3.78,3.39-5.68,5.08-.35.31-.69.62-1.04.92-1.97,1.74-3.96,3.47-5.95,5.19-.29.25-.58.51-.88.76-2.04,1.75-4.09,3.49-6.14,5.23-.26.22-.53.45-.79.67-2.07,1.74-4.15,3.47-6.25,5.19-.27.22-.53.44-.8.66-2.09,1.71-4.19,3.41-6.31,5.11-.28.22-.55.45-.83.67-2.08,1.66-4.18,3.32-6.29,4.96-.32.25-.63.5-.95.75-2.05,1.59-4.11,3.18-6.18,4.75-.39.29-.77.59-1.16.89-2,1.52-4.02,3.02-6.04,4.52-.46.34-.92.69-1.39,1.04-1.96,1.45-3.94,2.88-5.91,4.31-.54.39-1.06.78-1.6,1.17-1.91,1.37-3.84,2.74-5.77,4.1-.61.43-1.22.87-1.84,1.3-1.93,1.35-3.87,2.68-5.82,4.01-.63.43-1.25.86-1.87,1.29-2.57,1.75-5.16,3.49-7.77,5.21-87.09,51.67-187.09,91.31-289.67,89.62-216.46-6.3-391.72-194.56-487.49-373.32-8.8-10.33-4.6-28.12,10.25-29.1,18.11.29,21.66,23.47,31.36,35.18,1.78,3.31,3.57,6.59,5.37,9.84,84.5,152.75,194,253.46,313.84,297.3.16.06.32.12.48.18,1.85.67,3.71,1.32,5.57,1.97.81.28,1.62.58,2.43.85,1.2.41,2.41.8,3.61,1.2,1.48.49,2.95.98,4.43,1.46.54.17,1.08.34,1.63.51,197.91,62.24,421.18-29,605.29-291.88,2.4-3.42,4.79-6.88,7.17-10.36,76.89-110.06,90.91-176.1,109.83-188.63,4.32-2.9,8.91-2.95,14.61-.07,7.89,3.98,11.19,13.91,7.2,21.8ZM1636.02,1183.97c-6.66,5.93-13.96,11.54-21.87,16.72-11.39,7.75-25.21,15.78-37.04,19.14-1.29.51-2.59,1.02-3.9,1.51-6.6,2.91-12.92.8-17.07-3.52-1.69-1.56-3.04-3.65-3.97-6.37-2.32-7.39-1.1-11.85,2.82-15.46,2.55-2.99,6.53-5.54,12.24-7.19,4.21-1.98,9.1-4.16,14.53-6.94,23.44-12.7,41.13-28.4,53.29-44.99,11.76-16.9,19.68-37.04,20.33-55.97.09-25.05-12.88-46.56-38.12-56.46-14.57-9.16-43.75-.33-46.26-21.98-.58-8.53,6.24-17.07,15.08-17.29,1.73.1,3.43.23,5.11.37.3.03.6.05.9.08,1.57.14,3.11.31,4.64.49.39.05.77.1,1.15.14,1.48.19,2.95.39,4.4.62.37.06.73.12,1.1.18,1.15.19,2.28.39,3.41.61.46.09.93.17,1.39.26,1.22.24,2.43.51,3.62.78.61.14,1.22.28,1.82.43,1.1.27,2.18.54,3.25.83.68.18,1.35.38,2.02.57.59.17,1.17.34,1.75.52,1.16.35,2.29.72,3.42,1.1.44.15.88.3,1.32.45,2.42.85,4.76,1.76,7.04,2.73.24.1.48.21.73.32,1.31.57,2.6,1.17,3.87,1.78.24.12.49.24.73.35,1.35.67,2.68,1.36,3.97,2.08.12.06.24.13.35.19.68.38,1.35.76,2.02,1.15.29.17.58.35.87.52,1,.6,1.99,1.22,2.96,1.85.41.27.82.54,1.23.82.68.46,1.35.92,2.01,1.4.61.43,1.2.87,1.8,1.31.39.29.78.59,1.16.88.82.64,1.63,1.29,2.42,1.95.23.19.45.38.68.58,22.26,18.97,32.15,46.52,30.23,75.92-2.08,34.03-19.76,70.22-51.41,97.54Z"/>
  <path class="cls-4" d="M319.33,822.21c6.68,10.09,13.39,20.31,20.05,30.64.66,1.02,1.31,2.04,1.97,3.06,1.05,1.64,2.1,3.29,3.15,4.93.98,1.54,1.96,3.08,2.94,4.62.85,1.34,1.69,2.68,2.53,4.02,1.17,1.85,2.33,3.71,3.48,5.57.72,1.15,1.43,2.3,2.14,3.45,1.26,2.04,2.52,4.09,3.77,6.14.63,1.04,1.27,2.08,1.9,3.12,1.3,2.15,2.59,4.29,3.87,6.45.59.99,1.18,1.97,1.77,2.96,1.31,2.21,2.6,4.42,3.88,6.63.55.95,1.11,1.9,1.66,2.85,1.33,2.31,2.64,4.62,3.95,6.93.48.86.98,1.71,1.46,2.57,1.76,3.15,3.5,6.3,5.22,9.47,14.98-2.79,34.39-1.41,44.55-5.02,3.63-1.04,7.72-2.03,11.84-2.71-.04-1.39-.07-2.77-.08-4.14,0-1.05,0-2.08.01-3.12,0-.29,0-.58,0-.86,1.07-68.58,43.59-116.43,98.75-138.71,47.49-19.5,104.41-19.98,152.58,2.62.07.03.13.06.2.09.41.2.83.39,1.24.59,36.07,16.98,66.83,46.63,84.3,90.31,4.8,11.19,6.11,15.76,8.93,16.78,5.81-1.68,11.8-3.15,17.95-4.43,14.53-3.96,40.77-8.73,90.8-6.83,26.11.68,52.74,3.17,78.53,6.8,32.82,4.37,53.98,8.91,67.61,12.28,7.69,1.71,15.15,3.48,22.33,5.28.62-.04,1.08-.21,1.42-.5.24-3.16.55-6.28.95-9.37.18-11.06,2.46-32.66,25.6-70.85,26.47-44.45,67.01-68.42,110.43-75.57,19.43-4.11,39.27-4.6,58.31-.99,13.15,2.76,25.49,6.39,37.02,10.78,10.44,3.87,20.56,8.63,30.16,14.23,40.18,23.13,66.65,57.34,77.9,96.69.23.79.45,1.58.66,2.38.06.22.12.43.18.65,5.54,20.69,7.02,43.46,3.33,67.95,41.57-2.64,62.2-3.19,72.8-3.45,3.77-.23,7.54-.49,11.3-.78.31-.13.55-.3.78-.5,8.72-10.04,29.12-27.64,53.08-47.11,23.34-19.38,47.42-37.91,71.65-56.23,28.44-21.77,50.4-38.08,50.84-38.41,4.82-591.53-348.64-856.02-791.65-766.43C495.05,92.22,340.5,436.24,295.54,786.22c7.37,11.22,14.83,22.45,22.28,33.72.01.02.03.04.04.07.49.74.98,1.48,1.46,2.21ZM1303.97,664.25c.48.07.95.17,1.41.29.18.05.36.1.54.15.21.06.42.13.62.2,4.61,1.57,8.19,5.26,9.88,9.72.01.04.03.07.04.11.05.14.11.28.16.42,1.23,3.34,1.41,6.99.13,10.27-1.9,7.57-5.71,9.58-15.27,9.7-4.59.61-10.29.48-17.25-.69-15.79-.86-39.24-1.93-74.26.5-23.25,1.72-46.34,4.47-65.8,7.33-1.72.25-3.44.51-5.19.78-17.85,1-51.85,21.53-54.52-8.34-3.63-33.62,192.65-37.51,219.51-30.45ZM537.57,675.08c54.24-12.26,110.74-17.88,166.02-9.56,20.68,3.33,15.35,35.69-5.39,32-62.46-8.92-124.24.52-184.29,16.88-8.83,3.91-19.36,8.82-27.13-.15-18.58-29.97,31.95-33.79,50.78-39.17Z"/>
  <path class="cls-4" d="M763.72,1605.55c-.23,3.64-.44,6.14-.6,7.7.31-1.95.93-5.07,1.98-8.67-1.03.19-1.25-.15-1.38.97Z"/>
  <path class="cls-3" d="M726.95,1666.67c14.74.19,30.78-12.82,35.52-48.16-1.69,17.08,1.64,30.61,7.78,39.06,14.02,19.29,42.73,12.04,59.99-40.35-1.37,31.34,12.64,45.82,28.03,45.33,15.64-.5,32.7-16.44,36.48-45.88,1.66,19.94,6.5,32.98,12.83,40.54,4.65,5.54,10.09,8.13,15.67,8.3,7.08.22,14.37-3.43,20.49-9.84,10.27-10.74,17.27-29.23,14.53-50.11-.07-.5-.12-1-.2-1.51-3.16-.5-6.3-.96-9.44-1.41-49.33-5.91-104.68-7.19-150.83-2.89-11.14,1.28-22.04,2.89-32.69,4.83-1.05,3.6-1.67,6.72-1.98,8.67.16-1.56.37-4.06.6-7.7.02-.24.03-.47.05-.72-6.12,1.14-12.34,2.2-18.39,3.43-24.07,6.2-41.02,15.13-46.16,27.08-.64,17.59,12.89,31.14,27.73,31.33Z"/>
  <path class="cls-3" d="M979.25,1675.74c20.37,6.58,35.9-14.35,42.29-37.16,1.91,29.46,15.27,40.88,28.33,39.42,12.02-1.34,23.78-13.6,26.12-32.76-6.36-10.43-23.38-19.42-46.87-26.71-21.37-6.27-45.97-10.38-66.18-13.72-8.92,22.3-2.48,66.45,16.31,70.94Z"/>
  <path class="cls-3" d="M607.17,984.29c32.85,0,60.12-27.81,60.02-60.54-.12-32.93-27.73-60.02-60.54-60.02s-60.12,27.8-60.02,60.54c.12,32.93,27.73,60.03,60.54,60.03ZM609.52,909.79c13.5,0,18.49,12.69,15.14,22.2-2.01,5.71-7.01,10.28-14.99,10.28s-13.1-4.53-15.12-10.2c-3.4-9.52,1.65-22.28,14.96-22.28Z"/>
  <path class="cls-3" d="M1174.54,911.14c.12,32.93,27.73,60.02,60.54,60.02s60.14-27.8,60.02-60.54c-.12-32.93-27.71-60.03-60.54-60.03s-60.14,27.81-60.02,60.54ZM1238.41,897.39c13.84,0,18.72,13.32,14.86,22.9-2.16,5.37-7.06,9.58-14.7,9.58-13.42,0-18.42-12.53-15.2-22.02,1.96-5.79,6.98-10.46,15.04-10.46Z"/>
  <path class="cls-2" d="M594.56,932.07c2.02,5.67,7.04,10.2,15.12,10.2s12.98-4.57,14.99-10.28c3.35-9.51-1.64-22.2-15.14-22.2s-18.36,12.76-14.96,22.28Z"/>
  <path class="cls-2" d="M1238.57,929.86c7.64,0,12.54-4.2,14.7-9.58,3.86-9.58-1.02-22.9-14.86-22.9-8.05,0-13.08,4.67-15.04,10.46-3.22,9.49,1.78,22.02,15.2,22.02Z"/>
  <path class="cls-5" d="M692.28,1705.43c.47.41.93.83,1.42,1.24.19.16.39.33.58.49,17.28,14.51,41.99,27.12,75.18,35.6,1.97.5,3.98,1,6.01,1.47,53.97,12.84,194.72,18.44,273.14-9.14.01,0,.03-.01.04-.02.6-.21,1.19-.42,1.78-.64.24-.09.48-.17.72-.26.37-.14.73-.27,1.1-.41.45-.17.9-.33,1.34-.5.17-.06.33-.13.49-.19,19.88-7.7,35.19-17.74,43.16-30.62.06-.1.11-.2.17-.29.25-.4.49-.81.72-1.22.29-.51.56-1.02.83-1.54,21.27-30.79,15.27-79.12-20.93-95.53-80.18-44.64-297.07-55.66-379.97-12.97-42.11,22.38-50.8,75.03-5.8,114.52ZM699.22,1635.34c5.13-11.95,22.09-20.88,46.16-27.08,15.07-3.88,32.92-6.7,52.42-8.51,46.15-4.3,101.5-3.02,150.83,2.89,30.28,3.63,58.28,8.99,80.49,15.89,23.5,7.29,40.52,16.28,46.87,26.71,4.77,7.83,4.75,17.61-2.14,32.82-25.72,51.18-180.19,43.36-232.7,42.68-40.71-3.27-83.26-9.28-118.08-32.13-22.54-13.04-31.46-35.59-23.86-53.27Z"/>
  <path class="cls-5" d="M1498.82,1540.71c-5.7-2.89-10.29-2.83-14.61.07-18.62,12.48-32.39,77.78-109.83,188.63-2.38,3.48-4.78,6.93-7.17,10.36-184.12,262.88-407.38,354.12-605.29,291.88-.54-.17-1.08-.33-1.63-.51-1.48-.47-2.95-.97-4.43-1.46-1.2-.4-2.41-.79-3.61-1.2-.81-.28-1.62-.57-2.43-.85-1.86-.65-3.71-1.3-5.57-1.97-.16-.06-.32-.12-.48-.18-119.63-43.67-229.11-144.13-313.84-297.3-1.8-3.26-3.59-6.54-5.37-9.84-9.7-11.71-13.26-34.89-31.36-35.18-14.86.98-19.05,18.77-10.25,29.1,95.77,178.77,271.02,367.02,487.49,373.32,102.58,1.69,202.58-37.95,289.67-89.62,2.61-1.72,5.2-3.46,7.77-5.21.63-.43,1.25-.86,1.87-1.29,1.95-1.33,3.89-2.67,5.82-4.01.62-.43,1.22-.87,1.84-1.3,1.93-1.36,3.86-2.72,5.77-4.1.54-.39,1.07-.78,1.6-1.17,1.98-1.43,3.96-2.87,5.91-4.31.47-.34.92-.69,1.39-1.04,2.02-1.5,4.04-3.01,6.04-4.52.39-.29.77-.59,1.16-.89,2.07-1.58,4.13-3.16,6.18-4.75.32-.25.63-.5.95-.75,2.11-1.65,4.21-3.3,6.29-4.96.28-.22.55-.45.83-.67,2.11-1.69,4.22-3.39,6.31-5.11.27-.22.53-.44.8-.66,2.09-1.72,4.18-3.45,6.25-5.19.26-.22.53-.45.79-.67,2.06-1.73,4.11-3.48,6.14-5.23.29-.25.58-.51.88-.76,1.99-1.72,3.98-3.45,5.95-5.19.35-.31.69-.62,1.04-.92,1.9-1.69,3.8-3.38,5.68-5.08.43-.38.85-.77,1.27-1.16,1.79-1.62,3.57-3.25,5.35-4.89.53-.49,1.05-.97,1.57-1.46,1.65-1.53,3.3-3.07,4.94-4.62.65-.62,1.3-1.24,1.95-1.85,1.49-1.42,2.98-2.83,4.45-4.26.8-.78,1.6-1.56,2.4-2.34,1.3-1.26,2.59-2.53,3.88-3.8.98-.97,1.95-1.94,2.93-2.91,1.09-1.08,2.17-2.17,3.25-3.25,1.18-1.19,2.35-2.38,3.51-3.57.85-.87,1.7-1.74,2.55-2.61,1.4-1.44,2.79-2.89,4.18-4.34.59-.62,1.19-1.23,1.77-1.85,1.64-1.73,3.28-3.47,4.91-5.21.31-.33.63-.67.94-1,1.91-2.05,3.81-4.1,5.69-6.17.01-.02.03-.03.04-.05,85.24-93.28,147.88-202.64,203.1-310.34,4-7.89.7-17.83-7.2-21.8Z"/>
  <path class="cls-5" d="M285.67,911.91c1.26-21.25-30.71-23.18-32.38-2.2-6.24,56.73-1.38,58.56-11.81,55.74-5.87-1.59-16.57-4.64-36.81-.23-.89.19-1.8.4-2.73.63-85.01,24.99-103.37,133.09-33.31,186.91,15.53,14.15,37.31-10.51,21.52-24.3-13.1-12.15-25.4-26.07-30.72-43.47-14.15-47.19,37.12-107.81,85.96-83.87,1.03,1.99-.22,17.48-1.1,47.85-1.48,51.15-1.93,144.52,11.26,286.75,1.86,21.29,33.72,18.71,32.4-2.23-19-203.53-11.73-304.1-2.28-421.58Z"/>
  <path class="cls-5" d="M1657.21,1010.51c-.23-.19-.45-.39-.68-.58-.79-.66-1.6-1.31-2.42-1.95-.38-.3-.77-.59-1.16-.88-.59-.44-1.19-.88-1.8-1.31-.66-.47-1.33-.94-2.01-1.4-.41-.28-.82-.55-1.23-.82-.97-.63-1.95-1.25-2.96-1.85-.29-.17-.57-.35-.87-.52-.66-.39-1.34-.78-2.02-1.15-.12-.06-.24-.13-.35-.19-1.3-.71-2.62-1.41-3.97-2.08-.24-.12-.48-.24-.73-.35-1.26-.61-2.55-1.21-3.87-1.78-.24-.11-.48-.21-.73-.32-2.27-.97-4.62-1.88-7.04-2.73-.44-.15-.88-.3-1.32-.45-1.12-.38-2.26-.74-3.42-1.1-.58-.18-1.16-.35-1.75-.52-.67-.19-1.34-.39-2.02-.57-1.07-.29-2.16-.56-3.25-.83-.6-.15-1.21-.29-1.82-.43-1.19-.27-2.4-.54-3.62-.78-.46-.09-.93-.18-1.39-.26-1.12-.21-2.26-.42-3.41-.61-.37-.06-.73-.13-1.1-.18-1.44-.23-2.91-.43-4.4-.62-.38-.05-.77-.1-1.15-.14-1.53-.18-3.08-.35-4.64-.49-.3-.03-.6-.05-.9-.08-1.68-.15-3.38-.27-5.11-.37-8.84.22-15.66,8.77-15.08,17.29,2.51,21.65,31.69,12.82,46.26,21.98,25.24,9.89,38.2,31.4,38.12,56.46-.06,17.83-6.75,37.46-20.33,55.97-12.16,16.59-29.85,32.29-53.29,44.99-4.26,2.31-8.7,4.51-13.34,6.61-.41.1-.8.22-1.2.33-5.71,1.65-9.68,4.2-12.24,7.19-5.95,6.96-4.21,16.25,1.15,21.84,4.15,4.32,10.46,6.43,17.07,3.52,1.31-.49,2.61-1,3.9-1.51,13.56-5.39,25.92-11.85,37.04-19.14,7.92-5.19,15.21-10.79,21.87-16.72,31.81-28.33,49.23-64.13,51.41-97.54,1.92-29.41-7.96-56.96-30.23-75.92Z"/>
  <path class="cls-2" d="M226.77,823.89c4.91,3.16,12.31,3.35,21.66-2.56.41-.26.83-.53,1.24-.81,3.59-2.43-4.14,3.03,19.65-14.64,12.99,17.32,27.13,39.45,40.69,61.39,13.75,22.27,26.9,44.33,37.62,60.97,10.5,16.3,18.67,27.38,22.79,28.32,12.2,7.16,34.69-2.22,48.34-1.89,7.3-2.07,16.65-2.2,25.24-3.61,15.96,66.13,58.49,107.99,108.49,127.55,107.65,42.11,249.92-19.16,236.24-164.3,103.91-35.47,263.38,13.95,276.35,13.44,12.7,90.73,93.84,141.7,174.72,141.87,65.85.13,131.54-33.4,160.01-106.61,49.13-3.34,74.76-3.77,89.28-4.45,4.19-.2,7.46-.41,10.1-.73,12.33-1.46,10.95-5.04,26.31-18.49.02-.02.05-.04.07-.07,10.33-9.43,20.91-18.69,31.68-27.81,41.67-35.28,86.12-68.37,129.87-100.76,1.89-1.4,3.78-2.8,5.66-4.19,4.71-3.49,9.41-6.97,14.1-10.44,6.93,5.23,13.97,11.18,21.45,17.51.8.68,1.6,1.35,2.41,2.04,3.05,2.65,6.3,3.86,9.44,4.02,4.95.24,9.64-2.17,12.91-5.86.12-.14.24-.28.36-.42,5.15-6.18,6.37-15.6-1.49-22.3-42.57-33.84-39.7-40.51-82.94-7.56-.44.33-22.4,16.64-50.84,38.41-22.32,17.08-48.61,37.51-71.65,56.23-23.96,19.47-44.36,37.07-53.08,47.11-.13.15-.28.32-.41.47-.12,0-.24.02-.36.03-3.76.29-7.53.55-11.3.78-24.25,1.5-48.57,1.91-72.8,3.45,3.7-24.49,2.21-47.26-3.33-67.95-.06-.22-.12-.43-.18-.65-.22-.8-.44-1.59-.66-2.38-12.21-42.15-41.39-75.43-77.9-96.69-9.61-5.59-19.72-10.36-30.16-14.23-30.42-11.28-63.64-15.01-95.33-9.79-43.43,7.16-83.97,31.13-110.43,75.57-23.14,38.2-25.42,59.79-25.6,70.85-.09,5.4.32,8.29-.95,9.37-.34.29-.8.45-1.42.5-2.82.2-8.97-1.98-22.33-5.28-13.64-3.37-34.8-7.91-67.61-12.28-3.34-.45-6.8-.89-10.39-1.33-26.61-3.06-49.1-4.75-68.14-5.47-50.03-1.89-76.27,2.87-90.8,6.83-10.81,2.95-15.14,5.45-17.95,4.43-2.82-1.03-4.13-5.59-8.93-16.78-.75-1.74-1.58-3.65-2.52-5.72-18.58-40.62-47.96-68.34-81.78-84.59-.41-.2-.83-.39-1.24-.59-.07-.03-.13-.06-.2-.09-48.17-22.6-105.1-22.12-152.58-2.62-55.18,22.66-97.61,71.01-98.75,138.71,0,.29,0,.58,0,.86-.01,1.04-.02,2.07-.01,3.12,0,1.37.04,2.75.08,4.14-4.12.68-8.21,1.68-11.84,2.71-10.16,3.61-29.57,2.23-44.55,5.02-1.71-3.16-3.45-6.32-5.22-9.47-.48-.86-.97-1.71-1.46-2.57-1.31-2.31-2.61-4.63-3.95-6.93-.55-.95-1.11-1.9-1.66-2.85-1.29-2.21-2.58-4.42-3.88-6.63-.59-.99-1.18-1.98-1.77-2.96-1.28-2.15-2.57-4.3-3.87-6.45-.63-1.04-1.27-2.08-1.9-3.12-1.25-2.05-2.51-4.1-3.77-6.14-.71-1.15-1.43-2.3-2.14-3.45-1.16-1.86-2.32-3.71-3.48-5.57-.84-1.34-1.69-2.68-2.53-4.02-.98-1.54-1.96-3.08-2.94-4.62-1.05-1.65-2.1-3.29-3.15-4.93-.66-1.02-1.31-2.04-1.97-3.06-6.66-10.32-13.37-20.54-20.05-30.64-.49-.74-.98-1.48-1.46-2.21-.01-.02-.03-.04-.04-.07-10.24-15.46-20.35-30.63-29.94-45.4-16.59-22.96-48.24,16.2-61.04,22.31-6.7,4.78-8.28,13.31-5.73,19.93,1.12,2.9,3.03,5.44,5.66,7.13ZM1377.19,914.31c-5.13,61.09-52.01,118.59-130.26,122.83-98.22,4.06-180.25-82.82-141.16-180.57,18.34-53.74,59.5-73.36,90.27-81.79,19.72-5.4,35.17-6.2,37.63-8.45,105.64,11.45,149.07,81.81,143.52,147.97ZM471.98,906.52c3.06-61.71,59.88-111.88,119.77-117.4,6.06,2.27,12.66,1.19,19.22.12,19.17-3.12,45.83,3.22,71.09,17.62,32.26,18.4,62.23,49.98,71.37,91.85-1.68,5.15-.51,11.01,2.65,15.4,9.16,79.68-53.39,149.85-136.45,145.06-81.27,3.14-150.86-72.75-147.66-152.65Z"/>
  <path class="cls-2" d="M513.92,714.4c60.05-16.36,121.82-25.8,184.29-16.88,20.74,3.69,26.06-28.67,5.39-32-55.28-8.32-111.78-2.7-166.02,9.56-18.83,5.38-69.36,9.2-50.78,39.17,7.77,8.97,18.3,4.06,27.13.15Z"/>
  <path class="cls-2" d="M1138.99,703.03c1.75-.27,3.47-.52,5.19-.78,25.56-3.79,47.29-6.05,65.8-7.33,35.02-2.43,58.47-1.36,74.26-.5,7.23.39,12.85.74,17.25.69,9.56-.12,13.37-2.13,15.27-9.7.19-.77.37-1.6.53-2.49.45-2.65.18-5.32-.66-7.78-.05-.14-.11-.28-.16-.42-.01-.04-.03-.07-.04-.11-1.69-4.46-5.27-8.16-9.88-9.72-.21-.07-.41-.14-.62-.2-.18-.05-.36-.11-.54-.15-.46-.12-.93-.22-1.41-.29-26.85-7.07-223.14-3.17-219.51,30.45,2.68,29.87,36.68,9.34,54.52,8.34Z"/>
  <path class="cls-2" d="M830.42,1487.26c80.95-2.12,149.06-40.19,189.78-85.29.04-.04.08-.09.12-.13.23-.25.45-.51.68-.76,40.3-45.13,53.21-97.08,24.23-127.06-16.39-17.28-40.02,8.77-22.07,24.17,43.84,108.93-282.48,246.42-261.54,75.49,20.61-95.43,54.41-187.72,85.58-280.13,3.17-19.38,32.23-52.79,6.62-65.45-16.35-3.53-18.54-7.65-68.3,146.09-.15.47-.31.96-.46,1.43-.25.76-.49,1.52-.74,2.28-.14.44-.29.89-.43,1.34-.28.86-.56,1.72-.84,2.59-.02.07-.05.15-.07.23-1.21,3.74-2.44,7.57-3.71,11.49-.44,1.35-.87,2.71-1.32,4.09-28.16,100.02-117.02,276.03,52.47,289.62Z"/>
</svg>