<?xml version="1.0" encoding="UTF-8"?>
<svg id="_лой_1" data-name="—лой_1" xmlns="http://www.w3.org/2000/svg" viewBox="0 0 1993.47 2359.77">
  <defs>
    <style>
      .cls-1 {
        fill: none;
      }

      .cls-2 {
        fill: #ffcbbd;
      }

      .cls-3 {
        fill: #0c0809;
      }

      .cls-4 {
        fill: #f28585;
      }
    </style>
  </defs>
  <path class="cls-1" d="M1089.48,1736.55c-.56.25-1.13.5-1.68.74.56-.24,1.12-.5,1.68-.74Z"/>
  <path class="cls-1" d="M1083.63,1739.06c-.47.2-.94.4-1.41.6.46-.19.94-.4,1.41-.6Z"/>
  <path class="cls-1" d="M1095.48,1733.86c-.67.31-1.34.62-2.01.92.66-.3,1.34-.62,2.01-.92Z"/>
  <path class="cls-1" d="M1066.15,1745.85s0,0,0,0c0,0,0,0,0,0Z"/>
  <path class="cls-1" d="M1077.68,1741.49c-.3.12-.62.25-.92.37.3-.12.62-.25.92-.37Z"/>
  <path class="cls-1" d="M895.2,1735.75c-.89-.7-1.77-1.41-2.62-2.13.86.72,1.73,1.43,2.62,2.13Z"/>
  <path class="cls-1" d="M1071.87,1743.75c-.16.06-.31.12-.47.18.16-.06.31-.12.47-.18Z"/>
  <path class="cls-1" d="M1509.36,1056.69c-87.4-10.68-170.91-9.39-254.94,3.13,83.84-10.18,186.87-11.17,254.94-3.13Z"/>
  <path class="cls-1" d="M1153.59,1080.61c-26.64,8.59-47.25,21.24-37.75,40.59-7.89-16.45,7.87-29.98,37.75-40.59Z"/>
  <path class="cls-1" d="M406.93,1160.29c-.2.04-.4.07-.59.1.2-.03.4-.06.59-.1Z"/>
  <path class="cls-1" d="M623.4,1116.89c-50.12.55-103.14,9.42-155.35,22.47,40.84-9.7,98.58-19.91,155.35-22.47Z"/>
  <path class="cls-1" d="M397.26,1159.7c-.22-.07-.44-.14-.66-.22.22.08.44.15.66.22Z"/>
  <path class="cls-1" d="M385.04,1147.74c-.16-.55-.3-1.11-.41-1.69.1.58.25,1.14.41,1.69Z"/>
  <path class="cls-1" d="M1528.34,1071.53c-1.32-7.04-6.27-13.25-14.88-14.34,7.54.96,13.18,7.23,14.88,14.34Z"/>
  <path class="cls-1" d="M395.99,1159.25c-.46-.18-.91-.37-1.36-.59.44.21.9.41,1.36.59Z"/>
  <path class="cls-1" d="M1101.9,1730.86c-.88.42-1.76.85-2.63,1.26.87-.41,1.76-.84,2.63-1.26Z"/>
  <path class="cls-1" d="M1111.19,1726.31c-2.03,1.02-4.03,2.02-6.02,2.99,1.99-.97,4-1.96,6.02-2.99Z"/>
  <path class="cls-1" d="M718.94,1276.25c.23.1.46.21.69.31-.23-.1-.46-.21-.69-.31Z"/>
  <path class="cls-1" d="M597.34,1352.13c.21.02.41.04.62.06-.21-.02-.42-.04-.62-.06Z"/>
  <path class="cls-1" d="M758.03,1314.78c-2.19-15.28-16.19-27.45-35.25-36.73,19.08,9.31,33.06,21.49,35.25,36.73Z"/>
  <path class="cls-1" d="M720.87,1277.14c.49.23.97.45,1.45.69-.48-.23-.97-.46-1.45-.69Z"/>
  <path class="cls-1" d="M594.02,1351.69c-.19-.03-.37-.06-.54-.09,26.59,6.14,61.9,9.42,93.54,5.09-31.03,4.03-65.74.69-93.01-5Z"/>
  <path class="cls-1" d="M651.01,1291.32c2.73,11.92,1.4,24.85-4.21,35.73,6.27-11.29,7.25-24.07,4.21-35.73Z"/>
  <path class="cls-1" d="M732.82,1132.49c52.38,19.27,97.18,55.74,124.11,108.58-29.1-57.11-72.54-90.98-124.11-108.58Z"/>
  <path class="cls-1" d="M599.95,1352.33c3.99.19,8.17-.09,12.35-.87-3.44.58-7.09.91-10.99.91-.45,0-.91-.01-1.37-.03Z"/>
  <path class="cls-1" d="M516.02,1284.13c.19-.3.41-.59.61-.89-.21.3-.41.59-.61.89Z"/>
  <path class="cls-1" d="M1111.19,1726.31c6.39-3.21,9.78-9.84,9.99-16.43-.21,6.59-3.61,13.22-9.99,16.43Z"/>
  <path class="cls-1" d="M856.93,1241.07c72.17,162.3-61.74,410.45,35.56,492.49-97.28-82.03,36.64-330.12-35.56-492.49Z"/>
  <path class="cls-1" d="M892.94,1606.82c4.67-98.98,46.5-243.26,8.54-355.72,37.84,112.08-3.96,256.59-8.54,355.72Z"/>
  <path class="cls-1" d="M719.49,1387.97c93.95-28.03,114.6-115.94-9.68-155.6,123.33,39.36,103.33,127.47,9.68,155.6Z"/>
  <path class="cls-1" d="M385.15,1148.08c1.5,4.77,5.07,8.46,9.45,10.57-4.38-2.14-7.96-5.85-9.45-10.57Z"/>
  <path class="cls-1" d="M613.32,1255.11c-.66-.11-1.33-.22-2-.3.68.08,1.34.19,2,.3Z"/>
  <path class="cls-1" d="M412.63,1158.09c1.17-.7,2.28-1.56,3.31-2.57-1.66,1.06-2.39,1.87-3.31,2.57Z"/>
  <path class="cls-1" d="M124.59,1351.68c.31-.31.62-.61.95-.89-.33.29-.64.58-.95.89Z"/>
  <path class="cls-1" d="M507.56,888.34c-23.36-25.16-37.89-206.08,27.53-330.28-65.35,124.07-51.11,304.89-27.53,330.28Z"/>
  <path class="cls-1" d="M874.97,620.53c-224.12-11.97-279.06,140.64-314.21,223.16,35.42-82.48,90.8-235.1,314.21-223.16Z"/>
  <path class="cls-1" d="M1215.13,538.34c82.12,81.09,98.15,196.86,84.32,280.34,14.22-83.05-1.18-198.25-84.32-280.34Z"/>
  <path class="cls-1" d="M1075.79,792.58c-27.42,101.23-81.45,190.15-113.23,185.79,32.04,4.4,85.89-84.63,113.23-185.79Z"/>
  <path class="cls-1" d="M962.56,978.37c-24.89-5.26-23.46-34.72-29.88-99.51,6.32,65.18,4.43,94.14,29.88,99.51Z"/>
  <path class="cls-1" d="M119.47,1361.4c.02-.11.04-.22.07-.33-.02.11-.04.22-.07.33Z"/>
  <path class="cls-1" d="M355.65,1101.28c-9.07,152.69-7.33,266.36-70.78,256.81,63.79,9.61,61.85-104.05,70.78-256.81Z"/>
  <path class="cls-1" d="M282.33,1357.04c-24.83-11.73-45.49-65.9-59.62-115.99,15.94,57.71,36.26,105.07,59.62,115.99Z"/>
  <path class="cls-1" d="M1299.3,819.53c.03-.16.06-.32.08-.49-.03.16-.06.32-.08.49Z"/>
  <path class="cls-1" d="M874.97,620.53c.68,1.98,1.35,3.95,2.01,5.9-.66-1.96-1.33-3.93-2.01-5.9Z"/>
  <path class="cls-1" d="M282.94,1357.32c.2.09.4.18.6.26-.2-.08-.4-.17-.6-.26Z"/>
  <path class="cls-1" d="M1597.78,864.25c1.27,2.55,2.53,5.12,3.78,7.69-1.24-2.57-2.5-5.14-3.78-7.69Z"/>
  <path class="cls-1" d="M1075.96,791.99c.09-.34.18-.68.27-1.02-.09.34-.18.68-.27,1.02Z"/>
  <path class="cls-1" d="M1790.72,1237.81c-.79-2.76-8.3-29.39-11.86-44.15,1.68,13.68,6.19,24.23,11.86,44.15Z"/>
  <path class="cls-1" d="M119.91,1359.6c.03-.12.07-.23.11-.34-.04.11-.07.23-.11.34Z"/>
  <path class="cls-1" d="M131.61,1347.16c.09-.03.18-.07.28-.1-.09.03-.18.07-.28.1Z"/>
  <path class="cls-1" d="M157.81,1424.49c3.45,19.36,9.34,38.39,15.98,56.7-8.33-22.97-13.22-41.56-15.98-56.7Z"/>
  <path class="cls-1" d="M128.43,1348.69c.29-.17.58-.33.88-.49-.3.16-.59.32-.88.49Z"/>
  <path class="cls-1" d="M146.75,1347.54c.18.09.36.18.54.27-.18-.09-.36-.19-.54-.27Z"/>
  <path class="cls-1" d="M129.99,1347.86c.15-.07.31-.15.46-.22-.16.07-.31.15-.46.22Z"/>
  <path class="cls-1" d="M1496.47,1092.97c3.4.41,6.8.84,10.19,1.3,4.28.53,7.94.02,10.98-1.23-4.82,1.11-11.59.82-21.17-.07Z"/>
  <path class="cls-1" d="M155.47,1373.8c-.56,5.3-.83,10.61-.85,15.91.28-17.41,3.67-25.8,1.78-31.01-1.71-5.19-4.96-8.72-8.85-10.75,6.68,3.64,11.06,12.01,7.91,25.85Z"/>
  <path class="cls-1" d="M120.44,1358.04c.04-.09.07-.19.11-.28-.04.09-.07.19-.11.28Z"/>
  <path class="cls-1" d="M1206.91,1106.17c-26.42,5.37-48.61,11.78-61.2,19.11,10.06-5.85,31.7-12.78,61.2-19.11Z"/>
  <path class="cls-1" d="M1375.37,1087.21c-6.32.2-13.23.52-20.56.94,33.92-1.48,69.67-1.29,105.57,1.33-21.12-1.73-48.76-3.13-85-2.27Z"/>
  <path class="cls-1" d="M122.69,1353.91c.2-.27.4-.54.62-.8-.21.26-.42.53-.62.8Z"/>
  <path class="cls-1" d="M121.94,1355.03c.11-.17.22-.34.33-.51-.11.17-.23.34-.33.51Z"/>
  <path class="cls-1" d="M121.1,1356.56c.08-.16.16-.31.24-.47-.08.15-.16.31-.24.47Z"/>
  <path class="cls-1" d="M593.44,1255.78c-.12.01-.23.02-.35.03.14-.01.28-.02.42-.03.03,0,0,0-.07,0Z"/>
  <path class="cls-1" d="M123.74,1352.59c.17-.19.34-.38.52-.57-.18.19-.35.38-.52.57Z"/>
  <path class="cls-1" d="M125.87,1350.51c.35-.29.71-.57,1.07-.83-.37.26-.72.54-1.07.83Z"/>
  <path class="cls-1" d="M127.27,1349.44c.21-.15.43-.29.65-.43-.22.14-.43.28-.65.43Z"/>
  <path class="cls-1" d="M1229.88,923.34c-17.7-4.36-25.71-30.01-35.04-66.81,9.16,36.78,17.02,62.37,35.04,66.81Z"/>
  <path class="cls-1" d="M1301.97,1237.43c-.13.14-.25.28-.37.42.12-.14.25-.28.37-.42Z"/>
  <path class="cls-1" d="M1303.44,1235.88c.17-.17.33-.35.5-.51-.17.17-.33.34-.5.51Z"/>
  <path class="cls-1" d="M1403.79,1356.52c4.77-.34,9.5-.79,14.2-1.35-4.42.24-8.96.36-13.63.36-.26.43-.44.76-.57.99Z"/>
  <path class="cls-1" d="M1298.65,1241.56c-.16.22-.32.43-.47.65.15-.22.32-.43.47-.65Z"/>
  <path class="cls-1" d="M1343,1354.82c19.68,2.54,40.11,3.11,60.05,1.75-.15-.22-.35-.51-.64-.92-17.42,1.74-38.17,1.69-59.41-.83Z"/>
  <path class="cls-1" d="M1297.64,1243.02c-3.24,4.86-5.48,10.13-6.76,15.56,1.33-5.53,3.61-10.81,6.76-15.56Z"/>
  <path class="cls-1" d="M1300.2,1239.51c-.13.16-.26.33-.39.49.13-.16.26-.33.39-.49Z"/>
  <path class="cls-1" d="M1515.48,1318.25c1.41-1.24,2.8-2.49,4.11-3.79,13.76-14.46,19.22-30.72,18.57-46.68-.33,17.77-7.9,35.58-22.68,50.47Z"/>
  <path class="cls-1" d="M1478.25,1192.49c.99.38,1.94.78,2.9,1.17-.96-.4-1.93-.8-2.9-1.17Z"/>
  <path class="cls-1" d="M1738.12,1474.31c-.17,1.68-.34,3.36-.5,5.04-.6,5.39.77,9.81,3.3,13.14-2.47-4.32-3.1-10.43-2.8-18.17Z"/>
  <path class="cls-1" d="M1276.41,1756.88s0,0,0-.01c0,0,0,0,0,.01Z"/>
  <path class="cls-1" d="M1265.89,1741.97c.6,5.04,3.52,10.07,9.72,14-6.19-3.93-9.11-8.97-9.72-14Z"/>
  <path class="cls-1" d="M1743.05,1380.47c1.52,19.48.37,39.53-1.46,59.47,1.78-16.79,3.23-36.76,1.46-59.47Z"/>
  <path class="cls-1" d="M1228.37,1298.41c-.05-.07-.09-.15-.14-.22.05.07.09.15.14.22Z"/>
  <path class="cls-1" d="M1309.08,1309.27c-2.23-1.79-8.3-6.95-13.1-15.27,3.2,5.72,7.58,10.93,13.1,15.27Z"/>
  <path class="cls-1" d="M1481.43,1297.16c-14.81,9.41-38.92,16.94-75.01,20.35,34.8-2.25,59.59-10.03,75.01-20.35Z"/>
  <path class="cls-1" d="M1500.77,1269.57c1.16-13.33-7.87-26.81-26.27-36.74,16.36,8.92,26.98,22.74,26.27,36.74Z"/>
  <path class="cls-1" d="M1259.88,1266.78c-.15-.49-.32-.97-.51-1.45.19.47.36.96.51,1.45Z"/>
  <path class="cls-1" d="M1260.59,1270.63c.02.24.05.48.06.72,0-.24-.04-.48-.06-.72Z"/>
  <path class="cls-1" d="M1278.16,1759.01s-.05-.06-.07-.1c.02.03.05.06.07.1Z"/>
  <path class="cls-1" d="M1259.78,1277.78c14.39,20.07,43.16,32.22,50.16,32.22-6.66,0-35.77-12.15-50.16-32.22Z"/>
  <path class="cls-1" d="M1260.27,1268.27c-.07-.34-.17-.67-.26-1,.09.33.19.67.26,1Z"/>
  <path class="cls-1" d="M1260.65,1272.94c.01-.21,0-.43,0-.64,0,.21,0,.43,0,.64Z"/>
  <path class="cls-1" d="M1295.45,1293.08l.02.05s-.02-.03-.02-.05Z"/>
  <path class="cls-1" d="M1290.25,1261.66c-.03.19-.07.38-.1.58.03-.19.06-.38.1-.58Z"/>
  <path class="cls-1" d="M1260.52,1269.8c-.04-.29-.1-.58-.15-.87.05.29.11.57.15.87Z"/>
  <path class="cls-1" d="M1260.22,1276.15c.03-.15.05-.3.08-.45-.03.15-.05.3-.08.45Z"/>
  <path class="cls-1" d="M1290.85,1258.69c-.12.52-.23,1.04-.33,1.56.11-.52.21-1.04.33-1.56Z"/>
  <path class="cls-1" d="M1260.5,1274.54c.03-.2.03-.39.05-.59-.02.2-.03.39-.05.59Z"/>
  <path class="cls-1" d="M1379.54,1297.01c1.83-2.68,3.47-5.71,4.77-9.13-1.21,3.13-2.8,6.19-4.77,9.13Z"/>
  <path class="cls-1" d="M696.82,1889.29c.66-1.35,1.32-2.7,1.98-4.04-.66,1.34-1.32,2.69-1.98,4.04Z"/>
  <path class="cls-1" d="M698.98,1884.87c3.24-6.58,6.45-12.99,9.71-19.32-3.26,6.33-6.48,12.75-9.71,19.32Z"/>
  <path class="cls-1" d="M523.56,1318.28c-.39-.39-.78-.79-1.15-1.18.38.4.76.79,1.15,1.18Z"/>
  <path class="cls-1" d="M708.85,1865.25c.61-1.19,1.23-2.37,1.84-3.56-.62,1.18-1.23,2.37-1.84,3.56Z"/>
  <path class="cls-1" d="M1374.5,1236.86c8.75,9.97,13.69,23.49,12.86,37.03.03-.46.07-.91.09-1.38.72-14.34-4.49-26.66-12.95-35.66Z"/>
  <path class="cls-1" d="M711.07,1860.98c.54-1.04,1.09-2.08,1.64-3.12-.55,1.04-1.09,2.08-1.64,3.12Z"/>
  <path class="cls-1" d="M590.96,1351.01c-1.55-.4-3.07-.82-4.57-1.24,1.5.42,3.03.83,4.57,1.24Z"/>
  <path class="cls-1" d="M589.17,1350.5c-17.23-5.21-29.39-20.08-33.1-36.93,3.26,16.47,14.41,31.38,33.1,36.93Z"/>
  <path class="cls-1" d="M1356.29,1315.51c-2.83,1.03-4.44,1.28-3.88,1.33.39.03.76.05,1.15.08.5-.34,1.45-.79,2.73-1.41Z"/>
  <path class="cls-1" d="M525.08,1319.75c-.1-.1-.21-.2-.31-.29.1.1.21.2.31.29Z"/>
  <path class="cls-1" d="M560.31,1280.62c2.61-4.95,6.21-9.62,10.9-13.79,5.47-4.86,11.31-7.65,15.64-9.21-12.65,4.36-21.46,12.83-26.55,23Z"/>
  <path class="cls-1" d="M713.4,1856.56c.45-.84.89-1.68,1.34-2.52-.45.84-.89,1.68-1.34,2.52Z"/>
  <path class="cls-1" d="M516,1284.16c-6.6,10.09-4.22,21.59,6.12,32.63-10.26-11.08-12.46-22.58-6.12-32.63Z"/>
  <path class="cls-1" d="M1305.95,1233.46c-.48.42-.92.87-1.38,1.3,8.74-8.28,21.04-13.62,36.32-13.64-11.98-.7-24.44,3-34.94,12.34Z"/>
  <path class="cls-1" d="M1761.32,1499.34c6.87-1.6,12.8-6.86,13.81-16.28-.84,7.88-6.59,14.23-13.81,16.28Z"/>
  <path class="cls-1" d="M1213.83,1958.08c.85.45,1.67.94,2.48,1.43-.82-.51-1.65-.99-2.48-1.43Z"/>
  <path class="cls-1" d="M1216.1,2062.16c-9.27,6.57-19.08,12.14-29.31,16.86,11.82-5.09,21.5-10.78,29.31-16.86Z"/>
  <path class="cls-1" d="M1239.8,1988.59c6.31,18.14,3.79,39.46-6.85,56.25,13.42-19.01,13.47-39.53,6.85-56.25Z"/>
  <path class="cls-1" d="M1279.92,1761.33s-.01-.02-.02-.03c0,0,.01.02.02.03Z"/>
  <path class="cls-1" d="M1280.87,1762.65s-.02-.03-.03-.04c0,.01.02.03.03.04Z"/>
  <path class="cls-1" d="M1342.32,1879.64c-.21-.46-.43-.95-.66-1.46.23.5.45.99.66,1.46Z"/>
  <path class="cls-1" d="M785.27,1811.09c-.31.45-.64.92-.95,1.38.32-.46.64-.93.95-1.38Z"/>
  <path class="cls-1" d="M716.04,1851.62c.25-.46.5-.93.75-1.39-.25.46-.5.93-.75,1.39Z"/>
  <path class="cls-1" d="M785.45,1810.83c29.64-42.68,41.58-47.54,26.85-63.42,14.71,15.85,2.76,20.77-26.85,63.42Z"/>
  <path class="cls-1" d="M696.82,1889.29c-5.02,10.34.2,19.7,8.37,23.75-8.01-4.39-13.1-14.02-8.37-23.75Z"/>
  <path class="cls-1" d="M1279.02,1760.12s-.03-.04-.04-.06c.01.02.03.04.04.06Z"/>
  <path class="cls-1" d="M783.1,1814.25s.06-.09.09-.13c-.03.04-.06.09-.09.13Z"/>
  <path class="cls-2" d="M1790.72,1237.81c6.97,18.19-5.22,41.59-27.47,33.09-61.57-40.47-84.33-238.93-161.69-398.96-1.24-2.57-2.5-5.14-3.78-7.69-70.62-147.53-212.66-322.62-382.66-325.91,83.13,82.09,98.54,197.28,84.32,280.34-.02.12-.04.24-.06.36-.03.16-.06.32-.08.49-10.88,64.56-39.65,109.57-69.42,103.82-18.02-4.44-25.88-30.03-35.04-66.81-15.35-60.58-34.27-151.4-105.84-227.25,8.68,48.88,1.87,107.01-12.77,161.69-.09.34-.18.68-.27,1.02-.05.2-.11.4-.16.6-27.34,101.16-81.19,190.19-113.23,185.79-25.45-5.38-23.56-34.33-29.88-99.51-5.52-55.69-16.85-137.47-55.7-252.43-.66-1.96-1.33-3.93-2.01-5.9-223.41-11.93-278.79,140.68-314.21,223.16-16.81,39.47-29.1,62.91-53.19,44.65-23.58-25.39-37.82-206.22,27.53-330.28-145.4,150.71-169.25,371.61-179.44,543.22-8.93,152.76-6.99,266.41-70.78,256.81-.44-.16-.89-.33-1.33-.51-.2-.08-.4-.17-.6-.26-.2-.09-.41-.18-.61-.28-23.36-10.93-43.68-58.28-59.62-115.99-6.45-22.86-11.53-44.86-15.04-61.6-108.79-17.4-260.44,111.8-114.45,391.71,36.76,69.49,91.74,126.77,169.41,134.22,69.98,307.59,256.79,511.27,479.72,595.56,441.66,171.47,868.96-31.44,978.97-613.69,145.88-86.03,227.96-493.86,56.87-503.02.08,3.37.31,6.47.68,9.43,3.57,14.77,11.08,41.4,11.86,44.15ZM137.87,1492.57c-15.04-40.87-25.94-85.92-18.67-129.53.07-.56.16-1.1.26-1.63.02-.11.04-.22.07-.33.11-.5.23-.99.37-1.47.03-.12.07-.23.11-.34.13-.41.27-.82.43-1.22.04-.09.07-.19.11-.28.17-.41.35-.81.55-1.2.08-.16.16-.31.24-.47.19-.36.39-.71.6-1.06.11-.17.22-.34.33-.51.14-.21.28-.41.43-.61.2-.28.4-.54.62-.8.14-.17.28-.35.43-.52.17-.19.34-.38.52-.57.11-.12.23-.23.34-.34.31-.31.62-.61.95-.89.11-.09.21-.19.32-.28.35-.29.71-.57,1.07-.83.11-.08.22-.16.33-.24.21-.15.43-.29.65-.43.17-.11.34-.21.52-.31.29-.17.58-.33.88-.49.23-.12.45-.23.68-.34.15-.07.31-.15.46-.22.38-.17.77-.33,1.16-.48.09-.03.18-.07.28-.1,4.87-1.76,10.32-1.68,14.86.48.18.08.36.18.54.27.09.05.19.09.28.15,3.89,2.03,7.13,5.56,8.85,10.75,1.89,5.21-1.51,13.59-1.78,31.01-.04,11.65,1.13,23.27,3.18,34.78,2.76,15.14,7.65,33.74,15.98,56.7,7.08,23.46-27.51,34.89-35.92,11.37ZM1153.59,1080.61c25.37-9.02,60.92-15.94,100.83-20.79,84.03-12.52,167.54-13.8,254.94-3.13,1.38.16,2.75.33,4.1.5,8.62,1.09,13.57,7.3,14.88,14.34.59,2.48.72,5.06.27,7.56-1.53,8.46-4.5,12.46-10.96,13.95-3.04,1.25-6.69,1.76-10.98,1.23-3.39-.46-6.79-.89-10.19-1.3-9.19-.85-20.98-2.26-36.1-3.49-35.9-2.62-71.65-2.81-105.57-1.33-43.36,2.48-102.01,8.69-147.9,18.02-29.5,6.33-51.14,13.25-61.2,19.11-8.47,7.59-22.2,7.28-29.06-2.51-.29-.52-.56-1.04-.81-1.56-9.5-19.35,11.11-32,37.75-40.59ZM407.22,1160.24c-.09.02-.19.03-.28.05-.2.04-.4.07-.59.1-3.03.53-6.16.25-9.08-.7-.22-.07-.44-.14-.66-.22-.2-.07-.41-.15-.61-.23-.46-.18-.91-.37-1.36-.59-.01,0-.02-.01-.03-.02-4.39-2.11-7.96-5.8-9.45-10.57-.03-.11-.07-.22-.1-.33-.16-.55-.3-1.11-.41-1.69-4.16-23.01,24.51-29.55,41.06-34.31,78.67-22.01,161.2-36.59,243.08-31.3,101.32,5.37,199.82,73.4,232.71,170.65,37.97,112.46-3.86,256.74-8.54,355.72-2.7,58.36,7.51,101,54.47,112.01,45.37,11.38,92.06-1.13,133.66-19.8,27.76-15.84,40.52-2.57,40.1,10.84-.2,6.59-3.6,13.22-9.99,16.43-2.03,1.02-4.03,2.02-6.02,2.99-1.1.54-2.18,1.04-3.27,1.56-.88.42-1.76.85-2.63,1.26-1.27.6-2.53,1.17-3.79,1.74-.67.31-1.34.62-2.01.92-1.34.61-2.67,1.18-3.99,1.77-.56.25-1.13.5-1.68.74-1.4.61-2.78,1.18-4.16,1.76-.47.2-.94.4-1.41.6-1.53.63-3.04,1.24-4.54,1.84-.3.12-.62.25-.92.37-1.65.65-3.27,1.27-4.89,1.88-.16.06-.31.12-.47.18-1.77.66-3.52,1.3-5.25,1.92,0,0,0,0,0,0-41.93,14.92-74.65,16.59-105.41,13.53-28.54-3.24-49.85-11.42-65.54-23.63-.89-.7-1.77-1.41-2.62-2.13-.03-.02-.06-.04-.08-.07-97.3-82.04,36.61-330.18-35.56-492.49-26.93-52.85-71.73-89.31-124.11-108.58-33.6-11.47-70.64-16.02-109.43-15.6-56.77,2.55-114.51,12.77-155.35,22.47-10.44,2.61-20.86,5.39-31.21,8.3-12.88,3.7-18.15,6.12-20.89,7.86-1.03,1.02-2.15,1.87-3.31,2.57-1.03.79-2.31,1.44-5.42,2.15ZM876.85,1723.1c-.03-.06-.06-.12-.1-.19.02-.01.04-.03.06-.04.01.07.02.15.04.23ZM554.41,1379.49c-45.44-13.34-97.69-58.81-73.63-110.19,37.16-65.81,166.84-58.66,229.03-36.94,124.28,39.66,103.63,127.57,9.68,155.6-42.2,12.67-99.35,13.17-165.08-8.47ZM734.51,1897.83c-6.18,18.24-19.81,20.42-29.32,15.2-8.17-4.04-13.4-13.41-8.37-23.75.66-1.35,1.32-2.7,1.98-4.04.06-.13.12-.25.19-.38,3.23-6.57,6.45-12.99,9.71-19.32.05-.1.1-.2.16-.3.61-1.19,1.23-2.37,1.84-3.56.13-.24.25-.48.38-.72.54-1.04,1.09-2.08,1.64-3.12.23-.43.46-.86.69-1.3.45-.84.89-1.68,1.34-2.52.43-.81.87-1.61,1.3-2.42.25-.46.5-.93.75-1.39,15.21-27.99,32.6-55.51,58.68-89.53,7.84-13.52,22.14-26.8,36.82-13.28,14.73,15.88,2.8,20.73-26.85,63.42-.06.09-.12.17-.18.26-.31.45-.64.92-.95,1.38-.38.55-.75,1.08-1.13,1.64-.03.04-.06.09-.09.13-13.19,19.28-29.62,45.84-48.59,83.59ZM1222.56,2057.35c-2.12,1.66-4.28,3.26-6.46,4.81-7.81,6.08-17.49,11.77-29.31,16.86-62.86,29.01-141.67,25.77-208.7,21.97-246.35-40.2-150.61-243.46,73.04-130.46,50.78-16.62,111.67-38.24,162.7-12.46.83.44,1.66.92,2.48,1.43,11.64,6.97,19.41,17.36,23.48,29.08,6.62,16.72,6.58,37.25-6.85,56.25-2.88,4.55-6.34,8.78-10.39,12.51ZM1342.32,1879.64c-.21-.46-.43-.95-.66-1.46-10.68-23.34-42.67-89.95-60.79-115.54,0-.01-.02-.03-.03-.04-.31-.44-.62-.87-.92-1.28,0,0-.01-.02-.02-.03-.3-.4-.59-.8-.87-1.18-.01-.02-.03-.04-.04-.06-.28-.36-.55-.71-.81-1.06-.02-.03-.05-.06-.07-.1-.58-.73-1.14-1.41-1.68-2.03,0,0,0,0,0-.01-.27-.31-.54-.61-.8-.89-6.2-3.93-9.12-8.97-9.72-14-1.57-13.17,12.73-26.35,26.1-19.84,26.68,13.94,72.7,115.39,85.05,142.84,9.11,22.82-24.31,37.28-34.72,14.67ZM1519.59,1314.46c-1.31,1.3-2.7,2.55-4.11,3.79-19.68,19.82-52.15,34.47-97.5,36.91-4.69.56-9.43,1.01-14.2,1.35-.31.55-.39.56-.75.05-19.93,1.36-40.36.79-60.05-1.75-45.2-5.37-92.56-21.97-114.63-56.41-.05-.07-.09-.15-.14-.22-.71-1.12-1.41-2.25-2.07-3.41-8.72-3.81-13-13.72-10.41-22.94,31.94-102.28,176.84-113.69,262.5-79.34.97.37,1.94.77,2.9,1.17,38.52,15.77,57.55,44.88,57.01,74.12.65,15.95-4.8,32.22-18.57,46.68ZM1775.13,1483.06c-1.01,9.42-6.94,14.68-13.81,16.28-2.17.61-4.46.86-6.8.62-6.92-.66-11.16-3.2-13.6-7.47-2.52-3.33-3.9-7.75-3.3-13.14.16-1.67.33-3.35.5-5.04.36-9.21,2.03-20.74,3.47-34.37,1.83-19.94,2.98-39.99,1.46-59.47-6.7-23.83,28.09-34.84,35.92-11.41,6.63,37.61-.88,76.29-3.85,114Z"/>
  <path class="cls-2" d="M599.95,1352.33c-.67-.03-1.34-.08-1.99-.14-.21-.02-.42-.04-.62-.06-1.28-.13-2.44-.3-3.32-.44,27.27,5.7,61.98,9.03,93.01,5,31.35-4.29,59.11-16.04,71.23-39.88-.05-.68-.12-1.35-.22-2.02-2.19-15.24-16.17-27.42-35.25-36.73-.16-.08-.31-.15-.46-.23-.48-.23-.97-.46-1.45-.69-.41-.19-.82-.39-1.24-.58-.23-.1-.46-.21-.69-.31-33.62-15.18-80.68-21.97-107.62-21.45.67.08,1.34.19,2,.3,20.9,3.43,33.67,18.72,37.68,36.21,3.05,11.66,2.06,24.43-4.21,35.73-6.19,12.02-17.6,21.53-34.5,24.41-4.18.78-8.36,1.07-12.35.87Z"/>
  <path class="cls-2" d="M1406.42,1317.51c36.09-3.41,60.2-10.94,75.01-20.35,12.15-8.13,18.48-17.81,19.34-27.59.7-14-9.92-27.81-26.27-36.74-.72-.39-1.44-.77-2.18-1.15-58.94-30.38-174.78-28.16-212.94,33.66.19.47.36.96.51,1.45.05.16.08.32.12.48.09.33.19.67.26,1,.05.22.07.44.11.66.05.29.11.57.15.87.03.28.05.56.07.83.02.24.05.48.06.72.01.31,0,.63,0,.94,0,.21,0,.43,0,.64-.02.34-.06.68-.09,1.02-.02.2-.03.39-.05.59-.05.39-.13.78-.21,1.17-.03.15-.05.3-.08.45-.12.54-.26,1.08-.43,1.62,14.39,20.07,43.49,32.22,50.16,32.22.11.04-.23-.21-.86-.72-5.52-4.34-9.9-9.55-13.1-15.27-.17-.29-.34-.59-.5-.89l-.02-.05c-3.64-6.63-6.4-15.14-5.87-25.47.09-1.8.3-3.6.58-5.37.03-.19.06-.38.1-.58.08-.47.17-.94.26-1.41.1-.52.21-1.04.33-1.56,0-.04.02-.07.03-.11,1.28-5.44,3.52-10.71,6.76-15.56.18-.27.35-.54.53-.81.15-.22.32-.43.47-.65.38-.53.76-1.05,1.16-1.56.13-.16.26-.33.39-.49.45-.56.92-1.12,1.39-1.66.12-.14.25-.28.37-.42.48-.53.97-1.05,1.47-1.56.17-.17.33-.34.5-.51.21-.2.42-.4.63-.6.46-.44.9-.88,1.38-1.3,10.5-9.33,22.96-13.04,34.94-12.34.02,0,.05,0,.07,0,13.48,0,25.23,6.26,33.54,15.74,8.46,8.99,13.67,21.31,12.95,35.66-.02.46-.05.92-.09,1.38-.29,4.71-1.28,9.42-3.05,13.98-1.31,3.42-2.94,6.45-4.77,9.13-2.28,3.4-5.09,6.64-8.47,9.66-5.6,4.98-11.18,7.54-14.78,8.85-1.28.62-2.24,1.07-2.73,1.41,19.67,1.49,37.27,1.6,52.87.59Z"/>
  <path class="cls-2" d="M524.77,1319.46c.1.1.21.2.31.29,12.27,11.41,33.1,22.14,61.31,30.02,1.5.42,3.02.83,4.57,1.24-.6-.16-1.2-.33-1.79-.51-18.69-5.55-29.84-20.46-33.1-36.93-2.39-10.85-1.28-22.52,4.24-32.96,5.09-10.17,13.9-18.64,26.55-23,3.8-1.37,6.44-1.79,6.65-1.84-.14.01-.28.02-.42.03-42.4,3.83-67.11,14.37-76.45,27.43-.2.3-.42.59-.61.89,0,.01-.01.02-.02.03-6.34,10.04-4.14,21.55,6.12,32.63.1.1.19.2.29.3.37.4.76.79,1.15,1.18.4.4.8.79,1.22,1.18Z"/>
  <path class="cls-3" d="M876.85,1723.1c-.01-.07-.03-.15-.04-.23-.02.01-.04.03-.06.04.03.06.06.12.1.19Z"/>
  <path class="cls-3" d="M709.81,1232.37c-62.19-21.72-191.87-28.88-229.03,36.94-24.06,51.38,28.19,96.84,73.63,110.19,65.73,21.64,122.88,21.15,165.08,8.47,93.65-28.12,113.66-116.24-9.68-155.6ZM646.8,1327.04c5.61-10.88,6.94-23.81,4.21-35.73-4.01-17.49-16.78-32.78-37.68-36.21-.66-.11-1.33-.22-2-.3,26.94-.53,74,6.26,107.62,21.45.23.1.46.21.69.31.42.19.82.39,1.24.58.49.23.97.45,1.45.69.16.07.31.15.46.23,19.06,9.28,33.06,21.44,35.25,36.73.1.67.17,1.34.22,2.02-12.12,23.85-39.88,35.6-71.23,39.88-31.64,4.33-66.95,1.05-93.54-5.09.16.03.34.06.54.09.88.14,2.04.31,3.32.44.2.02.41.04.62.06.65.06,1.32.11,1.99.14.46.02.92.03,1.37.03,3.89,0,7.55-.32,10.99-.91,16.89-2.88,28.3-12.39,34.5-24.41ZM522.12,1316.79c-10.34-11.04-12.72-22.54-6.12-32.63,0-.01.01-.02.02-.03.2-.3.4-.6.61-.89,9.34-13.05,34.05-23.59,76.45-27.43.12-.01.23-.02.35-.03.07,0,.09,0,.07,0-.2.05-2.85.47-6.65,1.84-4.33,1.56-10.18,4.35-15.64,9.21-4.69,4.18-8.29,8.85-10.9,13.79-5.52,10.44-6.63,22.11-4.24,32.96,3.71,16.85,15.87,31.72,33.1,36.93.59.18,1.19.35,1.79.51-1.54-.4-3.07-.82-4.57-1.24-28.21-7.88-49.04-18.61-61.31-30.02-.11-.1-.21-.2-.31-.29-.42-.39-.82-.79-1.22-1.18-.4-.39-.78-.79-1.15-1.18-.1-.1-.19-.2-.29-.3Z"/>
  <path class="cls-3" d="M1481.15,1193.66c-.96-.39-1.91-.79-2.9-1.17-85.66-34.34-230.56-22.94-262.5,79.34-2.59,9.22,1.69,19.12,10.41,22.94.66,1.16,1.36,2.29,2.07,3.41.05.07.09.15.14.22,22.07,34.44,69.44,51.04,114.63,56.41,21.23,2.52,41.99,2.57,59.41.83.29.4.49.7.64.92.36.51.44.5.75-.05.13-.24.3-.56.57-.99,4.67,0,9.21-.12,13.63-.36,45.34-2.44,77.82-17.09,97.5-36.91,14.78-14.89,22.35-32.7,22.68-50.47.54-29.24-18.49-58.35-57.01-74.12ZM1356.29,1315.51c3.6-1.31,9.18-3.87,14.78-8.85,3.38-3.01,6.18-6.26,8.47-9.66,1.98-2.94,3.56-6,4.77-9.13,1.77-4.56,2.76-9.27,3.05-13.98.83-13.54-4.11-27.06-12.86-37.03-8.31-9.47-20.05-15.74-33.54-15.74-.02,0-.05,0-.07,0-15.28.02-27.59,5.36-36.32,13.64-.21.2-.43.39-.63.6-.17.17-.33.34-.5.51-.5.51-.99,1.03-1.47,1.56-.12.14-.25.28-.37.42-.48.54-.94,1.1-1.39,1.66-.13.16-.26.32-.39.49-.4.51-.79,1.03-1.16,1.56-.16.22-.32.43-.47.65-.18.27-.36.54-.53.81-3.15,4.76-5.43,10.03-6.76,15.56,0,.04-.02.07-.03.11-.12.52-.23,1.04-.33,1.56-.1.47-.18.94-.26,1.41-.03.19-.07.38-.1.58-.29,1.77-.49,3.57-.58,5.37-.52,10.33,2.24,18.84,5.87,25.47,0,.01.02.03.02.05.17.3.33.59.5.89,4.8,8.32,10.87,13.47,13.1,15.27.64.51.97.76.86.72-7,0-35.77-12.15-50.16-32.22.17-.54.31-1.08.43-1.62.03-.15.05-.3.08-.45.08-.39.16-.78.21-1.17.03-.2.03-.39.05-.59.03-.34.08-.68.09-1.02.01-.21,0-.43,0-.64,0-.31.02-.63,0-.94,0-.24-.04-.48-.06-.72-.02-.28-.03-.56-.07-.83-.04-.29-.1-.58-.15-.87-.04-.22-.07-.44-.11-.66-.07-.34-.17-.67-.26-1-.04-.16-.08-.32-.12-.48-.15-.49-.32-.97-.51-1.45,38.16-61.81,154-64.03,212.94-33.66.75.38,1.47.76,2.18,1.15,18.41,9.92,27.43,23.41,26.27,36.74-.85,9.78-7.19,19.47-19.34,27.59-15.42,10.32-40.21,18.11-75.01,20.35-15.59,1.01-33.19.9-52.87-.59-.39-.03-.76-.05-1.15-.08-.56-.04,1.05-.3,3.88-1.33Z"/>
  <path class="cls-4" d="M1239.8,1988.59c-4.08-11.72-11.84-22.11-23.48-29.08-.81-.49-1.63-.98-2.48-1.43-51.03-25.78-111.92-4.17-162.7,12.46-223.66-113-319.39,90.26-73.04,130.46,67.03,3.8,145.84,7.04,208.7-21.97,10.23-4.72,20.04-10.29,29.31-16.86,2.18-1.55,4.34-3.15,6.46-4.81,4.06-3.73,7.51-7.96,10.39-12.51,10.63-16.8,13.15-38.11,6.85-56.25Z"/>
  <path class="cls-3" d="M436.84,1147.66c10.35-2.91,20.76-5.69,31.21-8.3,52.21-13.05,105.23-21.92,155.35-22.47,38.78-.43,75.83,4.13,109.43,15.6,51.57,17.6,95.01,51.47,124.11,108.58,72.2,162.37-61.72,410.46,35.56,492.49.03.02.06.04.08.07.86.72,1.73,1.43,2.62,2.13,15.69,12.21,37,20.4,65.54,23.63,30.76,3.06,63.48,1.39,105.41-13.53,0,0,0,0,0,0,1.73-.62,3.48-1.26,5.25-1.92.16-.06.31-.12.47-.18,1.62-.61,3.24-1.23,4.89-1.88.3-.12.62-.25.92-.37,1.5-.6,3.01-1.2,4.54-1.84.46-.19.94-.4,1.41-.6,1.38-.58,2.76-1.16,4.16-1.76.56-.24,1.12-.5,1.68-.74,1.33-.58,2.65-1.16,3.99-1.77.66-.3,1.34-.62,2.01-.92,1.26-.58,2.51-1.15,3.79-1.74.87-.41,1.76-.84,2.63-1.26,1.09-.52,2.17-1.03,3.27-1.56,1.99-.97,4-1.96,6.02-2.99,6.38-3.21,9.78-9.84,9.99-16.43.43-13.41-12.34-26.68-40.1-10.84-41.6,18.67-88.29,31.17-133.66,19.8-46.96-11.01-57.17-53.65-54.47-112.01,4.58-99.13,46.38-243.63,8.54-355.72-32.89-97.25-131.39-165.28-232.71-170.65-81.88-5.29-164.41,9.29-243.08,31.3-16.55,4.76-45.22,11.3-41.06,34.31.1.58.24,1.14.41,1.69.03.11.07.22.1.33,1.5,4.72,5.08,8.43,9.45,10.57.01,0,.02.01.03.02.44.22.9.4,1.36.59.2.08.4.16.61.23.22.08.44.14.66.22,2.92.95,6.05,1.22,9.08.7.2-.03.4-.06.59-.1.09-.02.19-.03.28-.05,3.11-.71,4.38-1.36,5.42-2.15.92-.7,1.65-1.51,3.31-2.57,2.74-1.74,8.02-4.16,20.89-7.86Z"/>
  <path class="cls-3" d="M1115.84,1121.21c.25.52.51,1.04.81,1.56,6.86,9.8,20.58,10.1,29.06,2.51,12.6-7.33,34.78-13.73,61.2-19.11,45.89-9.33,104.54-15.54,147.9-18.02,7.34-.42,14.24-.73,20.56-.94,36.25-.87,63.88.54,85,2.27,15.13,1.24,26.91,2.64,36.1,3.49,9.58.89,16.35,1.18,21.17.07,6.45-1.49,9.42-5.49,10.96-13.95.45-2.5.33-5.08-.27-7.56-1.7-7.12-7.34-13.39-14.88-14.34-1.35-.17-2.72-.34-4.1-.5-68.07-8.05-171.1-7.05-254.94,3.13-39.9,4.84-75.45,11.77-100.83,20.79-29.88,10.62-45.64,24.14-37.75,40.59Z"/>
  <path class="cls-4" d="M157.81,1424.49c-2.05-11.51-3.23-23.13-3.18-34.78.02-5.3.28-10.61.85-15.91,3.15-13.83-1.23-22.21-7.91-25.85-.09-.05-.19-.1-.28-.15-.18-.09-.36-.19-.54-.27-4.54-2.15-9.99-2.24-14.86-.48-.09.03-.18.07-.28.1-.39.15-.78.31-1.16.48-.16.07-.31.15-.46.22-.23.11-.46.23-.68.34-.3.16-.59.32-.88.49-.17.1-.35.21-.52.31-.22.14-.43.28-.65.43-.11.08-.22.16-.33.24-.37.26-.72.54-1.07.83-.11.09-.22.18-.32.28-.33.29-.64.58-.95.89-.11.11-.23.23-.34.34-.18.19-.35.38-.52.57-.15.17-.29.34-.43.52-.21.26-.42.53-.62.8-.15.2-.29.41-.43.61-.11.17-.22.34-.33.51-.21.34-.41.7-.6,1.06-.08.15-.16.31-.24.47-.19.39-.38.79-.55,1.2-.04.09-.07.19-.11.28-.16.4-.3.8-.43,1.22-.04.11-.07.23-.11.34-.14.48-.27.97-.37,1.47-.02.11-.04.22-.07.33-.11.53-.2,1.07-.26,1.63-7.27,43.61,3.63,88.66,18.67,129.53,8.41,23.52,43,12.09,35.92-11.37-6.64-18.31-12.54-37.34-15.98-56.7Z"/>
  <path class="cls-4" d="M1743.05,1380.47c1.77,22.71.33,42.68-1.46,59.47-1.45,13.62-3.12,25.16-3.47,34.37-.3,7.75.33,13.85,2.8,18.17,2.44,4.27,6.68,6.81,13.6,7.47,2.34.24,4.64,0,6.8-.62,7.22-2.05,12.97-8.4,13.81-16.28,2.97-37.7,10.47-76.38,3.85-114-7.83-23.43-42.62-12.42-35.92,11.41Z"/>
  <path class="cls-4" d="M784.32,1812.48c.32-.46.64-.93.95-1.38.06-.09.12-.17.18-.26,29.61-42.64,41.55-47.57,26.85-63.42-14.69-13.52-28.98-.24-36.82,13.28-26.08,34.02-43.47,61.55-58.68,89.53-.25.46-.5.93-.75,1.39-.44.81-.87,1.61-1.3,2.42-.45.84-.89,1.68-1.34,2.52-.23.43-.46.86-.69,1.3-.55,1.04-1.09,2.08-1.64,3.12-.13.24-.25.48-.38.72-.62,1.18-1.23,2.37-1.84,3.56-.05.1-.1.2-.16.3-3.26,6.33-6.47,12.74-9.71,19.32-.06.13-.12.25-.19.38-.66,1.34-1.32,2.69-1.98,4.04-4.73,9.72.37,19.36,8.37,23.75,9.51,5.22,23.14,3.03,29.32-15.2,18.97-37.75,35.4-64.31,48.59-83.59.03-.04.06-.09.09-.13.38-.56.75-1.09,1.13-1.64Z"/>
  <path class="cls-4" d="M1291.99,1722.14c-13.37-6.51-27.68,6.67-26.1,19.84.6,5.04,3.52,10.07,9.72,14,.26.28.53.58.8.89,0,0,0,0,0,.01.54.62,1.1,1.3,1.68,2.03.02.03.05.06.07.1.27.34.54.69.81,1.06.01.02.03.04.04.06.29.38.58.77.87,1.18,0,0,.01.02.02.03.3.42.61.84.92,1.28,0,.01.02.03.03.04,18.12,25.59,50.11,92.2,60.79,115.54.23.5.45.99.66,1.46,10.42,22.61,43.83,8.15,34.72-14.67-12.35-27.45-58.37-128.9-85.05-142.84Z"/>
  <path class="cls-3" d="M1816.25,506.65c-14.06-50.38-33.06-99.41-56.5-146.19,100.6,87.64,126.97,127.62,151.72,103.69,51.4-61.32-169.45-339.48-382.78-380.72-146.16-92.61-335.18-21.6-438.28,94.75,23.61-119.07,49.33-147.48,20.94-156.47-9.59-3-20.84,2.44-23.66,12.34-87.25,306.04,2.86,235.34-108.03-22.12-9.66-22.94-43.62-9.69-35.22,13.41,17.79,40.2,36.33,93.08,43.66,119.66C808.91-69.34,363.28-5.7,211.63,256.15,101.63,438.5,22.77,544.41,1.22,880.87c-.34,23.94-7.59,59.09,17.72,72.66,31.3,8.77,45.13-31.85,66.19-83.69-27.19,159.94-31.81,227.74-3.44,262.59,33.78,24.47,68.75-16.5,97.12-66,7.09,27.53,14.88,55.69,23.31,82.88,0,1.2,1.93,12.87,5.55,30.14,3.5,16.74,8.59,38.74,15.04,61.6,14.13,50.09,34.79,104.26,59.62,115.99.2.1.41.19.61.28.2.09.4.18.6.26.44.18.88.36,1.33.51,63.44,9.55,61.7-104.11,70.78-256.81,10.2-171.61,34.05-392.51,179.44-543.22-65.42,124.2-50.89,305.12-27.53,330.28,24.1,18.26,36.38-5.18,53.19-44.65,35.15-82.53,90.1-235.14,314.21-223.16.68,1.98,1.35,3.95,2.01,5.9,38.85,114.95,50.18,196.74,55.7,252.43,6.43,64.79,4.99,94.25,29.88,99.51,31.78,4.37,85.81-84.56,113.23-185.79.05-.2.11-.4.16-.6.09-.34.18-.68.27-1.02,14.64-54.68,21.45-112.81,12.77-161.69,71.57,75.86,90.48,166.67,105.84,227.25,9.33,36.8,17.34,62.45,35.04,66.81,29.78,5.75,58.54-39.26,69.42-103.82.03-.16.06-.32.08-.49.02-.12.04-.24.06-.36,13.83-83.48-2.2-199.25-84.32-280.34,170,3.28,312.03,178.37,382.66,325.91,1.27,2.55,2.53,5.12,3.78,7.69,77.36,160.03,100.12,358.49,161.69,398.96,22.25,8.5,34.44-14.91,27.47-33.09-5.68-19.92-10.18-30.48-11.86-44.15-.36-2.95-.59-6.06-.68-9.43-.42-17.39,3.1-42,12.88-91.1,32-150.75,24.62-129.34,32.94-113.31,89.57,181.03,94.02,191.5,114.87,198.15,109.24,13.87,47.51-366.52-122.62-671.31Z"/>
</svg>