<?xml version="1.0" encoding="UTF-8"?>
<svg id="_лой_1" data-name="—лой_1" xmlns="http://www.w3.org/2000/svg" viewBox="0 0 2004.63 2259.8">
  <defs>
    <style>
      .cls-1 {
        fill: none;
      }

      .cls-2 {
        fill: #ffcbbd;
      }

      .cls-3 {
        fill: #0c0809;
      }

      .cls-4 {
        fill: #211b17;
      }

      .cls-5 {
        fill: #52c3e1;
      }

      .cls-6 {
        fill: #ffa811;
      }

      .cls-7 {
        fill: #f5c400;
      }

      .cls-8 {
        fill: #f1035d;
      }

      .cls-9 {
        fill: #f28585;
      }
    </style>
  </defs>
  <path class="cls-1" d="M1828.56,863.55c-.13-.08-.26-.18-.39-.27.13.09.26.19.39.27Z"/>
  <path class="cls-1" d="M1833.4,865.71c-.44-.13-.88-.28-1.31-.44.43.16.87.32,1.31.44Z"/>
  <path class="cls-1" d="M1830.11,864.42c-.22-.11-.42-.24-.64-.36.21.12.42.25.64.36Z"/>
  <path class="cls-1" d="M1831.72,865.14c-.32-.13-.63-.28-.95-.42.31.14.62.3.95.42Z"/>
  <path class="cls-1" d="M1909.26,726.14c.47.8.92,1.62,1.36,2.45-.44-.83-.89-1.65-1.36-2.45Z"/>
  <path class="cls-1" d="M1639.03,1183.12c.31-.04.63-.07.95-.1-.32.03-.63.06-.95.1Z"/>
  <path class="cls-1" d="M1850.84,690.39c.33.05.67.1,1,.15-.33-.05-.67-.1-1-.15Z"/>
  <path class="cls-1" d="M1882.79,788.97c-2.01,4.46-4.88,8.59-8.67,12.15,3.8-3.57,6.67-7.7,8.67-12.15Z"/>
  <path class="cls-1" d="M1663.03,1184.53c29.23-86.57,40.28-134.54,45.15-159.23-12.21,53.28-27.43,106.75-45.15,159.23Z"/>
  <path class="cls-1" d="M1874.12,801.12c-12.41,13.5-27.75,21.1-39.02,28.03,11.26-6.92,26.61-14.52,39.02-28.03Z"/>
  <path class="cls-1" d="M1833.43,865.71c3.95,1.13,8.25.97,12.12-.71-3.86,1.68-8.17,1.84-12.12.71Z"/>
  <path class="cls-1" d="M1827.1,862.53c-.06-.05-.12-.11-.19-.16.06.05.12.11.19.16Z"/>
  <path class="cls-1" d="M1823.38,858.65c-.35-.5-.68-1.02-.98-1.56.3.54.63,1.06.98,1.56Z"/>
  <path class="cls-1" d="M1825.74,861.37s-.09-.1-.13-.14c.05.04.09.1.13.14Z"/>
  <path class="cls-1" d="M1850.53,690.36c-30.93-4.18-63.21,5.03-75.66,20.08,12.35-14.94,44.68-24.23,75.66-20.08Z"/>
  <path class="cls-1" d="M1824.5,860.08c-.19-.22-.36-.46-.54-.69.18.23.35.47.54.69Z"/>
  <path class="cls-1" d="M248.16,974.99c.2-.09.41-.18.61-.27-.2.09-.4.18-.61.27Z"/>
  <path class="cls-1" d="M235.36,1068.61c.18-15.99,3.35-15.67,9.84-92.39-10.77,4.23-14.06-13.83-9.84,92.39Z"/>
  <path class="cls-1" d="M251.22,973.59c.12-.06.24-.12.36-.18-.12.06-.24.12-.36.18Z"/>
  <path class="cls-1" d="M287.69,1089.76c-.6.47-1.2.98-1.82,1.52.62-.54,1.22-1.05,1.82-1.52Z"/>
  <path class="cls-1" d="M319.4,1182.65c.06-.37.13-.74.19-1.12-.06.37-.13.75-.19,1.12Z"/>
  <path class="cls-1" d="M203.07,821.95c-19.49,3.09-37.97,13.31-50.82,31.44,12.33-16.5,30.78-27.71,50.82-31.44Z"/>
  <path class="cls-1" d="M295.66,1085.85c-.69.13-1.39.28-2.1.46.72-.18,1.42-.33,2.1-.46Z"/>
  <path class="cls-1" d="M290.17,933.52c.13-.3.26-.6.39-.9-.13.3-.26.6-.39.9Z"/>
  <path class="cls-1" d="M1771.69,877.45c.99-.04,1.98-.07,2.98-.07-1,0-1.99.03-2.98.07Z"/>
  <path class="cls-1" d="M291.09,931.36c4.48-10.9,6.58-22.78,5.93-34.82-.01-.22-.04-.42-.06-.64.71,12.07-1.3,24.22-5.87,35.46Z"/>
  <path class="cls-1" d="M293.03,875.42c-5.06-15.63-14.37-28.14-26.04-37.21,1.33,1.07,2.64,2.18,3.93,3.35,10.67,9.74,17.98,21.43,22.11,33.85Z"/>
  <path class="cls-1" d="M295.71,1085.84c36.31-6.9,31.97,47.33,24.54,91.81,7.43-44.5,11.76-98.71-24.54-91.81Z"/>
  <path class="cls-1" d="M331.14,1094.55c-5.06-64.99.32-119.55,2.7-200.6-2.37,80.75-7.8,135.37-2.7,200.6Z"/>
  <path class="cls-1" d="M239.35,1160.88c6.25-13.69,29.59-54.72,46.51-69.6-16.92,14.88-40.27,55.91-46.51,69.6Z"/>
  <path class="cls-1" d="M1227.58,671.86c62.31-25.88,157.77-41.67,271.8-20.63-119.05-22.06-211.99-4.72-271.8,20.63Z"/>
  <path class="cls-1" d="M511.62,699.88c-1.54.85-3.08,1.72-4.61,2.6,1.53-.88,3.07-1.75,4.61-2.6Z"/>
  <path class="cls-1" d="M918.47,693.55c7.61,8.93,25.53,34.09,38.97,71.81-13.68-39.36-31.99-65.36-38.97-71.81Z"/>
  <path class="cls-1" d="M1121.34,1251.05c.63-.06,1.27-.12,1.9-.18-.63.06-1.27.12-1.9.18Z"/>
  <path class="cls-1" d="M698.38,655.01c-.22,0-.45,0-.67-.01.22,0,.45,0,.67.01Z"/>
  <path class="cls-1" d="M1115.55,1251.58c1.91-.17,3.84-.35,5.78-.53-1.94.18-3.87.36-5.78.53Z"/>
  <path class="cls-1" d="M972.05,894.57c-.07.59-.14,1.19-.22,1.78.07-.59.15-1.19.22-1.78Z"/>
  <path class="cls-1" d="M971.35,900.27c-.27,2.02-.56,4.05-.87,6.09.31-2.04.6-4.07.87-6.09Z"/>
  <path class="cls-1" d="M518.78,696.03c-1.73.9-3.45,1.81-5.16,2.75,1.71-.93,3.43-1.85,5.16-2.75Z"/>
  <path class="cls-1" d="M895.42,724.15s.04.05.06.08c-.02-.03-.03-.04-.05-.07,0,0,0,0,0,0Z"/>
  <path class="cls-1" d="M505.1,703.57c-2.11,1.23-4.22,2.49-6.3,3.77,2.09-1.28,4.19-2.54,6.3-3.77Z"/>
  <path class="cls-1" d="M1856.93,1393.11c0,.05,0,.11,0,.16,0-.05,0-.11,0-.16Z"/>
  <path class="cls-1" d="M1672.69,1297.7c-2.45-3.65-4.87-7.22-7.25-10.71,2.43,3.56,4.84,7.13,7.25,10.71Z"/>
  <path class="cls-1" d="M873.76,702.06c-3.11-1.9-6.28-3.74-9.5-5.52,9.28,5.88,17.27,12.21,23.73,18.89-3.73-4.8-7.62-9.63-14.23-13.36Z"/>
  <path class="cls-1" d="M520.04,695.36c56.5-29.14,119.29-40.82,177.55-40.37-60.53-.77-122.85,12.14-177.55,40.37Z"/>
  <path class="cls-1" d="M1663.34,1283.91c-1.65-2.41-3.28-4.78-4.89-7.1,1.64,2.37,3.27,4.73,4.89,7.1Z"/>
  <path class="cls-1" d="M106.14,776.91c5.13,8.95,13.8,10.84,21.12,8.39-7.32,2.45-15.99.56-21.12-8.39Z"/>
  <path class="cls-1" d="M271.93,689.56c-.17-.06-.35-.12-.52-.18.17.06.35.12.52.18Z"/>
  <path class="cls-1" d="M1637.77,1183.3s.09-.01.13-.02c-.04,0-.09.01-.13.02Z"/>
  <path class="cls-1" d="M1749.96,1031.72c1.26.46,2.55.91,3.9,1.34-1.33-.42-2.63-.87-3.9-1.34Z"/>
  <path class="cls-1" d="M1763.13,732.2c-14.23,12.05-18.64,16.01-19.06,15.96.18.31,4.42-3.56,19.06-15.96Z"/>
  <path class="cls-1" d="M275.83,691.01c-.15-.06-.3-.11-.45-.17.15.06.3.11.45.17Z"/>
  <path class="cls-1" d="M1653.82,1270.15c-1.28-1.83-2.54-3.63-3.79-5.39,1.27,1.79,2.53,3.59,3.79,5.39Z"/>
  <path class="cls-1" d="M1639.45,1249.94c2.43,3.35,4.84,6.71,7.23,10.08-8.31-11.7-15.7-21.76-21.72-29.73,4.91,6.5,9.71,13.06,14.48,19.64Z"/>
  <path class="cls-1" d="M1158.23,718.03c.08-.1.15-.2.24-.31-.08.1-.15.2-.23.3,0,0,0,0,0,0Z"/>
  <path class="cls-1" d="M1142.19,728.63s-.03,0-.04,0c.01,0,.03,0,.04,0Z"/>
  <path class="cls-1" d="M317.66,1192.29c.2-1.09.41-2.2.61-3.32-.2,1.12-.41,2.23-.61,3.32Z"/>
  <path class="cls-1" d="M1137.62,728.23c-.54-.12-1.09-.27-1.65-.44.56.18,1.11.32,1.65.44Z"/>
  <path class="cls-1" d="M1139.21,728.51c-.25-.03-.51-.09-.77-.13.26.04.52.1.77.13Z"/>
  <path class="cls-1" d="M1140.73,728.64c-.12,0-.24-.02-.36-.03.12,0,.24.03.36.03Z"/>
  <path class="cls-1" d="M1686.9,758.42c4.61,4.99,10.44,8.09,18.54,8.88-7.99-.77-13.95-4.1-18.54-8.88Z"/>
  <path class="cls-1" d="M1126.42,339.15c-.06-.21-.12-.42-.17-.63.05.21.11.42.17.63Z"/>
  <path class="cls-1" d="M1127.02,341.2c-.07-.23-.14-.45-.21-.68.07.23.14.46.21.68Z"/>
  <path class="cls-1" d="M1125.87,336.96c-.03-.14-.06-.27-.09-.41.03.14.06.27.09.41Z"/>
  <path class="cls-1" d="M1125.1,332.41s-.01-.1-.02-.14c0,.05,0,.1.02.14Z"/>
  <path class="cls-1" d="M1707.54,922.46c-7.12,14.82-10.03,31.88-7.02,48.94-2.39-16.49.19-33.76,7.02-48.94Z"/>
  <path class="cls-1" d="M1127.72,343.18c-.08-.2-.15-.41-.22-.61.07.2.14.41.22.61Z"/>
  <path class="cls-1" d="M1442.25,523.61c-85.79-41.53-146.42-66.32-190.88-85.77,44.84,19.7,105.6,44.48,190.88,85.77Z"/>
  <path class="cls-1" d="M1124.77,328.13v-.06s0,.04,0,.06Z"/>
  <path class="cls-1" d="M333.34,612.07c10.93,9,27.13,9.59,44.47,5.85-19.79,3.63-34.75.73-44.47-5.85Z"/>
  <path class="cls-1" d="M1124.9,330.32c0-.07,0-.14-.01-.21,0,.07,0,.14.01.21Z"/>
  <path class="cls-1" d="M892.41,348.52c16.66-1.87,33.69-1.53,50.64-.93-16.9-.6-33.92-.94-50.64.93Z"/>
  <path class="cls-1" d="M531.78,515.32c67.73-70.68,133.52-149.59,360.62-166.81-227.57,17.25-292.93,96.07-360.62,166.81Z"/>
  <path class="cls-1" d="M1739.99,1027.31c.58.3,1.17.6,1.77.9-.6-.29-1.18-.6-1.77-.9Z"/>
  <path class="cls-1" d="M452.22,583.98c-.78.52-1.54,1.03-2.31,1.54.79-.52,1.57-1.04,2.31-1.54Z"/>
  <path class="cls-1" d="M455.03,582.19c-.93.6-1.87,1.2-2.82,1.79.95-.59,1.88-1.19,2.82-1.79Z"/>
  <path class="cls-1" d="M1788.29,1180.14c.43-42.16,1.6-123.37,2.46-143.08-.88,20.21-2.03,101.34-2.46,143.08Z"/>
  <path class="cls-1" d="M1796.26,1526.94c9.19,16.05,17.89,29.87,32.32,29.87-14.36,0-23.17-13.91-32.32-29.87Z"/>
  <path class="cls-1" d="M1868.95,1285.89c-4.22-2.1-8.44-4.2-12.66-6.32,4.45,2.24,8.66,4.34,12.66,6.32Z"/>
  <path class="cls-1" d="M1881.81,1292.21c-3.56-1.73-7.12-3.47-10.67-5.23,3.75,1.85,7.3,3.59,10.67,5.23Z"/>
  <path class="cls-1" d="M1896.48,1299.25c-3.63-1.72-7.25-3.45-10.87-5.2,3.87,1.87,7.48,3.6,10.87,5.2Z"/>
  <path class="cls-1" d="M1790.75,1037.06c.88-.1,1.77-.23,2.66-.37-.88.13-1.76.27-2.66.37Z"/>
  <path class="cls-1" d="M1752.5,1139.94c-.32,27.26-.59,51.61-.65,61.31,0-.55.29-28.41.65-61.31Z"/>
  <path class="cls-1" d="M1746.15,1030.22c1.15.49,2.35.96,3.59,1.42-1.22-.45-2.42-.93-3.59-1.42Z"/>
  <path class="cls-1" d="M1663.03,1184.53c-7.44-.85-15.64-2.13-22.73-1.54,6.97-.57,15.08.66,22.73,1.54Z"/>
  <path class="cls-1" d="M1856.29,1279.56c5.52-8.79,10.28-16.52,14.4-23.31-5.29,8.7-10.22,16.64-14.4,23.31Z"/>
  <path class="cls-1" d="M1073.03,314.1c1.67-5.04,5.33-11.12,10.22-18.69-4.95,6.43-9.61,11.97-10.22,18.69Z"/>
  <path class="cls-1" d="M1788.14,1195.95c0-.66,0-1.37.02-2.09,0,.72-.01,1.43-.02,2.09Z"/>
  <path class="cls-1" d="M1788.27,1181.53c0-.25,0-.5,0-.75,0,.25,0,.5,0,.75Z"/>
  <path class="cls-1" d="M1742.64,1028.64c1.06.51,2.17,1.01,3.31,1.49-1.13-.48-2.23-.98-3.31-1.49Z"/>
  <path class="cls-1" d="M315.96,1201.33c.5-2.65,1.03-5.42,1.56-8.28-.53,2.85-1.05,5.62-1.56,8.28Z"/>
  <path class="cls-1" d="M1845.38,1155.87c-16.05,9.88-35.28,22.64-55.46,38.68,13.15-10.36,34.31-25.13,55.46-38.68Z"/>
  <path class="cls-1" d="M395.57,1276.22c-1.54.19-3.07.37-4.61.54,1.54-.17,3.07-.35,4.61-.54Z"/>
  <path class="cls-1" d="M1100.09,269.05c14.73-24.36,32.08-58.44,43.66-107.43-9.53,38.14-26.18,76.88-43.66,107.43Z"/>
  <path class="cls-1" d="M400.81,1275.52c-1.35.19-2.71.37-4.07.54,1.35-.17,2.71-.35,4.07-.54Z"/>
  <path class="cls-1" d="M349.71,1210.62c19.45,6.32,41.06,14.14,51.32,17.94-16.96-6.32-34.04-12.48-51.32-17.94Z"/>
  <path class="cls-1" d="M348,1203.29c.09.4.17.8.26,1.2-.09-.4-.18-.8-.26-1.2Z"/>
  <path class="cls-1" d="M406.09,1274.72c-1.01.17-2.03.31-3.04.46,1.01-.15,2.03-.3,3.04-.46Z"/>
  <path class="cls-1" d="M385.09,1277.38c-1.61.16-3.21.32-4.82.47,1.61-.15,3.21-.31,4.82-.47Z"/>
  <path class="cls-1" d="M390.34,1276.83c-1.62.18-3.23.35-4.84.51,1.61-.16,3.23-.33,4.84-.51Z"/>
  <path class="cls-1" d="M267.66,1437.62c-4.12-9.46-7.53-19.53-11.65-26.62,4.1,7.05,7.51,17.14,11.65,26.62Z"/>
  <path class="cls-1" d="M226.93,1339.75c-1.25.79-2.47,1.56-3.69,2.33,1.23-.78,2.46-1.55,3.69-2.33Z"/>
  <path class="cls-1" d="M379.75,1277.9c-1.41.13-2.81.26-4.22.39,1.4-.13,2.81-.26,4.22-.39Z"/>
  <path class="cls-1" d="M333.74,1283.83c-.13.03-.26.05-.38.08.13-.03.26-.05.38-.08Z"/>
  <path class="cls-1" d="M718.48,1873.59c-73.49-52.16-142.58-149.16-200.16-251.84,52.37,98.65,113.99,191.25,200.16,251.84Z"/>
  <path class="cls-1" d="M370.26,1286.41c12.61,40.31,27.54,80.02,44.13,119.01-19.73-47.92-34.79-89.52-44.13-119.01Z"/>
  <path class="cls-1" d="M331.8,1102.37c.04.46.08.91.12,1.37-.04-.46-.08-.92-.12-1.37Z"/>
  <path class="cls-1" d="M1088.94,333.79c6.53.83,13.5-1.7,17.56-8.31-3.63,5.92-10.78,9.03-17.56,8.31Z"/>
  <path class="cls-1" d="M1136.91,278.86c-2.49,7.3-5.39,14.8-7.73,22.42,3.08-9.74,7.52-20.1,12.58-31.28-1.57,2.95-3.19,5.91-4.85,8.86Z"/>
  <path class="cls-1" d="M1585.37,597.46c11.6,8.61,22.54,18.17,32.54,29.05,2,2.19,3.92,4.37,5.77,6.54-11.53-13.85-24.25-25.37-38.31-35.59Z"/>
  <path class="cls-1" d="M1181.21,51.52c4.33,12.13,6.81,28.53,6.88,47.96.14-17.62-1.79-34.33-6.88-47.96Z"/>
  <path class="cls-1" d="M1149.72,75.93c-.06-.32-.12-.63-.18-.95.06.31.12.63.18.95Z"/>
  <path class="cls-1" d="M1149.18,73.21c-.13-.62-.27-1.23-.41-1.85.14.61.28,1.23.41,1.85Z"/>
  <path class="cls-1" d="M1148.54,70.33c-.18-.76-.38-1.51-.58-2.27.2.75.39,1.51.58,2.27Z"/>
  <path class="cls-1" d="M1774.67,877.37c1.67,0,3.31.04,4.93.11-1.63-.07-3.27-.11-4.93-.11Z"/>
  <path class="cls-1" d="M1779.7,877.48c21.33.93,38.32,7.81,51.04,18.23-14.04-11.69-31.46-17.41-51.04-18.23Z"/>
  <path class="cls-1" d="M1663.17,701.91c4.44,11.96,7.72,22.84,11.03,32.15-.87-2.76-1.67-5.52-2.42-8.21-2.75-8.46-5.62-16.42-8.61-23.95Z"/>
  <path class="cls-1" d="M331.17,1094.93c.11,1.39.22,2.79.34,4.19-.12-1.4-.23-2.8-.34-4.19Z"/>
  <path class="cls-1" d="M1146.96,64.51c.29.96.57,1.92.83,2.9-.26-.97-.54-1.94-.83-2.9Z"/>
  <path class="cls-1" d="M918.1,723.39c-.51.47-1.05.92-1.61,1.33-.08.06-.17.12-.25.18-.26.19-.53.37-.8.54-.6.39-1.22.76-1.86,1.07,1.65-.8,3.18-1.86,4.53-3.12Z"/>
  <path class="cls-1" d="M1831.06,895.99c.56.46,1.1.94,1.64,1.42-.54-.48-1.09-.95-1.64-1.42Z"/>
  <path class="cls-1" d="M1624.95,1230.28c-1.77-2.34-3.42-4.5-4.94-6.46,1.66,2.15,3.31,4.3,4.94,6.46Z"/>
  <path class="cls-1" d="M1293.78,1128.2c.03-.34.06-.67.1-1.01-.04.34-.06.67-.1,1.01Z"/>
  <path class="cls-1" d="M1446.2,1203.87c-.93.85-1.87,1.68-2.81,2.49.95-.81,1.88-1.64,2.81-2.49Z"/>
  <path class="cls-1" d="M1294.03,1125.91c.04-.3.07-.59.1-.89-.04.29-.07.59-.1.89Z"/>
  <path class="cls-1" d="M1384.99,1227.98c-.38,0-.75,0-1.13,0,.38,0,.75,0,1.13,0Z"/>
  <path class="cls-1" d="M1293.42,1133.75c.03-.73.06-1.47.1-2.2-.04.73-.08,1.46-.1,2.2Z"/>
  <path class="cls-1" d="M1294.32,1123.74c.04-.29.08-.58.12-.86-.04.29-.08.58-.12.86Z"/>
  <path class="cls-1" d="M1293.59,1130.53c.03-.39.05-.78.08-1.16-.03.39-.05.78-.08,1.16Z"/>
  <path class="cls-1" d="M1294.64,1121.68c.05-.32.1-.64.16-.95-.06.32-.11.63-.16.95Z"/>
  <path class="cls-1" d="M1384.99,1045.75c-45.49,1.05-78.05,29.89-88.25,66.44,10.23-36.66,42.96-65.39,88.25-66.44Z"/>
  <path class="cls-1" d="M1295.81,1115.85c.12-.5.23-.99.36-1.49-.12.49-.24.99-.36,1.49Z"/>
  <path class="cls-1" d="M1296.26,1114.03c.15-.59.31-1.18.47-1.76-.16.59-.32,1.17-.47,1.76Z"/>
  <path class="cls-1" d="M1293.42,1133.75c-1.88,54.83,42.52,93.06,89.8,94.21-47.28-1.15-91.67-39.4-89.8-94.21Z"/>
  <path class="cls-1" d="M1294.99,1119.72c.07-.38.14-.75.22-1.13-.08.38-.14.75-.22,1.13Z"/>
  <path class="cls-1" d="M1295.38,1117.78c.09-.44.18-.87.28-1.31-.1.43-.19.87-.28,1.31Z"/>
  <path class="cls-1" d="M846.31,1461.97c.42-1.47.85-2.93,1.3-4.36-.45,1.43-.88,2.89-1.3,4.36Z"/>
  <path class="cls-1" d="M871.13,1412.69c.05-.05.09-.11.14-.17-.05.05-.09.11-.14.17Z"/>
  <path class="cls-1" d="M599.29,941.21c51.36,6.16,108.07,2.04,153.13-11.29-47.73,13.12-107.02,15.77-153.13,11.29Z"/>
  <path class="cls-1" d="M872.75,1410.81c.26-.29.51-.6.77-.89-.26.29-.51.59-.77.89Z"/>
  <path class="cls-1" d="M525.44,882.39c-35.48-19.94-31.93-42.42-10.58-61.85-28.78,25.58-18.75,46.83,10.58,61.85Z"/>
  <path class="cls-1" d="M679.85,794.19c-30.45,0-47.03,18.48-51.17,39.71,4.22-21.23,20.85-39.71,51.17-39.71Z"/>
  <path class="cls-1" d="M1241.48,1374.62c9.55,0,15.25-6.39,16.81-13.82-1.65,7.43-7.41,13.82-16.81,13.82Z"/>
  <path class="cls-1" d="M1239.98,1338.19c-9.55,0-15.25,6.39-16.81,13.82,1.65-7.43,7.41-13.82,16.81-13.82Z"/>
  <path class="cls-1" d="M842.06,1536.34c14.61,58.74,63.18,99,117.28,110.89-54.29-12.52-102.98-53.4-117.28-110.89Z"/>
  <path class="cls-1" d="M840,1498.46c.29,1.33-3.91,7.01,2.06,37.88-5.99-30.93-1.76-36.57-2.06-37.88Z"/>
  <path class="cls-1" d="M996.53,1425.56c-28.33-48-83.45-56.6-120.62-18.2,37.2-38.42,92.38-29.66,120.62,18.2Z"/>
  <path class="cls-1" d="M874.35,1409.03c.5-.54.99-1.08,1.5-1.6-.5.52-1,1.07-1.5,1.6Z"/>
  <path class="cls-1" d="M1463.18,741.06c-3.35,1.95-5.5,3.64-7.52,7.05,1.83-3.09,4.1-4.93,7.52-7.05Z"/>
  <path class="cls-1" d="M1523.73,886.28c3.71-3.24,6.89-6.71,9.47-10.41-1.86.9-4.03,5-9.47,10.41Z"/>
  <path class="cls-1" d="M1187.44,806.3c-15.41,25.89-11.55,54.61,22.18,79.42,44.4,32.75,153.59,45.12,234.55,31.44-18.73,2.68-41.59,4.34-69.59,4.34-170.26,0-214.06-64.35-187.15-115.2Z"/>
  <path class="cls-1" d="M1246.97,797.22c18.41-11.49,44.96-20.89,77.05-25.51-29.54,3.81-56.96,12.27-77.05,25.51Z"/>
  <path class="cls-1" d="M1507.03,848.62c.54-35.63-33.27-59.49-78.1-71.09,38.46,11.44,78.65,34.22,78.1,71.09Z"/>
  <path class="cls-1" d="M1857.18,1387.38c-.03.72-.06,1.43-.09,2.14.03-.72.06-1.42.09-2.14Z"/>
  <path class="cls-1" d="M676.41,896.19c30.49,0,47.08-18.53,51.19-39.8-4.19,21.27-20.83,39.8-51.19,39.8Z"/>
  <path class="cls-1" d="M1300.75,827.28c-1.56,45.12,41.75,60.82,72.43,47.79-30.68,13-73.99-2.75-72.43-47.79Z"/>
  <path class="cls-1" d="M1330.89,782.7c30.65-12.57,73.41,3.25,71.86,48.01,1.55-44.84-41.21-60.61-71.86-48.01Z"/>
  <path class="cls-1" d="M1220.65,824.7c-1.42,2.68-2.63,5.45-3.62,8.33.58,2.92,1.49,5.67,2.68,8.27-1.63-5.42-1.25-11.02.94-16.6Z"/>
  <path class="cls-1" d="M1542.14,875.02c5.79-.8,11.32-2.21,16.62-3.53-5.37,1.31-11.09,2.72-16.62,3.53Z"/>
  <path class="cls-1" d="M1387.57,1045.72c76.54,0,120.61,101.26,58.62,158.16,62.03-56.93,17.94-158.16-58.62-158.16Z"/>
  <path class="cls-1" d="M1538.93,818.84c-.21-1.16.1-1.95,1.33-2.86-.69.34-1.39.69-2.08,1.02.27.63.52,1.25.75,1.84Z"/>
  <path class="cls-1" d="M1263.99,872.91c47.66,14.99,118.13,12.21,148.95,10.62-69.4,3.58-117.81-1.24-148.95-10.62Z"/>
  <path class="cls-1" d="M1623.44,835.29c.17.5.33,1.01.48,1.56-.15-.54-.31-1.06-.48-1.56Z"/>
  <path class="cls-1" d="M1572.23,798.84c-1.11.64-2.23,1.28-3.34,1.91,1.08-.61,2.19-1.25,3.34-1.91Z"/>
  <path class="cls-1" d="M1613.14,824.72c-6.44-1.74-15.24-.03-26.06,2.75,11.72-2.75,20.12-4.16,26.06-2.75Z"/>
  <path class="cls-1" d="M1547.07,836.89c-1.05.17-2.1.33-3.16.49.54.06,1.48-.17,3.16-.49Z"/>
  <path class="cls-1" d="M1501.98,773.37c.22.16.44.32.67.49-.23-.17-.45-.33-.67-.49Z"/>
  <path class="cls-1" d="M1492.46,766.99c2.46,1.59,5.36,3.39,8.77,5.83-3.5-2.52-6.43-4.32-8.77-5.83Z"/>
  <path class="cls-1" d="M1542.9,837.43s0,.06,0,.09c.03,0,.06,0,.09,0-.05,0-.08-.03-.09-.08Z"/>
  <path class="cls-1" d="M1543.15,835.81c.02.07.03.12.04.19.01.06.03.13.05.21.1.47.18.78.21.96,0,0,0,0,0,0-.17-1.71-.39-3.26-.62-4.66.19,1.44.24,2.49.3,3.24,0,.02.02.04.03.06Z"/>
  <path class="cls-1" d="M1543.45,837.36s.01-.1,0-.19c-.02-.02-.03-.04-.04-.06.01.08.03.16.04.25Z"/>
  <path class="cls-1" d="M1543.36,837.46c-.06.01-.12.02-.17.03.07,0,.12-.02.17-.03Z"/>
  <path class="cls-1" d="M1543.13,835.75c-.22-.51-.34-.81-.38-.75.21.43.31.57.38.77,0,0,0-.01,0-.02Z"/>
  <path class="cls-1" d="M1542.87,837.03c0-.36-.01-.98-.12-2.02-.04.09.02.68.12,2.02Z"/>
  <path class="cls-1" d="M1452.17,746.79c-67.67-25.13-142.47-17.1-196.69,6.49,60.56-25.63,134.75-29.44,196.69-6.49Z"/>
  <path class="cls-1" d="M1137.86,1286.07c10.39-1.28,15.37-9.15,15.57-17.24-.23,8.09-5.24,15.96-15.57,17.24Z"/>
  <path class="cls-1" d="M924.31,709.11c0,.41,0,.81-.02,1.22.02-.4.03-.81.02-1.22Z"/>
  <path class="cls-1" d="M920.48,698.7s-.02-.02-.02-.03c-.02-.02-.05-.06-.07-.08.03.04.06.08.09.11Z"/>
  <path class="cls-1" d="M922.74,702.59c-.06-.14-.12-.28-.19-.43.06.14.13.28.19.43Z"/>
  <path class="cls-1" d="M1907.69,1369.33c-1.65.24-3.3.48-4.96.7,1.65-.23,3.31-.46,4.96-.7Z"/>
  <path class="cls-1" d="M916.06,692s-.01-.02-.02-.02c-13.15-17.82-44.18-36.77-85.94-50.94,41.64,14.22,72.63,33.19,85.96,50.96Z"/>
  <path class="cls-1" d="M922.29,701.62s-.01-.03-.02-.04c0,.01.01.03.02.04Z"/>
  <path class="cls-1" d="M918.58,722.93s-.02.03-.04.04c.01-.01.02-.03.04-.04Z"/>
  <path class="cls-1" d="M920.43,698.63c-.41-.59-1.04-1.26-1.68-1.83.5.46,1.11,1.09,1.68,1.83Z"/>
  <path class="cls-1" d="M920.24,698.39s0,0,0,0c0,0,0,0,0,0Z"/>
  <path class="cls-1" d="M469.39,683.56c-7.9,6.31-8.82,15.64-5.27,22.67-3.49-7.08-2.53-16.44,5.27-22.67Z"/>
  <path class="cls-1" d="M1915.27,1368.14c-.9.15-1.8.3-2.71.45.9-.14,1.8-.3,2.71-.45Z"/>
  <polygon class="cls-1" points="917.67 695.94 917.67 695.94 917.67 695.94 917.67 695.94"/>
  <path class="cls-1" d="M927.01,789.1c11.93,46.56,16.21,112.3-8.56,178.25,28.29-75.33,21.84-136.19,8.56-178.25Z"/>
  <path class="cls-1" d="M913.77,1293.14c74.13,11.45,149.58,2.02,224.09-7.07-74.49,9.08-149.96,18.52-224.09,7.07Z"/>
  <path class="cls-1" d="M1871.64,1373.92c-1.36.17-2.72.35-4.07.53,1.35-.18,2.71-.36,4.07-.53Z"/>
  <path class="cls-1" d="M751.04,796.68c-29.17-16.49-66.11-24.02-97.68-24.38,3.62.08,7.04.33,10.23.76,28.15,2.25,60.86,9.03,87.45,23.62Z"/>
  <path class="cls-1" d="M1864.74,1374.83c-2.37.32-4.73.66-7.06,1.02,2.34-.36,4.7-.69,7.06-1.02Z"/>
  <path class="cls-1" d="M913.04,726.76c-.28.12-.56.24-.84.35.28-.11.56-.22.84-.35Z"/>
  <path class="cls-1" d="M910.91,727.55c-.15.04-.3.09-.45.13.15-.04.3-.09.45-.13Z"/>
  <path class="cls-1" d="M1857.68,1375.85c-.15,3.34-.29,6.61-.43,9.85.14-3.24.28-6.51.43-9.85Z"/>
  <path class="cls-1" d="M909.45,727.92s-.03,0-.05,0c.02,0,.03,0,.05,0Z"/>
  <path class="cls-1" d="M1898.88,1370.55c-1.21.16-2.42.31-3.63.47,1.21-.15,2.42-.31,3.63-.47Z"/>
  <path class="cls-1" d="M1875.94,1373.38c-.19.02-.38.05-.56.07.19-.02.38-.05.56-.07Z"/>
  <path class="cls-1" d="M675.46,1217.37c-.93.85-1.87,1.68-2.81,2.49.95-.81,1.88-1.64,2.81-2.49Z"/>
  <path class="cls-1" d="M899.1,726.67c-.2-.09-.39-.17-.59-.27,0,0,.02.02.03.03.38.18.75.35,1.13.5-.19-.09-.38-.17-.56-.26Z"/>
  <path class="cls-1" d="M905.5,728.22c.15,0,.3.02.45.02.23,0,.46,0,.69-.01.33,0,.67-.03,1-.06.23-.02.47-.04.7-.07.44-.06.86-.13,1.29-.22.21-.05.42-.1.63-.15.4-.1.8-.21,1.19-.35.09-.03.19-.06.28-.09.52-.18,1.02-.39,1.52-.63.06-.03.11-.05.17-.08.63-.3,1.24-.65,1.83-1.03-4.32,2.67-9.71,3.54-15.14,1.52.37.15.76.29,1.17.42,1.43.43,2.85.67,4.24.73Z"/>
  <path class="cls-1" d="M1890.9,1371.56c-.8.1-1.59.2-2.38.29.79-.1,1.59-.2,2.38-.29Z"/>
  <path class="cls-1" d="M907.29,728.2c-.13,0-.25.02-.38.02.13,0,.25-.01.38-.02Z"/>
  <path class="cls-1" d="M522.67,1147.25c-1.88,54.84,42.54,93.08,89.83,94.21-47.29-1.14-91.71-39.39-89.83-94.21Z"/>
  <path class="cls-1" d="M614.25,1059.25c-45.49,1.05-78.05,29.89-88.25,66.44,10.23-36.66,42.96-65.39,88.25-66.44Z"/>
  <path class="cls-1" d="M390.9,854.94c-1.55-.35-3.11-.7-4.67-1.06,1.55.36,3.1.71,4.67,1.06Z"/>
  <path class="cls-1" d="M652.37,736.4c.5,0,.99,0,1.48,0-.49,0-.99,0-1.48,0Z"/>
  <path class="cls-1" d="M511,778.32c45.08-29.24,94.49-41.8,140.89-41.92-46.25.04-95.58,12.52-140.89,41.92Z"/>
  <path class="cls-1" d="M596.56,780.6c17.2-4.71,34.27-7.65,48.98-8.23-15.41.47-31.46,2.97-48.98,8.23Z"/>
  <path class="cls-1" d="M474.02,885.31c-5.99-8.8-8.03-15.95-9.48-19.16,2.1,6.86,5.31,13.24,9.48,19.16Z"/>
  <path class="cls-1" d="M616.83,1059.22c76.53,0,120.61,101.26,58.62,158.16,62.03-56.93,17.94-158.16-58.62-158.16Z"/>
  <path class="cls-1" d="M457.27,864.23c-11.04-.28-21.92-1.33-32.77-2.92,10.88,1.61,21.88,2.68,32.77,2.92Z"/>
  <path class="cls-1" d="M614.25,1241.48c-.38,0-.75,0-1.13,0,.38,0,.75,0,1.13,0Z"/>
  <path class="cls-1" d="M525.51,1127.53c.15-.59.31-1.18.47-1.76-.16.59-.32,1.17-.47,1.76Z"/>
  <path class="cls-1" d="M522.85,1144.03c.03-.39.05-.78.08-1.16-.03.39-.05.78-.08,1.16Z"/>
  <path class="cls-1" d="M459.83,864.28c-.42,0-.85,0-1.27-.01.42,0,.84,0,1.27.01Z"/>
  <path class="cls-1" d="M523.29,1139.41c.04-.3.07-.59.1-.89-.04.29-.07.59-.1.89Z"/>
  <path class="cls-1" d="M523.04,1141.7c.03-.34.06-.67.1-1.01-.04.34-.06.67-.1,1.01Z"/>
  <path class="cls-1" d="M522.67,1147.25c.03-.73.06-1.47.1-2.2-.04.73-.08,1.46-.1,2.2Z"/>
  <path class="cls-1" d="M669.74,906.77c61.69-1.76,118.91-17.31,130.13-50.68-10.34,30.75-68.67,47.44-130.13,50.68Z"/>
  <path class="cls-1" d="M523.57,1137.24c.04-.29.08-.58.12-.86-.04.29-.08.58-.12.86Z"/>
  <path class="cls-1" d="M524.63,1131.28c.09-.44.18-.87.28-1.31-.1.43-.19.87-.28,1.31Z"/>
  <path class="cls-1" d="M524.25,1133.22c.07-.38.14-.75.22-1.13-.08.38-.14.75-.22,1.13Z"/>
  <path class="cls-1" d="M525.07,1129.35c.12-.5.23-.99.36-1.49-.12.49-.24.99-.36,1.49Z"/>
  <path class="cls-1" d="M523.9,1135.18c.05-.32.1-.64.16-.95-.06.32-.11.63-.16.95Z"/>
  <path class="cls-7" d="M291.09,931.36c-.17.42-.34.84-.52,1.26-.13.3-.26.6-.39.9-7.32,16.59-20.35,30.99-38.6,39.89-.12.06-.24.12-.36.18-.8.39-1.62.76-2.44,1.13-.2.09-.4.18-.61.27-.97.42-1.96.84-2.96,1.23-6.49,76.71-9.66,76.39-9.84,92.39.95,23.91,2.28,54.1,3.99,92.27,6.25-13.69,29.59-54.72,46.51-69.6.62-.54,1.22-1.05,1.82-1.52,2.09-1.64,4.06-2.83,5.87-3.45.72-.18,1.42-.33,2.1-.46.02,0,.03,0,.05,0,36.31-6.9,31.98,47.31,24.54,91.81-.22,1.3-.44,2.6-.66,3.88-.06.37-.13.75-.19,1.12-.37,2.14-.75,4.25-1.13,6.32-.2,1.12-.41,2.23-.61,3.32-.05.26-.09.51-.14.76-.53,2.85-1.05,5.62-1.56,8.28,6.64.9,19.58,4.69,33.68,9.27-.47-2.05-.93-4.08-1.38-6.1-.09-.4-.18-.8-.26-1.2-8.4-37.85-13.36-69.92-16.08-99.55-.04-.46-.08-.92-.12-1.37-.1-1.09-.2-2.17-.29-3.25-.12-1.4-.23-2.8-.34-4.19,0-.12-.02-.25-.03-.38-5.09-65.23.33-119.85,2.7-200.6-11.6,2-24.12,2.65-36.82,2.59.65,12.05-1.45,23.92-5.93,34.82Z"/>
  <path class="cls-7" d="M1744.07,748.16c.42.05,4.83-3.9,19.06-15.96-5.13,2.38-10,5.22-14.56,8.75-1.85,3.65-4.65,6.95-4.49,7.21Z"/>
  <path class="cls-7" d="M518.32,1621.76c-41.52-74.05-77.05-151.05-103.93-216.34-16.59-38.99-31.52-78.69-44.13-119.01-.81-2.56-1.58-5.03-2.3-7.4-11.55,1.11-23,2.39-34.22,4.82-.13.03-.26.05-.38.08-1.68.37-3.36.76-5.03,1.18-3.17,100.46-.32,178.91-33.53,178.91-13.55,0-21.11-12.54-27.13-26.38-4.14-9.48-7.55-19.57-11.65-26.62-10.44-23.38-20.56-47.05-29.08-71.25-1.23.78-2.46,1.55-3.69,2.33-17.13,10.83-30.93,19.65-42.2,26.81C77.2,1936.18.63,2066.23,0,2135.73c2.25,21.62,27.91,34.78,47.44,26.72,32-17.31,53.44-49.72,80.63-73.5,57.22-55.31,116.87-108.03,173.69-163.78-22.72,250.73-18.82,271.05,4.44,288.47,49.24,32.73,85.59-42.84,183.91-205.41,1.03,56.31-24.56,188.19,32.28,218.38,72.59,22.62,102.03-98.56,129.88-147.47,29.91-65.29,51.6-133.49,70.54-202.54-1.44-.98-2.88-1.99-4.31-3.01-86.17-60.59-147.79-153.18-200.16-251.84Z"/>
  <path class="cls-7" d="M1856.29,1279.56c4.21,2.12,8.43,4.23,12.66,6.32.74.37,1.47.73,2.2,1.09,3.55,1.76,7.11,3.5,10.67,5.23,1.29.63,2.56,1.24,3.8,1.84,3.61,1.75,7.24,3.48,10.87,5.2.72.34,1.43.67,2.12,1,4.34,2.04,8.69,4.07,13.05,6.06-4.8-29.61-9.49-59.23-13.81-88.9-.6-3.72-.31-6.17-1.4-5.01-8.57,15.23-17.6,30.45-25.75,43.85-4.12,6.79-8.88,14.51-14.4,23.31Z"/>
  <path class="cls-7" d="M1752.5,1139.94c.51-46.55,1.16-103.19,1.36-106.87-1.35-.43-2.64-.88-3.9-1.34-.07-.03-.15-.05-.22-.08-1.24-.46-2.44-.93-3.59-1.42-.07-.03-.13-.06-.2-.08-1.14-.49-2.25-.98-3.31-1.49-.3-.14-.59-.29-.88-.43-.6-.3-1.19-.6-1.77-.9-11.61-6.03-20.55-14.18-27.03-23.59-1.54,7.19-3.13,14.39-4.78,21.58-4.87,24.69-15.92,72.66-45.15,159.23,29.99,3.41,59.61,9.22,88.82,16.72.06-9.7.32-34.05.65-61.31Z"/>
  <path class="cls-7" d="M1793.41,1036.69c-.89.14-1.78.27-2.66.37-.86,19.71-2.03,100.92-2.46,143.08,0,.21,0,.43,0,.64,0,.25,0,.5,0,.75-.05,4.7-.09,8.86-.11,12.33,0,.72-.01,1.43-.02,2.09.57-.46,1.17-.93,1.77-1.41,20.18-16.04,39.41-28.8,55.46-38.68,13.25-8.49,26.5-16.49,37.78-22.64-8.91-47.5-19.02-94.74-30.47-141.58-9.53,22.58-29.38,40.71-59.28,45.04Z"/>
  <path class="cls-7" d="M1920.26,1367.27c-1.66.3-3.32.59-4.99.87-.9.15-1.8.3-2.71.45-1.62.26-3.25.5-4.87.74-1.65.24-3.3.48-4.96.7-1.28.18-2.57.35-3.85.52-1.21.16-2.42.31-3.63.47-1.45.18-2.9.37-4.35.54-.8.1-1.59.2-2.38.29-4.21.51-8.41,1.01-12.57,1.53-.19.02-.38.05-.56.07-1.25.15-2.49.31-3.74.47-1.36.17-2.71.35-4.07.53-.95.13-1.89.25-2.83.38-2.36.32-4.71.66-7.06,1.02-.15,3.33-.29,6.61-.43,9.85-.02.56-.05,1.12-.07,1.68-.03.72-.06,1.43-.09,2.14-.05,1.2-.1,2.4-.15,3.59,0,.05,0,.11,0,.16-4.73,113.76-3.31,163.54-28.35,163.54-14.43,0-23.13-13.82-32.32-29.87-3.06-5.35-6.17-10.92-9.53-16.29-19.54-35.1-39.01-70.45-57.02-106.33-30.79,9.96-106.87,36.95-131.77,33.83-31.28-9.89-14.16-33.92.3-50.54,1.44-5.56,70.58-85.68,74.44-89.92-2.4-3.58-4.82-7.15-7.25-10.71-.71-1.03-1.41-2.06-2.11-3.08-1.62-2.37-3.26-4.74-4.89-7.1-1.57-2.26-3.11-4.48-4.63-6.65-1.26-1.8-2.52-3.6-3.79-5.39-1.13-1.61-2.25-3.18-3.35-4.73-2.4-3.37-4.8-6.74-7.23-10.08-1.11,2.9-2.24,5.8-3.38,8.71-45.61,116.97-102.96,225.77-166.17,312.11-177.6,254.42-240.89,220.84-191.12,254.69,12.94,82.63,27.72,165,36.81,248.16,8.91,39.91,3.91,174.94,45.09,183.94,57.03,20,76.25-98.81,102.28-134.31,31.84-58.47,68.47-114.31,102.81-171.34,19.81,84.19,33.12,171.5,67.44,251.25,14.06,25,50.88,22.06,65.72-.56,28.66-64.75,33.44-139,47.03-208.28,139.86,217.3,141.18,224.81,175.91,227.5,64.72-12.19,48.5-104.28,53.09-154.28,1.42-356.18,8.21-331.64-53.34-700.48-.45.09-.91.16-1.37.24Z"/>
  <path class="cls-2" d="M1507.03,848.62c.56-36.87-39.63-59.65-78.1-71.09-32.17-8.32-70.01-10.33-104.91-5.83-32.09,4.63-58.64,14.02-77.05,25.51-11.51,7.59-20.62,16.74-26.32,27.49-2.19,5.58-2.57,11.18-.94,16.6,6.85,15.03,23.36,25.03,44.28,31.61,31.14,9.37,79.55,14.19,148.95,10.62,30.97-3.81,76.62-5.19,94.09-34.91ZM1402.75,830.72c-.77,22.7-13.42,37.5-29.57,44.35-30.68,13.03-73.99-2.67-72.43-47.79.78-22.96,13.72-37.84,30.14-44.58,30.65-12.6,73.41,3.17,71.86,48.01Z"/>
  <path class="cls-2" d="M1543.13,835.77c-.07-.2-.17-.34-.38-.77,0,0,0,0,0,0,.11,1.03.11,1.65.12,2.02,0,.13.02.26.03.4.02.05.05.08.09.08.08,0,.15-.02.2-.02.05,0,.1-.02.17-.03.05-.02.08-.05.09-.1-.02-.09-.03-.17-.04-.25-.17-.24-.23-.67-.28-1.34Z"/>
  <path class="cls-2" d="M1543.2,836c.02.07.03.14.05.21-.02-.08-.03-.15-.05-.21Z"/>
  <path class="cls-2" d="M1624.97,1230.3s-.01-.02-.02-.03c-1.63-2.16-3.28-4.32-4.94-6.46-10.16-9.64-5.71-22.9,3.31-28.7,2.32-7.57,7.69-10.75,14.44-11.81.04,0,.09-.01.13-.02.37-.06.75-.11,1.13-.16.31-.04.63-.07.95-.1.11,0,.22-.02.33-.03,7.09-.6,15.29.69,22.73,1.54,17.72-52.48,32.94-105.95,45.15-159.23,1.65-7.2,3.24-14.4,4.78-21.58-6.71-9.75-10.79-20.85-12.45-32.33-3.01-17.06-.1-34.12,7.02-48.94,11.12-24.71,33.53-43.84,64.15-45.01.99-.04,1.98-.07,2.98-.07,1.66,0,3.3.04,4.93.11.03,0,.07,0,.1,0,19.58.82,37,6.54,51.04,18.23.11.09.21.18.32.28.55.47,1.1.93,1.64,1.42,5.5,4.84,10.14,10.36,13.93,16.36,185.41-67.14,198-209.54,87.9-286.66-31.79-26.21-106.21-27.88-171.39-10.76-1.8,27.43-5.38,55.98-12.73,92-.36,1.78-.73,3.57-1.1,5.35-3.91,24-12.59,58.19-43.88,53.59-8.1-.79-13.93-3.89-18.54-8.88-6.13-6.37-9.84-15.34-12.69-24.36-3.31-9.31-6.59-20.19-11.03-32.15-11.32-28.52-24.38-50.7-39.5-68.85-1.85-2.18-3.77-4.36-5.77-6.54-10-10.88-20.94-20.44-32.54-29.05-37.41-27.22-84.25-45.28-143.11-73.86-85.28-41.29-146.05-66.07-190.88-85.77-68.05-29.76-98.25-47.03-122.87-92.7-.28-.65-.54-1.3-.78-1.96-.08-.2-.15-.41-.22-.61-.16-.46-.32-.92-.47-1.38-.07-.23-.14-.45-.21-.68-.14-.45-.27-.91-.39-1.36-.06-.21-.12-.42-.17-.63-.13-.52-.26-1.04-.37-1.57-.03-.14-.06-.27-.09-.41-.29-1.37-.51-2.75-.68-4.14,0-.05-.01-.1-.02-.14-.08-.65-.14-1.3-.19-1.95,0-.07,0-.14-.01-.21-.05-.66-.08-1.31-.11-1.98v-.06c-.29-8.44,1.41-17.32,4.4-26.79,2.35-7.61,5.24-15.12,7.73-22.42-8.82,15.64-18.92,31.27-30.42,46.62-4.06,6.61-11.02,9.15-17.56,8.31-1.71-.18-3.39-.59-4.99-1.28-10.28-4.35-13.23-9.36-11.44-16.62-35.82,37.1-82.14,33.37-129.46,31.69-16.94-.59-33.98-.93-50.64.93-227.1,17.21-292.89,96.12-360.62,166.81-23.12,24.16-46.52,47.38-76.75,66.87-.93.6-1.87,1.2-2.82,1.79-.74.5-1.52,1.02-2.31,1.54-28.45,18.92-52.62,28.83-72.1,32.4-17.34,3.74-33.54,3.15-44.47-5.85-8.83-5.98-13.34-14.99-13.23-24.92-259.21-92.61-409.96,179.54-176.8,281.59,2.41-5.51,5.43-10.64,8.95-15.34,12.85-18.12,31.33-28.35,50.82-31.44,21.35-3.97,44.48.56,63.92,16.26,11.67,9.07,20.98,21.57,26.04,37.21,2.22,6.68,3.53,13.57,3.94,20.48.02.21.04.42.06.64,12.7.06,25.22-.59,36.82-2.59-2.38,81.05-7.77,135.61-2.7,200.6,0,.12.02.25.03.38.11,1.39.22,2.79.34,4.19.09,1.08.19,2.17.29,3.25.04.46.08.91.12,1.37,2.72,29.62,7.68,61.7,16.08,99.55.09.4.17.8.26,1.2.45,2.02.91,4.05,1.38,6.1.02,0,.04.01.06.02,17.28,5.45,34.36,11.62,51.32,17.94.71.26,1.36.51,1.96.73,23.91,6.16,35.88,33.62,8.44,44.5-1.78.34-3.55.65-5.33.94-1.01.17-2.03.31-3.04.46-.75.11-1.49.23-2.24.34-1.36.19-2.71.37-4.07.54-.39.05-.79.11-1.18.16-1.54.19-3.07.37-4.61.54-.21.02-.41.05-.62.07-1.62.18-3.23.35-4.84.51-.13.01-.27.03-.4.04-1.61.16-3.21.32-4.82.47-.17.02-.35.03-.52.05-1.41.13-2.81.26-4.22.39-2.53.24-5.06.47-7.58.71.72,2.37,1.5,4.84,2.3,7.4,9.34,29.48,24.4,71.08,44.13,119.01,26.87,65.28,62.41,142.29,103.93,216.34,57.58,102.68,126.66,199.67,200.16,251.84,1.44,1.02,2.87,2.02,4.31,3.01,356.06,243.61,754.77-212.95,913.29-617.95,1.14-2.9,2.26-5.81,3.38-8.71-4.78-6.58-9.58-13.15-14.48-19.64ZM1774.87,710.44c12.45-15.06,44.73-24.26,75.66-20.08.1.01.2.02.31.04.33.05.67.1,1,.15,22.94,3.36,44.97,14.16,57.42,35.6.47.8.92,1.62,1.36,2.45,23.56,38.97,11.5,85.5-25.06,111.38-11.88,9.34-25.25,16.75-38.38,24.22-.53.3-1.08.58-1.63.82-3.87,1.68-8.17,1.84-12.12.71-.01,0-.02,0-.04,0-.44-.13-.88-.28-1.31-.44-.12-.04-.24-.08-.36-.12-.32-.13-.63-.28-.95-.42-.22-.1-.45-.19-.67-.3-.22-.11-.42-.24-.64-.36-.3-.17-.61-.33-.91-.51-.13-.08-.26-.18-.39-.27-.36-.24-.72-.48-1.07-.74-.06-.05-.12-.11-.19-.16-.4-.32-.8-.65-1.17-1-.05-.04-.09-.1-.13-.14-.38-.37-.76-.75-1.11-1.15-.19-.22-.36-.46-.54-.69-.19-.25-.4-.48-.58-.74-.35-.5-.68-1.02-.98-1.56-7.37-13.32.12-20.21,12.7-27.94,11.27-6.93,26.62-14.53,39.02-28.03,3.79-3.56,6.66-7.69,8.67-12.15,14.96-33.24-18.74-84.54-80.36-55.31-15.16,13.66-38.41-5.72-27.56-23.22ZM1763.13,732.2c-14.64,12.4-18.88,16.27-19.06,15.96-.15-.26,2.65-3.56,4.49-7.21,4.56-3.53,9.44-6.37,14.56-8.75ZM279.73,692.59c-1.3-.55-2.6-1.07-3.9-1.58-.15-.06-.3-.11-.45-.17-1.15-.44-2.3-.87-3.44-1.28-.17-.06-.35-.12-.52-.18-80.37-28.36-157.38,22.23-133.4,69.83,6.21,12.1-1.1,22.85-10.75,26.07-7.32,2.45-15.99.56-21.12-8.39-46.97-101.94,95.88-155.09,174.41-123.06,11,4.03,25.62,7.84,29.03,20.66,4.38,16.94-16.88,29.97-29.84,18.09ZM1139.57,642.66h.03s-.03,0-.06.03l.03-.03ZM1213.81,639.28c93.78-43.22,200.75-41.94,300.28-22.34,23.34,4.72,17.63,39.5-6.16,35.94-2.87-.57-5.71-1.11-8.55-1.64-114.03-21.04-209.49-5.25-271.8,20.63-34.54,14.64-58.03,31.94-69.11,45.86-.08.1-.16.21-.24.31-1.7,2.93-7.31,10.2-16.04,10.6-.01,0-.03,0-.04,0-.47.02-.94.02-1.42,0-.12,0-.24-.02-.36-.03-.39-.02-.77-.05-1.17-.1-.25-.03-.51-.09-.77-.13-.27-.05-.54-.08-.82-.15-.54-.12-1.09-.27-1.65-.44-48.47-26.94,54.44-80.25,77.84-88.5ZM469.39,683.56c121.43-82.3,267.68-74.28,360.72-42.52,41.76,14.17,72.79,33.12,85.94,50.94h0c-2.42-3.24-1.11-2.58,2.43,1.57,6.98,6.44,25.29,32.45,38.97,71.81,12.06,33.84,20.49,77.79,14.61,129.21-.07.59-.14,1.19-.22,1.78-.16,1.3-.31,2.6-.49,3.92-.27,2.02-.56,4.05-.87,6.09-28.52,236.36-330.41,388.38,145.07,345.22,1.91-.17,3.84-.35,5.78-.53,0,0,0,0,0,0,.63-.06,1.27-.12,1.9-.18,3.19-.3,6.42-.6,9.68-.92,13.62-1.69,20.8,8.77,20.51,18.89-.2,8.09-5.19,15.95-15.57,17.24-74.51,9.09-149.96,18.52-224.09,7.07-2.43-.38-4.86-.77-7.28-1.19-78.53-13.09-117.12-65.03-78.94-140.28,28.44-62.38,68.41-119.31,90.91-184.31,24.77-65.95,20.48-131.69,8.56-178.25-15.57-49.3-40.52-72.78-29.93-63.44.49.28.97.53,1.46.77,0,0-.02-.02-.03-.03-.48-.23-.96-.47-1.43-.75-.54-.46-1.05-.92-1.55-1.4-.01,0-.03-.02-.05-.03-.02-.03-.04-.05-.06-.08-2.82-2.72-5.1-5.72-7.43-8.73-6.46-6.68-14.45-13.01-23.73-18.89-47.3-26.26-105.68-40.65-165.88-41.53-.22,0-.45,0-.67-.01-.04,0-.08,0-.12,0-58.26-.45-121.05,11.23-177.55,40.37-.42.22-.84.44-1.27.66-1.72.9-3.44,1.81-5.16,2.75-.67.36-1.34.73-2.01,1.1-1.54.85-3.08,1.72-4.61,2.6-.64.37-1.27.73-1.91,1.1-2.11,1.23-4.21,2.48-6.3,3.77-15.94,14.37-29.75,8.9-34.68-1.11-3.54-7.04-2.63-16.37,5.27-22.67ZM675.46,1217.37c-.93.85-1.87,1.68-2.81,2.49-17.65,15.04-38.24,21.71-58.4,21.61-.38,0-.75,0-1.13,0-.21,0-.41-.02-.62-.02-47.28-1.13-91.71-39.36-89.83-94.21.03-.73.06-1.47.1-2.2.02-.34.05-.68.07-1.02.03-.39.05-.78.08-1.16.03-.39.07-.78.11-1.17.03-.34.06-.67.1-1.01.05-.43.1-.85.15-1.28.04-.3.07-.59.1-.89.06-.43.12-.86.18-1.29.04-.29.08-.58.12-.86.06-.4.13-.79.2-1.19.05-.32.1-.64.16-.95.06-.34.13-.67.19-1.01.07-.38.14-.75.22-1.13.05-.27.12-.54.17-.81.09-.44.18-.87.28-1.31.05-.21.1-.42.15-.62.12-.5.23-.99.36-1.49.03-.11.06-.22.09-.33.15-.59.31-1.18.47-1.76,0-.03.02-.05.02-.08,10.2-36.55,42.76-65.39,88.25-66.44.86-.02,1.72-.03,2.58-.03,76.57,0,120.65,101.22,58.62,158.16ZM599.29,941.21c-7.8-.76-15.22-1.72-22.14-2.86-65.27-12.86-91.56-36.03-103.13-53.03-4.17-5.92-7.38-12.3-9.48-19.16-.53-1.18-.99-1.84-1.53-1.84-1.06,0-2.12-.02-3.18-.03-.42,0-.84,0-1.27-.01-.43,0-.86-.02-1.29-.03-10.89-.24-21.88-1.31-32.77-2.92-11.21-1.65-22.37-3.86-33.61-6.38-1.56-.35-3.12-.7-4.67-1.06-22.88-6.75-13.59-40.75,9.69-35.16,23.4,5.3,46.5,9.48,70.41,8.5,2.97-7.48,7.07-14.33,12.08-20.61-16.05-7.93-37.96-17.44-28.05-37.11,16.29-22.48,37.91,4.6,57.42,10.94,1.07-.72,2.14-1.42,3.22-2.12,45.31-29.4,94.64-41.88,140.89-41.92.16,0,.32,0,.48,0,.49,0,.99,0,1.48,0,93.41.46,174.19,51.22,182.27,117.41,1.44,38.56-35.14,62.75-83.7,76.1-45.06,13.34-101.78,17.45-153.13,11.29ZM1214.97,1484.87c-24.34,8.81-49.25,16.09-74.53,21.69-20.8,121.3-106.28,157.92-181.1,140.67-54.09-11.89-102.66-52.15-117.28-110.89-5.98-30.87-1.78-36.55-2.06-37.88-.39-1.68-8.24,3.76-54.66-27.9-19.75-13.25-1.03-43.09,19.56-30.78,13.03,8.84,26.84,16.16,41.41,22.19.42-1.47.85-2.93,1.3-4.36,5.8-18.53,13.93-33.45,23.51-44.92.05-.05.09-.11.14-.17.49-.59.99-1.15,1.49-1.72.26-.29.51-.6.77-.89.27-.3.55-.59.82-.88.5-.54.99-1.08,1.5-1.6.02-.02.05-.04.07-.07,37.17-38.4,92.29-29.8,120.62,18.2,51.09-91.12,148.75-47.53,157.44,39.78,16.63-4.31,32.72-9.19,48.03-14.56,22.41-7.91,35.25,25.06,12.97,34.09ZM1241.48,1374.62c-14.95,0-20.6-12.31-18.31-22.62,1.56-7.43,7.26-13.82,16.81-13.82,14.95,0,20.6,12.31,18.31,22.62-1.56,7.43-7.26,13.82-16.81,13.82ZM1446.2,1203.87c-.93.85-1.87,1.68-2.81,2.49-17.65,15.04-38.24,21.71-58.4,21.61-.38,0-.75,0-1.13,0-.22,0-.43-.02-.65-.02-47.27-1.15-91.67-39.38-89.8-94.21.03-.73.06-1.47.1-2.2.02-.34.05-.68.07-1.02.03-.39.05-.78.08-1.16.03-.39.07-.78.11-1.17.03-.34.06-.67.1-1.01.05-.43.1-.85.15-1.28.04-.3.07-.59.1-.89.06-.43.12-.86.18-1.29.04-.29.08-.58.12-.86.06-.4.13-.79.2-1.19.05-.32.1-.64.16-.95.06-.34.13-.67.19-1.01.07-.38.14-.75.22-1.13.05-.27.12-.54.17-.81.09-.44.18-.87.28-1.31.05-.21.1-.42.15-.62.12-.5.23-.99.36-1.49.03-.11.06-.22.09-.33.15-.59.31-1.18.47-1.76,0-.03.02-.05.02-.08,10.2-36.55,42.76-65.39,88.25-66.44.86-.02,1.72-.03,2.58-.03,76.57,0,120.65,101.22,58.62,158.16ZM1533.95,875.69c-.25,0-.49.07-.74.19-2.58,3.7-5.76,7.17-9.47,10.41-9.86,9.79-30.49,23.85-79.55,30.88-80.96,13.67-190.15,1.3-234.55-31.44-33.73-24.81-37.59-53.53-22.18-79.42,7.3-13.79,19.79-26.58,36.37-36.83,9.99-6.11,20.6-11.51,31.66-16.19,54.23-23.58,129.02-31.62,196.69-6.49,1.17.43,2.33.88,3.49,1.33,2.02-3.41,4.17-5.1,7.52-7.05,8.51-5.27,24.15-12.25,58.04-44.41,17.38-16.44,42.34,8.53,25.78,25.78-9.63,7.88-33.13,31.96-54.54,44.55,2.34,1.51,5.26,3.31,8.77,5.83.25.18.5.37.75.55.22.16.44.32.67.49,4.12,3.06,8.93,7.06,14.54,12.71,12.47-5.88,24.72-12.2,36.63-19.2,20.94-11.53,38.75,18.94,18.41,31.47-1.15.67-2.26,1.3-3.34,1.91-9.62,5.48-19.27,10.62-28.63,15.22-1.23.92-1.54,1.7-1.33,2.86,2.6,6.52,3.53,10.85,3.9,13.68.24,1.41.45,2.96.62,4.66.11.11.25.18.45.2,1.06-.16,2.12-.32,3.16-.49.13-.03.26-.05.4-.08,16.21-3.44,29.21-6.91,39.6-9.35,10.82-2.78,19.62-4.49,26.06-2.75,5.01,1.19,8.28,4.41,10.3,10.57.17.5.33,1.02.48,1.56,5.41,28.37-34.47,25.28-52.41,31.97-3.75.5-8.12,1.55-12.75,2.68-5.3,1.32-10.83,2.73-16.62,3.53-2.8.41-5.56.67-8.19.67Z"/>
  <path class="cls-2" d="M525.44,882.39c32.98,16.89,90.35,25.91,144.31,24.38,61.46-3.24,119.79-19.92,130.13-50.68-6.3-26.45-24.97-45.93-48.83-59.41-26.59-14.58-59.29-21.36-87.45-23.62-3.19-.43-6.62-.68-10.23-.76-.81,0-1.62-.02-2.42-.02-1.79,0-3.59.04-5.4.09-14.71.58-31.78,3.52-48.98,8.23-22.26,6.68-46.88,17.81-75.52,34.83-2.24,1.72-4.29,3.43-6.18,5.11-21.35,19.43-24.9,41.91,10.58,61.85ZM679.85,794.19c36.46,0,53.39,33.57,47.75,62.2-4.11,21.27-20.7,39.8-51.19,39.8-36.5,0-53.43-33.64-47.74-62.29,4.14-21.23,20.73-39.71,51.17-39.71Z"/>
  <path class="cls-9" d="M916.04,691.98h0s.01.02.02.02c0,0-.01-.01-.02-.02Z"/>
  <path class="cls-9" d="M918.75,696.8c-.38-.34-.75-.64-1.08-.86,0,0,0,0,0,0,1.46,1.21,2.13,1.93,2.56,2.45,0,0,0,0,0,0,.05.07.11.13.15.19.02.03.05.06.07.08,0-.01-.02-.02-.03-.04-.57-.74-1.18-1.37-1.68-1.83Z"/>
  <path class="cls-9" d="M913.57,726.51c.64-.32,1.26-.68,1.86-1.07-.07.04-.13.08-.2.12-.59.37-1.2.72-1.83,1.03.05-.03.11-.05.16-.07Z"/>
  <path class="cls-9" d="M916.24,724.9c.08-.06.17-.12.25-.18-.08.06-.17.12-.25.18Z"/>
  <path class="cls-9" d="M895.43,724.16s.03.04.05.07c.01,0,.03.02.05.03-.03-.03-.07-.07-.1-.1Z"/>
  <path class="cls-9" d="M910.46,727.68c.15-.04.3-.09.45-.13.18-.05.36-.11.53-.17-.39.13-.79.24-1.19.35.07-.02.14-.03.21-.05Z"/>
  <path class="cls-9" d="M901.26,727.49c-.41-.13-.8-.27-1.17-.42-.33-.12-.67-.26-1-.4.18.09.37.18.56.26.53.22,1.07.4,1.6.56Z"/>
  <path class="cls-9" d="M905.95,728.24c-.16,0-.3-.01-.45-.02.15,0,.3.02.45.02Z"/>
  <path class="cls-9" d="M912.2,727.11c.28-.11.56-.22.84-.35.07-.03.13-.06.2-.09-.5.23-1,.44-1.52.63.16-.06.32-.12.48-.19Z"/>
  <path class="cls-9" d="M909.4,727.93s.03,0,.05,0c.06-.01.12-.03.18-.04-.42.09-.85.17-1.29.22.36-.05.71-.1,1.07-.17Z"/>
  <path class="cls-9" d="M906.91,728.22c.13,0,.25-.01.38-.02.12,0,.23-.02.35-.03-.33.03-.66.05-1,.06.09,0,.18,0,.27,0Z"/>
  <path class="cls-4" d="M1543.2,836c-.01-.07-.03-.12-.04-.19,0-.02-.02-.04-.03-.06,0,0,0,.01,0,.02.05.67.11,1.1.28,1.34.01.02.03.04.04.06-.03-.18-.1-.49-.21-.96-.01-.07-.03-.14-.05-.21Z"/>
  <path class="cls-4" d="M1571.51,868.81c17.94-6.69,57.81-3.59,52.41-31.97-.15-.54-.31-1.05-.48-1.56-2.02-6.16-5.29-9.37-10.3-10.57-5.94-1.42-14.34,0-26.06,2.75-10.39,2.44-23.39,5.9-39.6,9.35-.14.03-.27.05-.4.08-1.69.32-2.63.55-3.16.49-.2-.02-.35-.08-.45-.2,0,0,0,0,0,0,.01.09.01.15,0,.19-.01.05-.04.08-.09.1-.04.01-.09.02-.17.03-.06,0-.12.01-.2.02-.03,0-.05,0-.09,0,0-.03,0-.06,0-.09-.01-.14-.02-.27-.03-.4-.1-1.34-.16-1.93-.12-2.02,0,0,0,0,0,0,.04-.06.15.24.38.75-.05-.75-.1-1.8-.3-3.24-.38-2.82-1.3-7.15-3.9-13.68-.24-.6-.49-1.21-.75-1.84.69-.33,1.39-.68,2.08-1.02,9.36-4.6,19.02-9.73,28.63-15.22,1.11-.63,2.23-1.27,3.34-1.91,20.34-12.53,2.53-43-18.41-31.47-11.91,7.01-24.16,13.32-36.63,19.2-5.61-5.65-10.42-9.66-14.54-12.71-.23-.17-.45-.33-.67-.49-.25-.18-.51-.37-.75-.55-3.4-2.44-6.3-4.24-8.77-5.83,21.4-12.59,44.9-36.67,54.54-44.55,16.56-17.25-8.41-42.22-25.78-25.78-33.89,32.15-49.54,39.13-58.04,44.41-3.42,2.12-5.69,3.96-7.52,7.05-1.16-.45-2.32-.89-3.49-1.33-61.94-22.95-136.13-19.15-196.69,6.49-11.06,4.68-21.67,10.09-31.66,16.19-16.58,10.25-29.07,23.04-36.37,36.83-26.92,50.85,16.89,115.2,187.15,115.2,28,0,50.86-1.66,69.59-4.34,49.07-7.02,69.69-21.08,79.55-30.88,5.44-5.41,7.61-9.51,9.47-10.41.25-.12.5-.19.74-.19,2.63,0,5.39-.26,8.19-.67,5.53-.81,11.25-2.22,16.62-3.53,4.63-1.13,9-2.18,12.75-2.68ZM1263.99,872.91c-20.92-6.58-37.43-16.58-44.28-31.61-1.19-2.61-2.1-5.36-2.68-8.27.99-2.88,2.2-5.65,3.62-8.33,5.71-10.74,14.81-19.9,26.32-27.49,20.09-13.24,47.51-21.71,77.05-25.51,34.9-4.5,72.74-2.49,104.91,5.83,44.82,11.6,78.63,35.46,78.1,71.09-17.47,29.72-63.12,31.09-94.09,34.91-30.82,1.59-101.29,4.37-148.95-10.62Z"/>
  <path class="cls-4" d="M752.43,929.91c48.55-13.35,85.14-37.54,83.7-76.1-8.08-66.19-88.86-116.95-182.27-117.41-.49,0-.99,0-1.48,0-.16,0-.32,0-.48,0-46.4.12-95.81,12.68-140.89,41.92-1.08.7-2.15,1.41-3.22,2.12-19.51-6.34-41.13-33.42-57.42-10.94-9.91,19.67,12,29.18,28.05,37.11-5.01,6.28-9.11,13.13-12.08,20.61-23.91.99-47.01-3.2-70.41-8.5-23.28-5.59-32.56,28.41-9.69,35.16,1.56.36,3.11.71,4.67,1.06,11.24,2.52,22.4,4.73,33.61,6.38,10.84,1.59,21.73,2.64,32.77,2.92.43.01.86.02,1.29.03.42,0,.85,0,1.27.01,1.06.01,2.12.03,3.18.03.54,0,1,.65,1.53,1.84,1.45,3.21,3.5,10.36,9.48,19.16,11.57,17.01,37.86,40.18,103.13,53.03,6.92,1.15,14.34,2.11,22.14,2.86,46.11,4.48,105.41,1.83,153.13-11.29ZM514.85,820.54c1.9-1.69,3.94-3.39,6.18-5.11,28.63-17.02,53.25-28.14,75.52-34.83,17.51-5.26,33.57-7.76,48.98-8.23,1.81-.06,3.61-.09,5.4-.09.8,0,1.61,0,2.42.02,31.57.37,68.51,7.9,97.68,24.38,23.86,13.48,42.54,32.96,48.83,59.41-11.21,33.37-68.44,48.92-130.13,50.68-53.96,1.54-111.32-7.48-144.31-24.38-29.33-15.02-39.36-36.27-10.58-61.85Z"/>
  <path class="cls-8" d="M1202,1450.78c-15.31,5.37-31.41,10.25-48.03,14.56-8.69-87.31-106.34-130.91-157.44-39.78-28.24-47.86-83.42-56.62-120.62-18.2-.02.02-.05.04-.07.07-.5.52-1,1.07-1.5,1.6-.27.3-.55.58-.82.88-.26.29-.51.59-.77.89-.5.57-1,1.13-1.49,1.72-.05.05-.09.11-.14.17-9.58,11.47-17.71,26.39-23.51,44.92-.45,1.43-.88,2.89-1.3,4.36-14.56-6.03-28.38-13.34-41.41-22.19-20.59-12.31-39.31,17.53-19.56,30.78,46.42,31.66,54.26,26.22,54.66,27.9.3,1.31-3.92,6.95,2.06,37.88,14.3,57.49,62.99,98.37,117.28,110.89,74.82,17.25,160.29-19.37,181.1-140.67,25.28-5.59,50.19-12.88,74.53-21.69,22.28-9.03,9.44-42-12.97-34.09Z"/>
  <path class="cls-4" d="M676.41,896.19c30.36,0,47-18.53,51.19-39.8,5.64-28.62-11.29-62.2-47.75-62.2-30.32,0-46.96,18.48-51.17,39.71-5.69,28.64,11.24,62.29,47.74,62.29Z"/>
  <path class="cls-4" d="M1330.89,782.7c-16.42,6.74-29.36,21.61-30.14,44.58-1.56,45.04,41.75,60.79,72.43,47.79,16.15-6.84,28.8-21.65,29.57-44.35,1.55-44.76-41.22-60.59-71.86-48.01Z"/>
  <path class="cls-9" d="M616.83,1059.22c-.86,0-1.72.01-2.58.03-45.29,1.05-78.01,29.79-88.25,66.44,0,.03-.02.05-.02.08-.16.59-.32,1.17-.47,1.76-.03.11-.06.22-.09.33-.12.49-.24.99-.36,1.49-.05.21-.1.42-.15.62-.1.43-.19.87-.28,1.31-.06.27-.12.54-.17.81-.08.38-.14.75-.22,1.13-.06.34-.13.67-.19,1.01-.06.32-.11.63-.16.95-.07.4-.14.79-.2,1.19-.04.29-.08.58-.12.86-.06.43-.13.86-.18,1.29-.04.29-.07.59-.1.89-.05.42-.11.85-.15,1.28-.04.34-.06.67-.1,1.01-.04.39-.08.78-.11,1.17-.03.39-.05.78-.08,1.16-.02.34-.05.68-.07,1.02-.04.73-.08,1.46-.1,2.2-1.88,54.82,42.54,93.07,89.83,94.21.21,0,.41.02.62.02.38,0,.75,0,1.13,0,20.16.09,40.74-6.57,58.4-21.61.95-.81,1.88-1.64,2.81-2.49,61.99-56.9,17.91-158.16-58.62-158.16Z"/>
  <path class="cls-9" d="M1387.57,1045.72c-.86,0-1.72.01-2.58.03-45.29,1.05-78.01,29.79-88.25,66.44,0,.03-.02.05-.02.08-.16.59-.32,1.17-.47,1.76-.03.11-.06.22-.09.33-.12.49-.24.99-.36,1.49-.05.21-.1.42-.15.62-.1.43-.19.87-.28,1.31-.06.27-.12.54-.17.81-.08.38-.14.75-.22,1.13-.06.34-.13.67-.19,1.01-.06.32-.11.63-.16.95-.07.4-.14.79-.2,1.19-.04.29-.08.58-.12.86-.06.43-.13.86-.18,1.29-.04.29-.07.59-.1.89-.05.42-.11.85-.15,1.28-.04.34-.06.67-.1,1.01-.04.39-.08.78-.11,1.17-.03.39-.05.78-.08,1.16-.02.34-.05.68-.07,1.02-.04.73-.08,1.46-.1,2.2-1.88,54.81,42.52,93.05,89.8,94.21.22,0,.43.02.65.02.38,0,.75,0,1.13,0,20.16.09,40.74-6.57,58.4-21.61.95-.81,1.88-1.64,2.81-2.49,61.99-56.9,17.91-158.16-58.62-158.16Z"/>
  <path class="cls-9" d="M280.54,653.84c-78.53-32.03-221.38,21.12-174.41,123.06,5.13,8.94,13.8,10.83,21.12,8.39,9.65-3.22,16.96-13.98,10.75-26.07-23.98-47.6,53.03-98.2,133.4-69.83.17.06.35.12.52.18,1.15.41,2.3.84,3.44,1.28.15.06.3.11.45.17,1.3.51,2.6,1.03,3.9,1.58,12.97,11.88,34.22-1.16,29.84-18.09-3.41-12.81-18.03-16.62-29.03-20.66Z"/>
  <path class="cls-9" d="M1802.43,733.66c61.62-29.23,95.32,22.08,80.36,55.31-2,4.45-4.87,8.59-8.67,12.15-12.42,13.51-27.76,21.11-39.02,28.03-12.58,7.73-20.07,14.62-12.7,27.94.3.54.63,1.06.98,1.56.18.26.39.49.58.74.18.23.35.47.54.69.35.4.73.79,1.11,1.15.05.04.09.1.13.14.38.35.77.68,1.17,1,.06.05.12.11.19.16.34.27.71.5,1.07.74.13.09.26.19.39.27.29.18.6.34.91.51.21.12.42.25.64.36.22.11.45.2.67.3.31.14.62.3.95.42.12.05.24.08.36.12.43.16.87.32,1.31.44.01,0,.02,0,.04,0,3.95,1.13,8.25.97,12.12-.71.55-.24,1.1-.51,1.63-.82,13.12-7.47,26.5-14.87,38.38-24.22,36.56-25.88,48.62-72.41,25.06-111.38-.44-.83-.89-1.65-1.36-2.45-12.45-21.44-34.49-32.24-57.42-35.6-.33-.05-.67-.1-1-.15-.1-.01-.2-.03-.31-.04-30.98-4.15-63.31,5.14-75.66,20.08-10.84,17.5,12.41,36.88,27.56,23.22Z"/>
  <path class="cls-5" d="M1832.71,897.41c-.54-.48-1.08-.95-1.64-1.42-.11-.09-.21-.19-.32-.28-12.72-10.42-29.71-17.29-51.04-18.23-.03,0-.07,0-.1,0-1.62-.07-3.26-.11-4.93-.11-1,0-1.99.03-2.98.07-30.62,1.17-53.03,20.3-64.15,45.01-6.83,15.18-9.41,32.45-7.02,48.94,1.66,11.48,5.74,22.57,12.45,32.33,6.47,9.41,15.41,17.56,27.03,23.59.58.3,1.17.61,1.77.9.29.14.58.29.88.43,1.08.51,2.18,1.01,3.31,1.49.07.03.13.06.2.08,1.17.49,2.37.97,3.59,1.42.07.03.15.05.22.08,1.27.47,2.57.92,3.9,1.34-.2,3.68-.85,60.32-1.36,106.87-.36,32.9-.64,60.76-.65,61.31-29.22-7.49-58.83-13.31-88.82-16.72-7.65-.87-15.76-2.11-22.73-1.54-.11,0-.22.02-.33.03-.32.03-.63.06-.95.1-.38.04-.76.1-1.13.16-.04,0-.09.01-.13.02-6.75,1.06-12.12,4.25-14.44,11.81-9.02,5.8-13.48,19.06-3.31,28.7,1.52,1.97,3.17,4.13,4.94,6.46,0,0,.01.02.02.03,6.02,7.96,13.4,18.02,21.72,29.73,1.1,1.55,2.22,3.13,3.35,4.73,1.24,1.76,2.51,3.56,3.79,5.39,1.52,2.17,3.06,4.39,4.63,6.65,1.61,2.32,3.24,4.69,4.89,7.1.7,1.02,1.4,2.05,2.11,3.08,2.38,3.49,4.8,7.06,7.25,10.71-3.86,4.24-73.01,84.36-74.44,89.92-14.46,16.62-31.58,40.65-.3,50.54,24.89,3.11,100.98-23.87,131.77-33.83,18.01,35.88,37.48,71.23,57.02,106.33,3.36,5.36,6.46,10.94,9.53,16.29,9.15,15.96,17.96,29.87,32.32,29.87,25.04,0,23.63-49.78,28.35-163.54,0-.05,0-.11,0-.16.05-1.18.1-2.39.15-3.59.03-.72.06-1.42.09-2.14.02-.55.05-1.12.07-1.68.14-3.24.28-6.51.43-9.85,2.33-.36,4.69-.69,7.06-1.02.94-.13,1.89-.26,2.83-.38,1.35-.18,2.71-.36,4.07-.53,1.24-.16,2.49-.32,3.74-.47.19-.02.38-.05.56-.07,4.17-.51,8.36-1.01,12.57-1.53.79-.1,1.59-.2,2.38-.29,1.45-.18,2.9-.36,4.35-.54,1.21-.15,2.42-.31,3.63-.47,1.29-.17,2.57-.35,3.85-.52,1.66-.23,3.31-.46,4.96-.7,1.63-.24,3.25-.48,4.87-.74.9-.14,1.8-.3,2.71-.45,1.67-.28,3.33-.57,4.99-.87,11.1-2.02,21.91-4.63,31.98-8.37,12.81-8.22,10.28-27.75-2.56-34.62-10.13-6.01-21.08-9.88-51.07-24.03-.7-.33-1.4-.66-2.12-1-3.38-1.6-6.99-3.33-10.87-5.2-1.24-.6-2.51-1.21-3.8-1.84-3.37-1.64-6.92-3.38-10.67-5.23-.73-.36-1.46-.72-2.2-1.09-4-1.98-8.21-4.08-12.66-6.32,4.18-6.66,9.11-14.6,14.4-23.31,8.15-13.4,17.18-28.62,25.75-43.85,12.46-22.13,23.96-44.27,30.39-60.82,6.25-12.94-2.03-31.12-17.63-29.84-5.33.99-14.69,5.29-26.04,11.48-11.28,6.14-24.52,14.15-37.78,22.64-21.16,13.55-42.32,28.32-55.46,38.68-.61.48-1.2.95-1.77,1.41,0-.66,0-1.37.02-2.09.03-3.47.06-7.63.11-12.33,0-.25,0-.5,0-.75,0-.21,0-.43,0-.64.43-41.74,1.58-122.88,2.46-143.08.9-.1,1.78-.24,2.66-.37,29.9-4.34,49.75-22.46,59.28-45.04,10.44-24.74,8.51-54.8-6.06-77.88-3.79-6-8.42-11.52-13.93-16.36Z"/>
  <path class="cls-5" d="M226.93,1339.75c8.52,24.19,18.65,47.87,29.08,71.25,4.12,7.09,7.53,17.16,11.65,26.62,6.03,13.84,13.58,26.38,27.13,26.38,33.21,0,30.36-78.44,33.53-178.91,1.67-.42,3.35-.82,5.03-1.18.13-.03.26-.05.38-.08,11.22-2.43,22.67-3.71,34.22-4.82,2.52-.24,5.05-.48,7.58-.71,1.4-.13,2.81-.26,4.22-.39.17-.02.35-.03.52-.05,1.61-.15,3.21-.31,4.82-.47.13-.01.27-.03.4-.04,1.61-.16,3.23-.33,4.84-.51.21-.02.41-.05.62-.07,1.54-.17,3.07-.35,4.61-.54.39-.05.79-.11,1.18-.16,1.36-.17,2.71-.35,4.07-.54.75-.11,1.49-.23,2.24-.34,1.01-.15,2.03-.3,3.04-.46,1.78-.29,3.56-.6,5.33-.94,27.44-10.88,15.47-38.34-8.44-44.5-.59-.22-1.25-.47-1.96-.73-10.26-3.8-31.87-11.62-51.32-17.94-.02,0-.04-.01-.06-.02-14.1-4.58-27.04-8.37-33.68-9.27.5-2.65,1.03-5.42,1.56-8.28.05-.25.09-.51.14-.76.2-1.09.41-2.2.61-3.32.38-2.07.75-4.18,1.13-6.32.06-.37.13-.74.19-1.12.22-1.29.44-2.58.66-3.88,7.43-44.48,11.76-98.71-24.54-91.81-.02,0-.03,0-.05,0-.69.13-1.39.28-2.1.46-1.81.62-3.78,1.81-5.87,3.45-.6.47-1.2.98-1.82,1.52-16.92,14.88-40.27,55.91-46.51,69.6-1.71-38.17-3.04-68.37-3.99-92.27-4.22-106.22-.93-88.16,9.84-92.39,1-.39,1.99-.81,2.96-1.23.2-.09.4-.18.61-.27.82-.37,1.64-.74,2.44-1.13.12-.06.24-.12.36-.18,18.25-8.9,31.27-23.3,38.6-39.89.13-.3.27-.6.39-.9.18-.42.35-.84.52-1.26,4.58-11.24,6.59-23.39,5.87-35.46-.41-6.92-1.72-13.81-3.94-20.48-4.13-12.43-11.43-24.11-22.11-33.85-1.29-1.18-2.61-2.28-3.93-3.35-19.45-15.7-42.58-20.23-63.92-16.26-20.04,3.73-38.49,14.94-50.82,31.44-3.51,4.7-6.53,9.83-8.95,15.34-4.8,10.97-7.22,23.43-6.41,36.99,1.94,32.97,24.68,64.21,61.06,72.68-6.92,236.82,40.44,190.38-52.89,165.04-17.28-4.41-42.38-7-51.5,12.5-7.03,14.88,5.06,27.84,14.34,38.34,14.26,16.55,42.52,48.38,58.92,62.55-19.55,30.7-49.29,87.71-58.13,107.67-10.61,24.01,2.76,33.91,13.88,33.91s20.38-5.31,58.48-29.51c11.28-7.17,25.08-15.98,42.2-26.81,1.21-.77,2.44-1.54,3.69-2.33Z"/>
  <path class="cls-3" d="M1139.57,642.66l-.03.03s.06-.03.06-.03h-.03Z"/>
  <path class="cls-3" d="M464.11,706.24c4.93,10.01,18.74,15.48,34.68,1.11,2.09-1.28,4.19-2.53,6.3-3.77.63-.37,1.27-.73,1.91-1.1,1.53-.88,3.07-1.75,4.61-2.6.67-.37,1.34-.74,2.01-1.1,1.71-.93,3.43-1.85,5.16-2.75.42-.22.84-.45,1.27-.66,54.7-28.23,117.02-41.14,177.55-40.37.04,0,.08,0,.12,0,.22,0,.45,0,.67.01,60.2.88,118.58,15.27,165.88,41.53,3.22,1.79,6.39,3.63,9.5,5.52,6.61,3.73,10.5,8.56,14.23,13.36,2.33,3.01,4.61,6.01,7.43,8.73,0,0,0,0,0,0,.03.03.07.07.1.1.5.47,1.01.94,1.55,1.4.48.28.95.52,1.43.75.2.09.39.18.59.27.33.15.67.28,1,.4,5.43,2.02,10.83,1.15,15.14-1.52.07-.04.13-.08.2-.12.27-.17.54-.35.8-.54.08-.06.17-.12.25-.18.56-.41,1.1-.86,1.61-1.33-1.35,1.26-2.87,2.32-4.53,3.12-.05.03-.11.05-.16.07-.06.03-.11.05-.17.08-.07.03-.13.06-.2.09-.28.12-.56.24-.84.35-.16.06-.32.13-.48.19-.09.03-.19.06-.28.09-.18.06-.35.11-.53.17-.15.04-.3.09-.45.13-.07.02-.14.03-.21.05-.21.05-.42.1-.63.15-.06.01-.12.03-.18.04-.02,0-.03,0-.05,0-.35.07-.71.13-1.07.17-.23.03-.46.05-.7.07-.12.01-.23.02-.35.03-.13,0-.25.02-.38.02-.09,0-.18,0-.27,0-.23,0-.46.02-.69.01-.15,0-.3-.01-.45-.02-1.39-.06-2.8-.29-4.24-.73-.53-.16-1.07-.34-1.6-.56-.38-.15-.75-.32-1.13-.5-.49-.23-.97-.48-1.46-.77-10.59-9.34,14.37,14.13,29.93,63.44,13.28,42.06,19.73,102.93-8.56,178.25-22.5,65-62.47,121.94-90.91,184.31-38.19,75.25.41,127.19,78.94,140.28,2.43.42,4.85.82,7.28,1.19,74.13,11.45,149.6,2.01,224.09-7.07,10.33-1.27,15.34-9.15,15.57-17.24.29-10.12-6.89-20.58-20.51-18.89-3.26.32-6.48.62-9.68.92-.63.06-1.27.12-1.9.18,0,0,0,0,0,0-1.94.18-3.87.36-5.78.53-475.48,43.16-173.59-108.86-145.07-345.22.32-2.04.6-4.07.87-6.09.18-1.31.33-2.61.49-3.92.07-.59.15-1.19.22-1.78,5.88-51.42-2.55-95.37-14.61-129.21-13.44-37.72-31.36-62.88-38.97-71.81-3.54-4.15-4.85-4.81-2.43-1.57,0,0,.01.01.02.02-13.32-17.77-44.31-36.74-85.96-50.96-93.04-31.77-239.28-39.79-360.72,42.52-7.8,6.23-8.76,15.59-5.27,22.67ZM922.27,701.58s.01.03.02.04c0-.01-.01-.03-.02-.04ZM922.55,702.16c.07.15.13.29.19.43-.06-.15-.13-.29-.19-.43ZM918.58,722.93s-.02.03-.04.04c.01-.01.02-.03.04-.04ZM924.29,710.33c.02-.4.03-.81.02-1.22,0,.41,0,.81-.02,1.22ZM920.43,698.63s.02.02.03.04c0,.01.02.02.02.03-.03-.04-.06-.08-.09-.11-.05-.06-.1-.12-.15-.19,0,0,0,0,0,0-.43-.53-1.11-1.24-2.56-2.45,0,0,0,0,0,0,0,0,0,0,0,0,.32.22.7.52,1.08.86.64.57,1.27,1.24,1.68,1.83Z"/>
  <path class="cls-3" d="M1135.96,727.78c.56.18,1.11.32,1.65.44.28.06.55.1.82.15.26.04.52.1.77.13.4.05.78.08,1.17.1.12,0,.24.02.36.03.48.02.96.02,1.42,0,.01,0,.03,0,.04,0,8.73-.41,14.34-7.67,16.04-10.6,0,0,0,0,0,0,.08-.1.15-.2.23-.3,11.08-13.92,34.58-31.22,69.11-45.86,59.81-25.34,152.75-42.69,271.8-20.63,2.84.53,5.69,1.07,8.55,1.64,23.78,3.56,29.5-31.22,6.16-35.94-99.53-19.59-206.5-20.88-300.28,22.34-23.41,8.25-126.31,61.56-77.84,88.5Z"/>
  <path class="cls-3" d="M1239.98,1338.19c-9.4,0-15.16,6.39-16.81,13.82-2.29,10.31,3.35,22.62,18.31,22.62,9.4,0,15.16-6.39,16.81-13.82,2.29-10.31-3.35-22.62-18.31-22.62Z"/>
  <path class="cls-7" d="M333.34,612.07c9.72,6.58,24.68,9.48,44.47,5.85,19.48-3.57,43.65-13.48,72.1-32.4.77-.51,1.53-1.01,2.31-1.54.95-.59,1.88-1.19,2.82-1.79,30.23-19.5,53.62-42.71,76.75-66.87,67.7-70.73,133.05-149.55,360.62-166.81,16.72-1.87,33.74-1.53,50.64-.93,47.32,1.68,93.65,5.41,129.46-31.69.14-.58.32-1.18.52-1.79.61-6.72,5.26-12.26,10.22-18.69,4.7-7.27,10.53-15.92,16.84-26.36,17.48-30.55,34.13-69.29,43.66-107.43.45-1.9.89-3.81,1.32-5.75,4.58-26.06,9.48-53.64,4.65-79.94-.06-.32-.12-.63-.18-.95-.11-.59-.23-1.18-.35-1.77-.13-.62-.27-1.23-.41-1.85-.08-.34-.15-.68-.23-1.02-.18-.76-.38-1.52-.58-2.27-.06-.22-.11-.44-.17-.66-.26-.98-.54-1.94-.83-2.9-50.44-97.23-265.1-66.81-364.77-23.71-363.18,138.33-478.58,417.46-460.28,535.75-1.17,3.58-1.76,7.15-1.8,10.6-.11,9.93,4.4,18.94,13.23,24.92Z"/>
  <path class="cls-7" d="M1188.09,99.48c.16,45.6-12.93,107.84-46.33,170.52-5.06,11.17-9.5,21.54-12.58,31.28-3,9.48-4.69,18.35-4.41,26.79v.06c.03.66.06,1.32.11,1.98,0,.07,0,.14.01.21.05.65.11,1.3.19,1.95,0,.05,0,.1.02.14.17,1.39.39,2.77.68,4.14.03.14.06.27.09.41.12.52.24,1.05.37,1.57.05.21.11.42.17.63.12.45.26.91.39,1.36.07.23.14.46.21.68.15.46.31.92.47,1.38.07.2.14.41.22.61.25.65.5,1.31.78,1.96,24.61,45.67,54.82,62.94,122.87,92.7,44.47,19.45,105.09,44.23,190.88,85.77,58.86,28.57,105.7,46.64,143.11,73.86,14.06,10.23,26.78,21.74,38.31,35.59,15.12,18.16,28.18,40.33,39.5,68.85,2.99,7.53,5.86,15.49,8.61,23.95.76,2.69,1.55,5.45,2.42,8.21,2.85,9.02,6.56,17.98,12.69,24.36,4.6,4.78,10.55,8.1,18.54,8.88,31.28,4.59,39.97-29.59,43.88-53.59.38-1.78.74-3.57,1.1-5.35,43.5-214.82-15.71-417.91-310.7-610.68-65.44-40.38-140.25-66.22-215.09-82.31-20.06-4.7-42.38,6.62-49.41,23.83,2.27,3.39,4.28,7.52,6,12.33,5.09,13.63,7.02,30.34,6.88,47.96Z"/>
  <path class="cls-6" d="M1147.96,68.07c.2.75.39,1.51.58,2.27.08.34.16.68.23,1.02.14.62.28,1.23.41,1.85.12.59.24,1.18.35,1.77.06.32.12.63.18.95,4.83,26.3-.07,53.88-4.65,79.94-.43,1.94-.87,3.86-1.32,5.75-11.58,48.99-28.92,83.07-43.66,107.43-6.32,10.44-12.15,19.09-16.84,26.36-4.89,7.57-8.54,13.65-10.22,18.69-.2.61-.38,1.21-.52,1.79-1.79,7.25,1.15,12.27,11.44,16.62,1.6.69,3.29,1.1,4.99,1.28,6.78.72,13.92-2.39,17.56-8.31,11.5-15.35,21.6-30.98,30.42-46.62,1.66-2.95,3.28-5.91,4.85-8.86,33.4-62.68,46.49-124.92,46.33-170.52-.07-19.43-2.54-35.83-6.88-47.96-1.72-4.81-3.73-8.94-6-12.33-7.65-11.42-18.24-14.33-30.46-5.71-9.93,10.1-3.74,19.59,2.2,31.04.29.96.57,1.93.83,2.9.06.22.11.44.17.66Z"/>
</svg>