<?xml version="1.0" encoding="UTF-8"?>
<svg id="_лой_1" data-name="—лой_1" xmlns="http://www.w3.org/2000/svg" viewBox="0 0 2023.93 2104.47">
  <defs>
    <style>
      .cls-1 {
        fill: none;
      }

      .cls-2 {
        fill: #0c0809;
      }

      .cls-3 {
        fill: #52c3e1;
      }

      .cls-4 {
        fill: #f1035d;
      }

      .cls-5 {
        fill: #fff;
      }

      .cls-6 {
        fill: #36114e;
      }

      .cls-7 {
        fill: #fac7b9;
      }

      .cls-8 {
        fill: #f28585;
      }
    </style>
  </defs>
  <path class="cls-1" d="M837.09,1253.96c.03.07.05.15.08.22-.03-.07-.05-.15-.08-.22Z"/>
  <path class="cls-1" d="M805.79,1260.32c0-.11-.01-.21-.02-.31,0,.11.01.21.02.31Z"/>
  <path class="cls-1" d="M547.7,1274.18c4.58,4.13,8.26,5.21,12.8,3.77-4.19.9-8.5.1-12.8-3.77Z"/>
  <path class="cls-1" d="M837,1253.75c-2.25-5.75-7.47-10.25-13.98-10.25,6.44,0,11.71,4.49,13.98,10.25Z"/>
  <path class="cls-1" d="M823.02,1243.5c-10.34,0-16.68,6.95-17.21,15.18.53-8.25,6.93-15.18,17.21-15.18Z"/>
  <path class="cls-1" d="M879.68,1220.61c-.77-.33-1.54-.65-2.32-.98.77.32,1.55.64,2.32.98Z"/>
  <path class="cls-1" d="M905.96,1197.78c-40.43-21.29-88.77-32.46-139.76-31.52,51.22-.93,99.58,10.37,139.76,31.52Z"/>
  <path class="cls-1" d="M738.89,1200.63c-.85.09-1.7.19-2.55.29.85-.1,1.7-.2,2.55-.29Z"/>
  <path class="cls-1" d="M871.59,1217.29c-1.12-.44-2.24-.86-3.37-1.29,1.13.42,2.25.85,3.37,1.29Z"/>
  <path class="cls-1" d="M875.62,1218.9c-.94-.39-1.89-.76-2.84-1.14.95.38,1.9.75,2.84,1.14Z"/>
  <path class="cls-1" d="M1169.32,1598.85c-10.9-9.31-25.52-12.7-40.38-10.84,14.73-1.32,29.25,2.45,40.38,10.84Z"/>
  <path class="cls-1" d="M739.54,1200.56c43.3-4.53,87.48.16,128.09,15.22-39.38-14.64-83.33-20.06-128.09-15.22Z"/>
  <path class="cls-1" d="M577.82,1267.12c7.47-5.5,17.25-12.79,30.84-21.41-9.8,5.99-19.44,12.57-28.89,19.76-.64.53-1.29,1.09-1.96,1.65Z"/>
  <path class="cls-1" d="M805.9,1261.72c1.46,12.38,16.71,18.95,26.76,10.21-10.05,8.74-25.3,2.17-26.76-10.21Z"/>
  <path class="cls-1" d="M1194.91,1242.02c-.02-.05-.04-.11-.06-.16.02.05.04.11.06.16Z"/>
  <path class="cls-1" d="M1200.38,1223.22c.31-.23.63-.44.95-.65-.32.2-.64.42-.95.65Z"/>
  <path class="cls-1" d="M965.17,1696.52c-67.03-6.51-90.54-19.4-92.73,4.66,2.16-23.7,25.52-11.18,92.73-4.66Z"/>
  <path class="cls-1" d="M1210.56,1220.07c.19,0,.37.03.56.04-.19-.01-.37-.04-.56-.04Z"/>
  <path class="cls-1" d="M1210.45,1220.07c-3.04-.11-6.16.63-9.01,2.42,2.84-1.79,5.96-2.53,9.01-2.42Z"/>
  <path class="cls-1" d="M1195.02,1242.29c2.26,5.73,7.47,10.2,13.96,10.2-6.42,0-11.67-4.47-13.96-10.2Z"/>
  <path class="cls-1" d="M1211.71,1220.16s.03,0,.04,0c-.01,0-.03,0-.04,0Z"/>
  <path class="cls-1" d="M1254.14,1273.56c7.86-7.79,13.24-18.66,14.1-32.64,1.2-18.62-5.31-32.39-15.55-41.33,19.12,18.79,20.93,53.89,1.44,73.96Z"/>
  <path class="cls-1" d="M1210.89,1252.41c-.62.05-1.25.08-1.9.08.65,0,1.29-.03,1.9-.08Z"/>
  <path class="cls-1" d="M1216.01,1251.26c-.38.15-.78.27-1.18.39.4-.12.8-.24,1.18-.39Z"/>
  <path class="cls-1" d="M1212.69,1252.18c-.38.07-.77.11-1.17.15.39-.05.79-.09,1.17-.15Z"/>
  <path class="cls-1" d="M1214.4,1251.79c-.36.1-.74.17-1.11.25.37-.08.75-.15,1.11-.25Z"/>
  <path class="cls-1" d="M860.5,1059.91c-297.3-66.46-366.5,101.31-398.01,81.68,31.61,19.69,100.83-148.11,398.01-81.68Z"/>
  <path class="cls-1" d="M375.58,638.17s-.1.04-.15.06c.05-.02.1-.04.15-.06Z"/>
  <path class="cls-1" d="M1345.79,289.94c3.72,7.86,10.25,13.85,17.04,19.56-8.54-7.92-14.49-14.6-17.04-19.56Z"/>
  <path class="cls-1" d="M602.19,464.45c-.81.91-1.65,1.83-2.48,2.74.83-.91,1.66-1.83,2.48-2.74Z"/>
  <path class="cls-1" d="M374.57,638.58s-.01,0-.02,0c0,0,.01,0,.02,0Z"/>
  <path class="cls-1" d="M310.38,662.85c-.06-.01-.11-.03-.16-.04.05.01.11.03.16.04Z"/>
  <path class="cls-1" d="M310.89,662.95c11.03,2.17,26.69-5.06,40.73-12.48-14,7.37-29.68,14.56-40.73,12.48Z"/>
  <path class="cls-1" d="M247.65,1265.97c-25.27,18.98-43.18,31.71-57.67,40.39,20.16-11.19,39.14-25.78,57.67-40.39Z"/>
  <path class="cls-1" d="M291.23,1232.85c1.24-.97,2.48-1.94,3.72-2.91-1.48,1.14-2.95,2.26-4.39,3.37.22-.15.44-.31.67-.46Z"/>
  <path class="cls-1" d="M586.86,1009.22c-63.37,46.98-116.44,86.88-161.14,120.77,54.6-41.07,108.42-81,161.14-120.77Z"/>
  <path class="cls-1" d="M1026.69,637.38c-1.73-1.84-3.47-3.68-5.18-5.51,1.7,1.82,3.43,3.66,5.18,5.51Z"/>
  <path class="cls-1" d="M883.76,1222.41c-.56-.25-1.12-.49-1.68-.74.56.25,1.12.49,1.68.74Z"/>
  <path class="cls-1" d="M1459.83,1015.46c139.48,104.5,282.58,195.96,394.65,238.83-46.6-20.2-98.19-51.39-144.62-77.97-80.99-44.32-166.12-99.74-250.04-160.86Z"/>
  <path class="cls-1" d="M768.91,867.13c86.68-71.04,168.96-145.09,245.25-227.3-74.24,79.79-164.71,160.45-245.25,227.3Z"/>
  <path class="cls-1" d="M602.39,464.22c56.92-63.73,81.32-116.8,69.98-128.92,11.23,12.01-13.03,65.09-69.98,128.92Z"/>
  <path class="cls-1" d="M751.44,1166.87c.88-.06,1.77-.12,2.65-.17-.88.05-1.77.11-2.65.17Z"/>
  <path class="cls-1" d="M746.5,1167.22c.56-.04,1.12-.09,1.67-.14-.56.04-1.12.09-1.67.14Z"/>
  <path class="cls-1" d="M646.63,336.6c.34-.53.7-1.03,1.08-1.5-.95.68-5.08,3.51-11.81,8.21,3.73-2.39,7.31-4.64,10.74-6.71Z"/>
  <path class="cls-1" d="M741.54,1167.64c.23-.02.46-.05.69-.07-.23.02-.46.05-.69.07Z"/>
  <path class="cls-1" d="M756.37,1166.59c1.21-.06,2.42-.12,3.63-.16-1.21.05-2.42.11-3.63.16Z"/>
  <path class="cls-1" d="M761.29,1166.39c1.53-.05,3.07-.1,4.59-.13-1.53.03-3.06.08-4.59.13Z"/>
  <path class="cls-1" d="M568.52,1233.55c.16-.11.31-.23.47-.34-.16.11-.31.23-.47.34Z"/>
  <path class="cls-1" d="M1852.06,872.03c46.34,102.11,81.89,242.49,82.94,248.61-6.9-97.09-36.77-178.32-82.94-248.61Z"/>
  <path class="cls-1" d="M179.73,508.67c.66-84.31,18.68-168.92,66.46-239.86-50.09,66.74-94.19,156-66.46,239.86Z"/>
  <path class="cls-1" d="M558.03,1241.32c1.82-1.4,3.64-2.77,5.48-4.13-1.83,1.36-3.66,2.73-5.48,4.13Z"/>
  <path class="cls-1" d="M1216.22,1251.17c5.51-2.2,8.97-6.91,9.81-12.36-.83,5.37-4.26,10.14-9.81,12.36Z"/>
  <path class="cls-1" d="M1882.51,1058.5c-20.15-42.12-50.8-83.71-73.92-114.14,29.93,61.52,44.84,71.21,64.28,113.49,13.74,20.28,19.41,52.28,9.64.66Z"/>
  <path class="cls-1" d="M1167.13,1188.9c-.14.08-.27.17-.4.25.13-.08.27-.17.4-.25Z"/>
  <path class="cls-1" d="M1163.29,1191.26c-.27.17-.54.36-.81.54.27-.18.54-.36.81-.54Z"/>
  <path class="cls-1" d="M1155.78,1196.38c-.4.29-.79.6-1.19.9.4-.3.79-.6,1.19-.9Z"/>
  <path class="cls-1" d="M1159.51,1193.76c-.3.2-.59.42-.88.62.3-.2.59-.42.88-.62Z"/>
  <path class="cls-1" d="M1152.1,1199.14c-.55.43-1.09.88-1.64,1.31.55-.44,1.09-.88,1.64-1.31Z"/>
  <path class="cls-1" d="M1148.49,1202.03c-.96.79-1.91,1.61-2.86,2.44.95-.82,1.9-1.64,2.86-2.44Z"/>
  <path class="cls-1" d="M1212.36,1171s-.01,0-.02,0c0,0,.01,0,.02,0Z"/>
  <path class="cls-1" d="M1144.93,1205.07c-1.18,1.03-2.34,2.09-3.5,3.17,1.16-1.08,2.32-2.14,3.5-3.17Z"/>
  <path class="cls-1" d="M1216.7,1170.07s0,0-.01,0c0,0,0,0,.01,0Z"/>
  <path class="cls-1" d="M1221.08,1169.23c-.08.01-.16.03-.23.04.08-.01.16-.03.23-.04Z"/>
  <path class="cls-1" d="M1171.02,1186.67c-.11.06-.22.13-.33.19.11-.06.22-.13.33-.19Z"/>
  <path class="cls-1" d="M1174.96,1184.56c-.15.08-.3.16-.44.24.15-.08.3-.16.44-.24Z"/>
  <path class="cls-1" d="M1178.94,1182.58c-.05.03-.11.05-.16.08.05-.03.11-.05.16-.08Z"/>
  <path class="cls-1" d="M1229.26,1002.68c39.96-6.96,82.06-5.63,120.54.38-39.39-8.2-81.55-8.01-120.54-.38Z"/>
  <path class="cls-1" d="M953.69,1477.71c6.24,25.84,30.01,39.3,57.44,40.82-27.47-1.7-51.26-15.27-57.44-40.82Z"/>
  <path class="cls-1" d="M1449.08,1049.66c-7.75-6.71-16.11-12.73-24.96-18.11,12.5,7.91,22.13,16.04,29.89,23.01-1.71-1.77-3.35-3.44-4.93-4.9Z"/>
  <path class="cls-1" d="M1888.18,1649.87c6.28,52.73,40.73,106.1,83.98,75.91-43.21,30.16-77.68-23.19-83.98-75.91Z"/>
  <path class="cls-1" d="M1069.58,1336.81c9.41,49.11,15.88,91.14,4.73,116.64,11.16-25.52,4.7-67.55-4.73-116.64Z"/>
  <path class="cls-1" d="M1474.15,1071.44c6.76,3.78,12.07,2.38,18.61-7.87-6,9.18-12.35,10.4-18.61,7.87Z"/>
  <path class="cls-1" d="M1255.39,1166.26c.56,0,1.12-.01,1.68-.01-.56,0-1.12.01-1.68.01Z"/>
  <path class="cls-1" d="M1092.58,1286.44c8.71,48.27,19.25,93.75,21.49,127.56-2.26-34.22-12.77-79.58-21.49-127.56Z"/>
  <path class="cls-1" d="M1109.14,1019.61c1.47-1.15,2.97-2.28,4.48-3.4-1.5,1.12-3,2.24-4.48,3.4Z"/>
  <path class="cls-1" d="M1488.22,1042.79c-6.74-9.39-18.61-19.93-33.63-30.07,8.86,6.37,17.17,13.37,24.81,21.06,2.66,2.91,5.96,5.85,8.82,9.01Z"/>
  <path class="cls-1" d="M1113.7,1016.15c29.31-21.59,66.4-36.71,106.31-44.78-38.33,7.26-74.92,21.52-106.31,44.78Z"/>
  <path class="cls-1" d="M1358.1,971.68c-.12-.02-.25-.04-.37-.06,5.87,1.24,11.68,2.64,17.42,4.21-5.68-1.61-11.37-3.01-17.04-4.15Z"/>
  <path class="cls-1" d="M1208.05,1172.05s-.07.02-.11.03c.04,0,.07-.02.11-.03Z"/>
  <path class="cls-1" d="M1294.22,1169.1c-1.33-.2-2.67-.38-4-.55,1.33.18,2.67.36,4,.55Z"/>
  <path class="cls-1" d="M1284.87,1167.89c-1.07-.12-2.13-.23-3.2-.33,1.06.11,2.13.21,3.2.33Z"/>
  <path class="cls-1" d="M1289.55,1168.46c-1.17-.15-2.34-.29-3.51-.43,1.17.14,2.34.27,3.51.43Z"/>
  <path class="cls-1" d="M1280.21,1167.4c-1.01-.1-2.02-.18-3.02-.26,1.01.08,2.01.17,3.02.26Z"/>
  <path class="cls-1" d="M1275.56,1167c-.92-.07-1.84-.13-2.76-.19.92.06,1.84.12,2.76.19Z"/>
  <path class="cls-1" d="M1298.9,1169.83c-1.39-.23-2.79-.44-4.18-.65,1.39.21,2.79.42,4.18.65Z"/>
  <path class="cls-1" d="M1182.44,1276.33c-19.44-18.64-21.52-53.93-2.11-74.18-7.75,7.77-13.05,18.58-13.9,32.45-1.22,18.91,5.51,32.81,16.01,41.73Z"/>
  <path class="cls-1" d="M1421.22,1212c-2.55-1.31-5.13-2.6-7.73-3.88,2.6,1.28,5.17,2.57,7.73,3.88Z"/>
  <path class="cls-1" d="M1270.92,1166.68c-.81-.05-1.62-.08-2.42-.12.81.04,1.61.07,2.42.12Z"/>
  <path class="cls-1" d="M1408.49,1205.69c-34.36-16.44-72.04-29.74-109.41-35.84,37.38,6.1,75.07,19.41,109.41,35.84Z"/>
  <path class="cls-1" d="M1412.77,1207.77c-1.27-.62-2.54-1.23-3.81-1.85,1.27.61,2.55,1.23,3.81,1.85Z"/>
  <path class="cls-1" d="M1238.89,1166.95c-.32.03-.64.06-.96.09.32-.03.64-.06.96-.09Z"/>
  <path class="cls-1" d="M1247.94,1166.41c-.4.02-.81.04-1.21.06.4-.02.81-.04,1.21-.06Z"/>
  <path class="cls-1" d="M1243.4,1166.63c-.36.02-.71.05-1.07.08.36-.02.71-.05,1.07-.08Z"/>
  <path class="cls-1" d="M1252.5,1166.28c-.49,0-.97.03-1.46.04.49-.01.97-.03,1.46-.04Z"/>
  <path class="cls-1" d="M1229.93,1167.89c-.18.02-.36.05-.54.08.18-.02.36-.05.54-.08Z"/>
  <path class="cls-1" d="M1261.68,1166.3c-.66-.01-1.32-.02-1.98-.02.66,0,1.32.01,1.98.02Z"/>
  <path class="cls-1" d="M1266.29,1166.45c-.74-.03-1.47-.05-2.2-.07.73.02,1.47.04,2.2.07Z"/>
  <path class="cls-1" d="M1225.49,1168.51c-.07.01-.13.02-.2.03.07-.01.13-.02.2-.03Z"/>
  <path class="cls-1" d="M1234.39,1167.37c-.25.03-.5.06-.74.09.25-.03.5-.06.74-.09Z"/>
  <path class="cls-3" d="M647.71,335.1c.08-.1.15-.19.23-.28C697.02,31.96,412.15,49.12,267.24,197.89c-95.16,88.94-196.31,279.61-71.77,382.84,18.54,35.32,54.64,59.95,94.41,63.98,15.82,1.45-1.2,2.53,27.64-31-.55.04-3.73-2.52,2.51-2.87,56.81-64.16,132.53-128.79,196.89-179.37,44.29-35.72,87.01-67.64,118.98-88.18,6.73-4.7,10.86-7.53,11.81-8.21ZM179.73,508.67c-27.73-83.86,16.38-173.12,66.46-239.86-47.78,70.94-65.81,155.55-66.46,239.86Z"/>
  <path class="cls-7" d="M1981.84,1479c-76.16-185.95-61.95-151.7-66.8-205.26-18.44-3.09-38.96-10.09-60.55-19.45-112.07-42.87-255.17-134.33-394.65-238.83-161.71-117.78-318.87-256.7-433.14-378.08-1.75-1.85-3.48-3.69-5.18-5.51-2.43,2.65-4.89,5.3-7.35,7.96-76.3,82.21-158.57,156.27-245.25,227.3-69.91,58.03-132.33,105.66-170.13,133.26-4.02,2.98-7.98,5.91-11.92,8.83-52.72,39.77-106.53,79.7-161.14,120.77-55.04,41.73-97.4,74.37-130.77,99.96-1.24.97-2.48,1.93-3.72,2.91-.22.15-.44.31-.67.46-16.39,12.56-30.53,23.36-42.91,32.65-18.53,14.61-37.52,29.2-57.67,40.39-22.07,13.22-36.26,17.08-56.58,19.37-20.87,75.47-43.99,200.38-76.23,306.31-17.51,73.48-118.48,270.93-1.51,298.05,102.34-6.12,140.06-153.26,166.97-253.95,108,273.5,457.41,428.33,740.42,428.32,407.69,0,750.3-229.36,887-500.41,36.52,241.65,145.91,225.83,167.19,135.37,19.52-87.23-7.1-177.94-35.4-260.43ZM44.41,1808.72c-11.72-54.86,63.08-181.22,121.6-114.36,37.66,57.36-74.74,213.26-121.6,114.36ZM382.77,1609.45c-44.22,0-81.13-36.91-81.13-81.13s36.91-81.13,81.13-81.13,81.13,36.91,81.13,81.13-36.91,81.13-81.13,81.13ZM462.48,1141.6c-34.82-23.08,54.8-66.21,71.39-78.44,106.55-69.85,238.7-58.24,356.96-29.9,8.65,1.97,13.69,11.61,11.45,19.89-6.02,19.44-27.77,8.92-41.79,6.76-297.18-66.43-366.4,101.37-398.01,81.68ZM547.7,1274.18c-12.43-11.49-1.13-26.12,10.33-32.86,1.82-1.4,3.64-2.77,5.48-4.13,1.67-1.23,3.34-2.45,5.01-3.64.16-.11.31-.23.47-.34,55.2-39.39,115.1-60.17,172.55-65.56.23-.02.46-.05.69-.07,1.43-.13,2.85-.25,4.27-.36.56-.04,1.12-.09,1.67-.14,1.09-.08,2.18-.15,3.27-.22.88-.06,1.77-.12,2.65-.17.76-.04,1.52-.07,2.28-.11,1.21-.06,2.42-.12,3.63-.16.43-.02.86-.03,1.29-.04,1.53-.05,3.07-.1,4.59-.13.1,0,.21,0,.31,0,51-.94,99.33,10.23,139.76,31.52,1.49.79,2.98,1.59,4.45,2.4,19.25,15.56-4.47,40.66-22.56,24.12-1.36-.64-2.72-1.27-4.09-1.89-.56-.25-1.12-.5-1.68-.74-.8-.35-1.6-.71-2.4-1.06-.77-.33-1.54-.65-2.32-.98-.58-.24-1.16-.49-1.75-.73-.94-.39-1.89-.76-2.84-1.14-.4-.16-.79-.32-1.18-.47-1.12-.44-2.24-.86-3.37-1.29-.2-.07-.4-.15-.59-.22-40.61-15.06-84.78-19.76-128.09-15.22-.22.02-.44.05-.66.07-.85.09-1.7.19-2.55.29-43.02,5.12-86.7,19.74-127.68,44.79-13.59,8.62-23.38,15.91-30.84,21.41-5.19,4.41-11.12,9.49-17.32,10.83-4.54,1.44-8.21.36-12.8-3.77ZM799.35,1306.49c-45.54-22.4-31.69-93.98,19.66-96.52,27.65-2.96,52.61,20.29,54.52,47.26,3.88,38.41-40.33,67.16-74.17,49.25ZM1264.19,1682.31c-30.28,17.26-62.77,28.93-96.36,36.66-10.74,23.09-24.84,44.63-41.44,64.1-15.4,15.35-31.01,53.27-57.32,35.86-29.43-28.2-63.7-53.46-86.12-87.84-31.74-1.83-62.93-7.68-94.3-12.2-9.42.28-17.13-8.47-16.21-17.71,2.19-24.05,25.7-11.16,92.73-4.66-24.56-70.48,50.16-142.45,106.19-64.98,12.09-27.59,35.07-41.51,57.58-43.53,14.86-1.85,29.48,1.53,40.38,10.84,16.99,12.81,26.06,36.36,15.85,68.9-1,4.73-2.21,9.4-3.5,14.04,24.01-6.84,47.26-16.12,69.17-29.06,19.3-8.57,32.61,20.56,13.36,29.57ZM1166.44,1234.6c.85-13.87,6.15-24.67,13.9-32.45,8.82-9.2,22.07-15.29,40.16-15.29,13.49,0,24.31,4.98,32.19,12.73,10.23,8.94,16.75,22.71,15.55,41.33-.86,13.98-6.24,24.85-14.1,32.64-8.83,9.09-22.01,15.11-39.96,15.11-13.22,0-23.89-4.81-31.74-12.33-10.5-8.92-17.22-22.82-16.01-41.73ZM1421.22,1212c-2.55-1.31-5.13-2.6-7.73-3.88-.24-.12-.48-.24-.73-.36-1.27-.62-2.54-1.23-3.81-1.85-.16-.08-.31-.15-.47-.23-34.34-16.43-72.03-29.73-109.41-35.84-.06,0-.12-.02-.18-.03-1.39-.23-2.79-.44-4.18-.65-.17-.02-.34-.05-.5-.08-1.33-.2-2.67-.38-4-.55-.22-.03-.45-.06-.67-.09-1.17-.15-2.34-.29-3.51-.43-.39-.05-.77-.1-1.16-.14-1.07-.12-2.13-.23-3.2-.33-.49-.05-.98-.11-1.47-.15-1.01-.1-2.02-.18-3.02-.26-.54-.05-1.09-.1-1.63-.14-.92-.07-1.84-.13-2.76-.19-.63-.04-1.26-.09-1.88-.13-.81-.05-1.62-.08-2.42-.12-.74-.04-1.47-.08-2.21-.11-.74-.03-1.47-.05-2.2-.07-.8-.03-1.61-.06-2.41-.08-.66-.01-1.32-.02-1.98-.02-.87-.01-1.74-.03-2.61-.03-.56,0-1.12.01-1.68.01-.97,0-1.93,0-2.89.02-.49,0-.97.03-1.46.04-1.03.03-2.07.05-3.1.09-.4.02-.81.04-1.21.06-1.11.05-2.22.1-3.33.16-.36.02-.71.05-1.07.08-1.15.07-2.3.15-3.44.24-.32.03-.64.06-.96.09-1.18.1-2.35.21-3.53.33-.25.03-.5.06-.74.09-1.24.13-2.48.27-3.72.43-.18.02-.36.05-.54.08-1.3.17-2.6.35-3.9.55-.07.01-.13.02-.2.03-1.41.22-2.81.44-4.21.69-.08.01-.16.03-.23.04-1.39.25-2.77.51-4.15.79,0,0,0,0-.01,0-1.45.29-2.9.61-4.33.94,0,0-.01,0-.02,0-1.44.33-2.87.68-4.29,1.04-.04,0-.07.02-.11.03-9.98,2.57-19.68,6.03-29,10.5-.05.03-.11.05-.16.08-1.28.62-2.56,1.25-3.82,1.9-.15.08-.3.16-.44.24-1.17.61-2.34,1.23-3.49,1.87-.11.06-.22.13-.33.19-1.19.67-2.38,1.34-3.56,2.04-.14.08-.27.17-.4.25-1.15.69-2.3,1.39-3.43,2.11-.27.17-.54.36-.81.54-.99.64-1.99,1.29-2.97,1.96-.3.2-.59.42-.88.62-.95.66-1.91,1.32-2.85,2-.4.29-.79.6-1.19.9-.83.62-1.66,1.23-2.48,1.86-.55.43-1.09.87-1.64,1.31-.66.53-1.32,1.04-1.98,1.58-.96.79-1.91,1.61-2.86,2.44-.23.2-.47.39-.7.59-1.18,1.03-2.34,2.09-3.5,3.17-6.06,8.58-16.54,16.22-26.71,8.98-21.39-18.49,11.82-39.08,25.9-49.85,90.14-61.58,204.94-28.35,295.21,15.64,18.7,9.75,4.5,38.35-14.61,29ZM1493.47,1062.45c-.24.39-.47.76-.71,1.12-6.54,10.25-11.85,11.64-18.61,7.87-7.05-2.85-13.98-10.48-20.14-16.88-7.76-6.97-17.39-15.1-29.89-23.01-22.27-13.55-47.66-22.95-74.32-28.5-38.48-6.01-80.59-7.34-120.54-.38-45.5,8.91-86.68,27.93-114.06,55.54-47.07,54.47-37.54,145.45-22.61,228.22,8.71,47.99,19.22,93.34,21.49,127.56,7.28,72.53-53.73,107.57-102.94,104.52-27.43-1.52-51.19-14.99-57.44-40.82-3.01-9.95-9.72-21.55-4.25-31.7,6.51-12.14,26.72-9.62,29.65,3.98,3.5,10.59,4.68,25.15,15.09,31.21,28.76,12.05,67.2,2.39,80.13-27.74,11.16-25.5,4.69-67.54-4.73-116.64-19.93-103.84-53.05-239.32,39.55-317.19,1.48-1.16,2.98-2.29,4.48-3.4.03-.02.06-.04.08-.06,31.39-23.26,67.98-37.52,106.31-44.78,44.66-9.03,92.86-9.22,137.71.25.12.02.25.04.37.06,5.67,1.14,11.36,2.54,17.04,4.15,29.02,7.94,56.16,20.16,79.45,36.9,15.02,10.13,26.89,20.67,33.63,30.07,5.01,5.53,8.68,11.73,5.25,19.65ZM1649.25,1554.02c-44.22,0-81.13-36.91-81.13-81.13s36.91-81.13,81.13-81.13,81.13,36.91,81.13,81.13-36.91,81.13-81.13,81.13ZM1972.16,1725.78c-43.25,30.19-77.7-23.18-83.98-75.91-5.82-48.7,12.38-96.86,69.93-78.15,44.3,21.6,54.55,124.94,14.05,154.06Z"/>
  <path class="cls-3" d="M247.65,1265.97c12.38-9.3,26.53-20.09,42.91-32.65,1.45-1.11,2.91-2.23,4.39-3.37,33.37-25.59,75.73-58.22,130.77-99.96,44.7-33.89,97.76-73.79,161.14-120.77,3.94-2.92,7.9-5.86,11.92-8.83,37.79-27.6,100.22-75.22,170.13-133.26,80.54-66.85,171.01-147.52,245.25-227.3,2.47-2.65,4.92-5.3,7.35-7.96,1.71,1.83,3.45,3.67,5.18,5.51,114.28,121.39,271.43,260.31,433.14,378.08,83.91,61.12,169.04,116.54,250.04,160.86,46.43,26.58,98.02,57.77,144.62,77.97,21.59,9.36,42.11,16.36,60.55,19.45,43.11,7.22,74.85-6.93,82.31-62.29,94.23-154.89-114.99-506.46-203.79-583.25-9.82,9.39-29.49,10.64-43.23,6.81-191.88-30.48-334.42-184.99-440.94-336.77-1.58-3.4-2-6.52-1.57-9.29-72.96-25.39-136.37-28.36-180.03,38.79-1.82-1.27-3.66-2.52-5.55-3.68-21.97-73.01-226.79-139.34-449.88,11.24,11.34,12.12-13.06,65.19-69.98,128.92-.07.08-.13.15-.2.23-.81.91-1.65,1.83-2.48,2.74-50.37,55.75-125.37,119.26-223.23,170.64-.29.11-.59.22-.9.34-.05.02-.1.04-.15.06-.28.11-.57.23-.86.35,0,0-.01,0-.02,0-5.92,2.5-14.09,7.23-22.93,11.88-14.04,7.42-29.7,14.65-40.73,12.48-.17-.03-.34-.07-.5-.1-.05-.01-.11-.03-.16-.04-1.9-.43-3.65-1.15-5.23-2.21-84.81,106.26-148.85,229.79-187.39,358.51-8.46,51.26-108.31,320.64,15.8,306.62,20.32-2.3,34.5-6.15,56.58-19.37,14.5-8.68,32.4-21.42,57.67-40.39ZM1935,1120.64c-1.06-6.11-36.6-146.5-82.94-248.61,46.17,70.28,76.04,151.51,82.94,248.61ZM1882.51,1058.5c9.77,51.62,4.1,19.63-9.64-.66-19.44-42.28-34.34-51.97-64.28-113.49,23.12,30.43,53.76,72.03,73.92,114.14Z"/>
  <path class="cls-3" d="M611.92,400.52c-86.2,59.95-164.55,129.33-239.5,202.68,93.31-49.57,176.64-117.48,239.5-202.68Z"/>
  <path class="cls-3" d="M1345.25,288.8c.17.39.36.76.54,1.14,2.55,4.96,8.5,11.64,17.04,19.56,4.25,3.57,8.58,7.05,12.37,10.81,134.93,103.54,248.08,168.1,323.76,212.34,32.1,17.14,66.17,35.99,85.82,55.13,105.79-98.83,19.62-396.01-66.14-482.57-94.57-111.44-350.45-200.08-368.76,92.79-8.49,25.13-12.87,51.85-13.59,79.29,4.25,2.05,7.65,5.77,8.96,11.49Z"/>
  <path class="cls-3" d="M1752.21,602.41c-107.77-65.26-220.01-123.61-320.42-200.48,85.37,93.95,191.51,180.47,320.42,200.48Z"/>
  <path class="cls-6" d="M310.38,662.85c.17.04.33.07.5.1,11.05,2.08,26.73-5.11,40.73-12.48,8.84-4.65,17.02-9.38,22.93-11.88,0,0,.01,0,.02,0,.29-.12.58-.24.86-.35.05-.02.1-.04.15-.06.31-.12.61-.24.9-.34,97.86-51.38,172.86-114.89,223.23-170.64.83-.91,1.66-1.83,2.48-2.74.07-.08.13-.15.2-.23,56.95-63.83,81.21-116.91,69.98-128.92-6.58-7.04-18.09-7.97-24.43-.48-.08.09-.16.19-.23.28-.38.47-.74.97-1.08,1.5-3.42,2.07-7.01,4.32-10.74,6.71-31.97,20.54-74.68,52.46-118.98,88.18-104.9,84.59-218.63,190.46-219.35,216.79,1.37,6.08,3.97,10.01,7.42,12.33,1.58,1.06,3.33,1.78,5.23,2.21.05.01.11.03.16.04ZM611.92,400.52c-62.86,85.2-146.19,153.1-239.5,202.68,74.95-73.35,153.31-142.73,239.5-202.68Z"/>
  <path class="cls-6" d="M1309.4,298.23c106.52,151.78,249.05,306.29,440.94,336.77,13.75,3.82,33.41,2.58,43.23-6.81,24.91-23.82-13.15-47.91-94.61-95.53-75.68-44.25-188.83-108.81-323.76-212.34-3.79-3.77-8.13-7.24-12.37-10.81-6.79-5.71-13.32-11.7-17.04-19.56-.18-.38-.38-.75-.54-1.14-1.31-5.72-4.71-9.44-8.96-11.49-10.68-5.15-26.71.34-28.46,11.64-.43,2.77,0,5.89,1.57,9.29ZM1431.8,401.94c100.4,76.86,212.64,135.22,320.42,200.48-128.91-20-235.04-106.53-320.42-200.48Z"/>
  <path class="cls-4" d="M44.41,1808.72c46.86,98.9,159.26-57,121.6-114.36-58.52-66.85-133.32,59.5-121.6,114.36Z"/>
  <path class="cls-4" d="M1958.11,1571.72c-57.55-18.71-75.75,29.45-69.93,78.15,6.3,52.72,40.77,106.07,83.98,75.91,40.5-29.12,30.25-132.46-14.05-154.06Z"/>
  <path class="cls-5" d="M873.52,1257.24c-1.91-26.97-26.87-50.22-54.52-47.26-51.34,2.53-65.2,74.12-19.66,96.52,33.84,17.91,78.05-10.84,74.17-49.25ZM832.66,1271.94c-10.05,8.74-25.3,2.17-26.76-10.21-.05-.46-.09-.93-.11-1.41,0-.11-.01-.21-.02-.31,0-.43,0-.88.03-1.32.53-8.24,6.87-15.18,17.21-15.18,6.51,0,11.73,4.5,13.98,10.25.03.07.06.14.09.22.03.07.05.15.08.22,2.12,5.81,1.22,12.79-4.51,17.75Z"/>
  <path class="cls-5" d="M1182.44,1276.33c7.85,7.52,18.51,12.33,31.74,12.33,17.94,0,31.13-6.01,39.96-15.11,19.49-20.07,17.68-55.17-1.44-73.96-7.88-7.75-18.71-12.73-32.19-12.73-18.09,0-31.34,6.1-40.16,15.29-19.42,20.24-17.33,55.54,2.11,74.18ZM1226.19,1237.31c-.03.5-.09,1-.16,1.5-.84,5.45-4.3,10.16-9.81,12.36-.07.03-.14.06-.21.09-.38.15-.78.27-1.18.39-.14.04-.28.1-.43.14-.36.1-.74.17-1.11.25-.2.04-.39.1-.6.13-.38.07-.77.11-1.17.15-.22.03-.42.06-.64.08-.62.05-1.25.08-1.9.08-6.49,0-11.7-4.47-13.96-10.2-.04-.09-.08-.18-.11-.27-.02-.05-.04-.11-.06-.16-2.14-5.82-1.26-12.83,4.49-17.81.34-.29.68-.57,1.03-.83.31-.23.63-.44.95-.65.04-.03.08-.05.12-.08,2.84-1.79,5.96-2.53,9.01-2.42.04,0,.07,0,.11,0,.19,0,.37.03.56.04.2.02.39.02.59.05.01,0,.03,0,.04,0,7.99.94,15.04,7.75,14.44,17.14Z"/>
  <path class="cls-2" d="M860.5,1059.91c14.02,2.16,35.77,12.68,41.79-6.76,2.25-8.29-2.8-17.93-11.45-19.89-118.26-28.34-250.42-39.95-356.96,29.9-16.59,12.23-106.21,55.36-71.39,78.44,31.52,19.62,100.72-148.14,398.01-81.68Z"/>
  <path class="cls-2" d="M1479.4,1033.79c-7.63-7.69-15.95-14.69-24.81-21.06-23.29-16.74-50.44-28.96-79.45-36.9-5.74-1.57-11.55-2.98-17.42-4.21-44.85-9.46-93.05-9.27-137.71-.25-39.92,8.07-77,23.19-106.31,44.78-.03.02-.06.04-.08.06-1.51,1.12-3.01,2.25-4.48,3.4-92.61,77.87-59.48,213.35-39.55,317.19,9.42,49.1,15.89,91.12,4.73,116.64-12.93,30.14-51.37,39.79-80.13,27.74-10.41-6.06-11.59-20.62-15.09-31.21-2.94-13.6-23.14-16.11-29.65-3.98-5.47,10.15,1.24,21.76,4.25,31.7,6.17,25.55,29.97,39.12,57.44,40.82,49.21,3.05,110.22-32,102.94-104.52-2.24-33.82-12.78-79.3-21.49-127.56-14.93-82.77-24.45-173.75,22.61-228.22,27.38-27.6,68.56-46.63,114.06-55.54,38.99-7.63,81.15-7.82,120.54.38,26.66,5.55,52.05,14.95,74.32,28.5,8.85,5.38,17.21,11.4,24.96,18.11,1.58,1.45,3.22,3.13,4.93,4.9,6.17,6.39,13.09,14.02,20.14,16.88,6.25,2.53,12.6,1.31,18.61-7.87.24-.36.47-.74.71-1.12,3.43-7.92-.24-14.12-5.25-19.65-2.86-3.16-6.16-6.1-8.82-9.01Z"/>
  <path class="cls-2" d="M579.78,1265.47c9.44-7.19,19.09-13.77,28.89-19.76,40.98-25.05,84.66-39.67,127.68-44.79.85-.1,1.7-.19,2.55-.29.22-.02.44-.05.66-.07,44.76-4.84,88.71.58,128.09,15.22.2.07.4.15.59.22,1.13.42,2.25.85,3.37,1.29.4.15.79.31,1.18.47.95.38,1.9.75,2.84,1.14.58.24,1.16.49,1.75.73.77.32,1.55.64,2.32.98.8.35,1.6.7,2.4,1.06.56.25,1.12.49,1.68.74,1.37.62,2.73,1.25,4.09,1.89,18.09,16.55,41.81-8.56,22.56-24.12-1.47-.81-2.96-1.61-4.45-2.4-40.18-21.15-88.54-32.45-139.76-31.52-.1,0-.21,0-.31,0-1.53.03-3.06.08-4.59.13-.43.01-.86.02-1.29.04-1.21.04-2.42.11-3.63.16-.76.04-1.52.07-2.28.11-.88.05-1.77.11-2.65.17-1.09.07-2.18.14-3.27.22-.56.04-1.12.09-1.67.14-1.42.11-2.84.23-4.27.36-.23.02-.46.05-.69.07-57.45,5.39-117.35,26.17-172.55,65.56-.16.11-.31.23-.47.34-1.68,1.2-3.35,2.41-5.01,3.64-1.83,1.36-3.66,2.73-5.48,4.13-11.46,6.73-22.76,21.36-10.33,32.86,4.29,3.87,8.61,4.67,12.8,3.77,6.21-1.34,12.14-6.42,17.32-10.83.66-.57,1.32-1.12,1.96-1.65Z"/>
  <path class="cls-2" d="M1435.83,1183.01c-90.27-43.99-205.07-77.22-295.21-15.64-14.07,10.77-47.29,31.36-25.9,49.85,10.18,7.24,20.66-.39,26.71-8.98,1.16-1.08,2.32-2.14,3.5-3.17.23-.2.47-.39.7-.59.95-.82,1.9-1.64,2.86-2.44.65-.54,1.32-1.06,1.98-1.58.55-.44,1.09-.88,1.64-1.31.82-.64,1.65-1.25,2.48-1.86.4-.3.79-.6,1.19-.9.94-.69,1.89-1.34,2.85-2,.3-.2.59-.42.88-.62.98-.67,1.98-1.32,2.97-1.96.27-.18.54-.36.81-.54,1.14-.72,2.28-1.42,3.43-2.11.13-.08.27-.17.4-.25,1.18-.7,2.36-1.38,3.56-2.04.11-.06.22-.13.33-.19,1.16-.64,2.32-1.26,3.49-1.87.15-.08.3-.16.44-.24,1.27-.65,2.54-1.29,3.82-1.9.05-.03.11-.05.16-.08,9.32-4.47,19.02-7.93,29-10.5.04,0,.07-.02.11-.03,1.43-.37,2.86-.71,4.29-1.04,0,0,.01,0,.02,0,1.44-.33,2.88-.64,4.33-.94,0,0,0,0,.01,0,1.38-.28,2.76-.54,4.15-.79.08-.01.16-.03.23-.04,1.4-.25,2.8-.48,4.21-.69.07-.01.13-.02.2-.03,1.29-.2,2.6-.38,3.9-.55.18-.02.36-.05.54-.08,1.24-.16,2.48-.3,3.72-.43.25-.03.5-.06.74-.09,1.17-.12,2.35-.23,3.53-.33.32-.03.64-.06.96-.09,1.14-.09,2.29-.17,3.44-.24.36-.02.71-.05,1.07-.08,1.11-.07,2.22-.11,3.33-.16.4-.02.81-.04,1.21-.06,1.03-.04,2.07-.06,3.1-.09.49-.01.97-.03,1.46-.04.96-.02,1.93-.02,2.89-.02.56,0,1.12-.01,1.68-.01.87,0,1.74.02,2.61.03.66,0,1.32.01,1.98.02.8.02,1.61.05,2.41.08.73.02,1.47.04,2.2.07.73.03,1.47.07,2.21.11.81.04,1.61.07,2.42.12.63.04,1.26.09,1.88.13.92.06,1.84.12,2.76.19.54.04,1.09.1,1.63.14,1.01.08,2.01.17,3.02.26.49.05.98.1,1.47.15,1.06.11,2.13.21,3.2.33.39.04.77.1,1.16.14,1.17.14,2.34.27,3.51.43.22.03.45.06.67.09,1.33.18,2.67.36,4,.55.17.02.34.05.5.08,1.39.21,2.79.42,4.18.65.06,0,.12.02.18.03,37.37,6.1,75.05,19.4,109.41,35.84.16.07.31.15.47.23,1.27.61,2.55,1.23,3.81,1.85.24.12.48.24.73.36,2.6,1.28,5.17,2.57,7.73,3.88,19.11,9.35,33.31-19.25,14.61-29Z"/>
  <path class="cls-2" d="M837.09,1253.96c-.03-.07-.06-.14-.09-.22-2.28-5.76-7.54-10.25-13.98-10.25-10.28,0-16.68,6.93-17.21,15.18-.03.45-.04.89-.03,1.32,0,.11.01.21.02.31.02.48.05.95.11,1.41,1.46,12.38,16.71,18.95,26.76,10.21,5.73-4.96,6.63-11.95,4.51-17.75-.03-.07-.05-.15-.08-.22Z"/>
  <path class="cls-2" d="M1211.75,1220.17s-.03,0-.04,0c-.2-.02-.39-.03-.59-.05-.19-.01-.37-.04-.56-.04-.04,0-.07,0-.11,0-3.04-.11-6.16.63-9.01,2.42-.04.02-.08.05-.12.08-.32.2-.64.42-.95.65-.35.26-.69.54-1.03.83-5.75,4.98-6.63,11.99-4.49,17.81.02.05.04.11.06.16.03.09.08.18.11.27,2.29,5.73,7.53,10.2,13.96,10.2.65,0,1.29-.03,1.9-.08.22-.02.43-.06.64-.08.39-.05.79-.09,1.17-.15.2-.04.4-.09.6-.13.37-.08.75-.15,1.11-.25.15-.04.28-.1.43-.14.4-.12.8-.24,1.18-.39.07-.03.14-.06.21-.09,5.56-2.22,8.98-6.99,9.81-12.36.08-.5.13-1,.16-1.5.6-9.39-6.46-16.2-14.44-17.14Z"/>
  <path class="cls-8" d="M1250.83,1652.73c-21.91,12.94-45.15,22.22-69.17,29.06,1.29-4.64,2.5-9.31,3.5-14.04,10.21-32.55,1.14-56.1-15.85-68.9-11.13-8.39-25.65-12.17-40.38-10.84-22.5,2.02-45.49,15.94-57.58,43.53-56.03-77.47-130.75-5.5-106.19,64.98-67.21-6.53-90.57-19.04-92.73,4.66-.91,9.24,6.8,18,16.21,17.71,31.37,4.52,62.56,10.38,94.3,12.2,22.42,34.38,56.69,59.64,86.12,87.84,26.32,17.41,41.92-20.51,57.32-35.86,16.6-19.47,30.69-41.01,41.44-64.1,33.59-7.72,66.08-19.4,96.36-36.66,19.25-9.01,5.94-38.14-13.36-29.57Z"/>
  <path class="cls-8" d="M382.77,1447.18c-44.22,0-81.13,36.91-81.13,81.13s36.91,81.13,81.13,81.13,81.13-36.91,81.13-81.13-36.91-81.13-81.13-81.13Z"/>
  <path class="cls-8" d="M1649.25,1391.75c-44.22,0-81.13,36.91-81.13,81.13s36.91,81.13,81.13,81.13,81.13-36.91,81.13-81.13-36.91-81.13-81.13-81.13Z"/>
</svg>